%TF.GenerationSoftware,KiCad,Pcbnew,8.0.6-8.0.6-0~ubuntu22.04.1*%
%TF.CreationDate,2024-10-30T23:16:03-03:00*%
%TF.ProjectId,Projeto SEMB,50726f6a-6574-46f2-9053-454d422e6b69,rev?*%
%TF.SameCoordinates,Original*%
%TF.FileFunction,Paste,Top*%
%TF.FilePolarity,Positive*%
%FSLAX46Y46*%
G04 Gerber Fmt 4.6, Leading zero omitted, Abs format (unit mm)*
G04 Created by KiCad (PCBNEW 8.0.6-8.0.6-0~ubuntu22.04.1) date 2024-10-30 23:16:03*
%MOMM*%
%LPD*%
G01*
G04 APERTURE LIST*
G04 Aperture macros list*
%AMRoundRect*
0 Rectangle with rounded corners*
0 $1 Rounding radius*
0 $2 $3 $4 $5 $6 $7 $8 $9 X,Y pos of 4 corners*
0 Add a 4 corners polygon primitive as box body*
4,1,4,$2,$3,$4,$5,$6,$7,$8,$9,$2,$3,0*
0 Add four circle primitives for the rounded corners*
1,1,$1+$1,$2,$3*
1,1,$1+$1,$4,$5*
1,1,$1+$1,$6,$7*
1,1,$1+$1,$8,$9*
0 Add four rect primitives between the rounded corners*
20,1,$1+$1,$2,$3,$4,$5,0*
20,1,$1+$1,$4,$5,$6,$7,0*
20,1,$1+$1,$6,$7,$8,$9,0*
20,1,$1+$1,$8,$9,$2,$3,0*%
G04 Aperture macros list end*
%ADD10C,0.000000*%
%ADD11RoundRect,0.237500X-0.237500X0.250000X-0.237500X-0.250000X0.237500X-0.250000X0.237500X0.250000X0*%
%ADD12RoundRect,0.225000X-0.250000X0.225000X-0.250000X-0.225000X0.250000X-0.225000X0.250000X0.225000X0*%
%ADD13RoundRect,0.237500X-0.250000X-0.237500X0.250000X-0.237500X0.250000X0.237500X-0.250000X0.237500X0*%
%ADD14RoundRect,0.225000X0.250000X-0.225000X0.250000X0.225000X-0.250000X0.225000X-0.250000X-0.225000X0*%
%ADD15RoundRect,0.225000X0.225000X0.250000X-0.225000X0.250000X-0.225000X-0.250000X0.225000X-0.250000X0*%
%ADD16RoundRect,0.237500X0.250000X0.237500X-0.250000X0.237500X-0.250000X-0.237500X0.250000X-0.237500X0*%
%ADD17RoundRect,0.218750X-0.256250X0.218750X-0.256250X-0.218750X0.256250X-0.218750X0.256250X0.218750X0*%
%ADD18RoundRect,0.079500X0.079500X0.100500X-0.079500X0.100500X-0.079500X-0.100500X0.079500X-0.100500X0*%
%ADD19R,2.790000X1.190000*%
%ADD20R,0.750000X0.650000*%
%ADD21RoundRect,0.062500X0.187500X0.062500X-0.187500X0.062500X-0.187500X-0.062500X0.187500X-0.062500X0*%
%ADD22RoundRect,0.079500X0.100500X-0.079500X0.100500X0.079500X-0.100500X0.079500X-0.100500X-0.079500X0*%
%ADD23RoundRect,0.250000X1.000000X-0.375000X1.000000X0.375000X-1.000000X0.375000X-1.000000X-0.375000X0*%
%ADD24RoundRect,0.237500X0.237500X-0.250000X0.237500X0.250000X-0.237500X0.250000X-0.237500X-0.250000X0*%
%ADD25R,0.900000X1.700000*%
%ADD26RoundRect,0.250000X-0.315000X-0.315000X0.315000X-0.315000X0.315000X0.315000X-0.315000X0.315000X0*%
%ADD27RoundRect,0.062500X-0.375000X-0.062500X0.375000X-0.062500X0.375000X0.062500X-0.375000X0.062500X0*%
%ADD28RoundRect,0.062500X-0.062500X-0.375000X0.062500X-0.375000X0.062500X0.375000X-0.062500X0.375000X0*%
%ADD29R,1.803400X0.533400*%
%ADD30RoundRect,0.250000X-0.400000X-0.600000X0.400000X-0.600000X0.400000X0.600000X-0.400000X0.600000X0*%
%ADD31RoundRect,0.218750X0.256250X-0.218750X0.256250X0.218750X-0.256250X0.218750X-0.256250X-0.218750X0*%
%ADD32RoundRect,0.250000X2.050000X0.300000X-2.050000X0.300000X-2.050000X-0.300000X2.050000X-0.300000X0*%
%ADD33RoundRect,0.250000X2.025000X2.375000X-2.025000X2.375000X-2.025000X-2.375000X2.025000X-2.375000X0*%
%ADD34RoundRect,0.125000X-0.125000X0.687500X-0.125000X-0.687500X0.125000X-0.687500X0.125000X0.687500X0*%
%ADD35R,2.200000X2.200000*%
%ADD36R,1.700000X0.900000*%
%ADD37R,1.803400X0.457200*%
%ADD38RoundRect,0.225000X-0.225000X-0.250000X0.225000X-0.250000X0.225000X0.250000X-0.225000X0.250000X0*%
%ADD39RoundRect,0.150000X-0.150000X0.587500X-0.150000X-0.587500X0.150000X-0.587500X0.150000X0.587500X0*%
%ADD40R,0.508000X0.977900*%
%ADD41R,1.200000X1.400000*%
G04 APERTURE END LIST*
D10*
%TO.C,U2*%
G36*
X190276867Y-77447867D02*
G01*
X189147600Y-77447867D01*
X189147600Y-76318600D01*
X190276867Y-76318600D01*
X190276867Y-77447867D01*
G37*
G36*
X190276867Y-78777134D02*
G01*
X189147600Y-78777134D01*
X189147600Y-77647866D01*
X190276867Y-77647866D01*
X190276867Y-78777134D01*
G37*
G36*
X190276867Y-80106400D02*
G01*
X189147600Y-80106400D01*
X189147600Y-78977133D01*
X190276867Y-78977133D01*
X190276867Y-80106400D01*
G37*
G36*
X191606134Y-77447867D02*
G01*
X190476866Y-77447867D01*
X190476866Y-76318600D01*
X191606134Y-76318600D01*
X191606134Y-77447867D01*
G37*
G36*
X191606134Y-78777134D02*
G01*
X190476866Y-78777134D01*
X190476866Y-77647866D01*
X191606134Y-77647866D01*
X191606134Y-78777134D01*
G37*
G36*
X191606134Y-80106400D02*
G01*
X190476866Y-80106400D01*
X190476866Y-78977133D01*
X191606134Y-78977133D01*
X191606134Y-80106400D01*
G37*
G36*
X192935400Y-77447867D02*
G01*
X191806133Y-77447867D01*
X191806133Y-76318600D01*
X192935400Y-76318600D01*
X192935400Y-77447867D01*
G37*
G36*
X192935400Y-78777134D02*
G01*
X191806133Y-78777134D01*
X191806133Y-77647866D01*
X192935400Y-77647866D01*
X192935400Y-78777134D01*
G37*
G36*
X192935400Y-80106400D02*
G01*
X191806133Y-80106400D01*
X191806133Y-78977133D01*
X192935400Y-78977133D01*
X192935400Y-80106400D01*
G37*
%TD*%
D11*
%TO.C,R11*%
X146620000Y-141387500D03*
X146620000Y-143212500D03*
%TD*%
%TO.C,R1*%
X57756700Y-125855000D03*
X57756700Y-127680000D03*
%TD*%
D12*
%TO.C,C10*%
X203075300Y-139772100D03*
X203075300Y-141322100D03*
%TD*%
D13*
%TO.C,R34*%
X201207500Y-64812500D03*
X203032500Y-64812500D03*
%TD*%
D14*
%TO.C,C5*%
X59938300Y-127712500D03*
X59938300Y-126162500D03*
%TD*%
D13*
%TO.C,R13*%
X135707500Y-98212500D03*
X137532500Y-98212500D03*
%TD*%
D15*
%TO.C,C19*%
X133620000Y-118212500D03*
X132070000Y-118212500D03*
%TD*%
D13*
%TO.C,R3*%
X188120000Y-135212500D03*
X189945000Y-135212500D03*
%TD*%
D16*
%TO.C,R16*%
X47120000Y-44518600D03*
X45295000Y-44518600D03*
%TD*%
D14*
%TO.C,C8*%
X78120000Y-128866600D03*
X78120000Y-127316600D03*
%TD*%
D16*
%TO.C,R22*%
X47120000Y-58539000D03*
X45295000Y-58539000D03*
%TD*%
D12*
%TO.C,C9*%
X199155300Y-137516100D03*
X199155300Y-139066100D03*
%TD*%
D11*
%TO.C,R31*%
X138120000Y-108887500D03*
X138120000Y-110712500D03*
%TD*%
D12*
%TO.C,C17*%
X141132500Y-125162500D03*
X141132500Y-126712500D03*
%TD*%
D17*
%TO.C,L1*%
X54120000Y-125925000D03*
X54120000Y-127500000D03*
%TD*%
D14*
%TO.C,C4*%
X62120000Y-127712500D03*
X62120000Y-126162500D03*
%TD*%
D15*
%TO.C,C18*%
X133620000Y-115709800D03*
X132070000Y-115709800D03*
%TD*%
D18*
%TO.C,D4*%
X138475300Y-112528200D03*
X137785300Y-112528200D03*
%TD*%
D19*
%TO.C,RV1*%
X208120000Y-46312500D03*
X203290000Y-43772500D03*
X208120000Y-41232500D03*
%TD*%
D20*
%TO.C,U4*%
X202120000Y-137112500D03*
X202120000Y-136312500D03*
D21*
X203070000Y-137462500D03*
X203070000Y-136962500D03*
X203070000Y-136462500D03*
X203070000Y-135962500D03*
X201170000Y-135962500D03*
X201170000Y-136462500D03*
X201170000Y-136962500D03*
X201170000Y-137462500D03*
%TD*%
D22*
%TO.C,D5*%
X139620000Y-113212500D03*
X139620000Y-112522500D03*
%TD*%
D12*
%TO.C,C3*%
X54120000Y-121937500D03*
X54120000Y-123487500D03*
%TD*%
D23*
%TO.C,SW3*%
X34870000Y-141212500D03*
X34870000Y-138712500D03*
X34870000Y-136212500D03*
%TD*%
D24*
%TO.C,R5*%
X205200000Y-97212500D03*
X205200000Y-95387500D03*
%TD*%
D25*
%TO.C,SW4*%
X148920000Y-143212500D03*
X152320000Y-143212500D03*
%TD*%
D26*
%TO.C,U1*%
X142395000Y-115959800D03*
X142395000Y-117359800D03*
X142395000Y-118759800D03*
X142395000Y-120159800D03*
X143795000Y-115959800D03*
X143795000Y-117359800D03*
X143795000Y-118759800D03*
X143795000Y-120159800D03*
X145195000Y-115959800D03*
X145195000Y-117359800D03*
X145195000Y-118759800D03*
X145195000Y-120159800D03*
X146595000Y-115959800D03*
X146595000Y-117359800D03*
X146595000Y-118759800D03*
X146595000Y-120159800D03*
D27*
X141057500Y-115309800D03*
X141057500Y-115809800D03*
X141057500Y-116309800D03*
X141057500Y-116809800D03*
X141057500Y-117309800D03*
X141057500Y-117809800D03*
X141057500Y-118309800D03*
X141057500Y-118809800D03*
X141057500Y-119309800D03*
X141057500Y-119809800D03*
X141057500Y-120309800D03*
X141057500Y-120809800D03*
D28*
X141745000Y-121497300D03*
X142245000Y-121497300D03*
X142745000Y-121497300D03*
X143245000Y-121497300D03*
X143745000Y-121497300D03*
X144245000Y-121497300D03*
X144745000Y-121497300D03*
X145245000Y-121497300D03*
X145745000Y-121497300D03*
X146245000Y-121497300D03*
X146745000Y-121497300D03*
X147245000Y-121497300D03*
D27*
X147932500Y-120809800D03*
X147932500Y-120309800D03*
X147932500Y-119809800D03*
X147932500Y-119309800D03*
X147932500Y-118809800D03*
X147932500Y-118309800D03*
X147932500Y-117809800D03*
X147932500Y-117309800D03*
X147932500Y-116809800D03*
X147932500Y-116309800D03*
X147932500Y-115809800D03*
X147932500Y-115309800D03*
D28*
X147245000Y-114622300D03*
X146745000Y-114622300D03*
X146245000Y-114622300D03*
X145745000Y-114622300D03*
X145245000Y-114622300D03*
X144745000Y-114622300D03*
X144245000Y-114622300D03*
X143745000Y-114622300D03*
X143245000Y-114622300D03*
X142745000Y-114622300D03*
X142245000Y-114622300D03*
X141745000Y-114622300D03*
%TD*%
D16*
%TO.C,R14*%
X47120000Y-39845200D03*
X45295000Y-39845200D03*
%TD*%
D11*
%TO.C,R2*%
X57766900Y-129529300D03*
X57766900Y-131354300D03*
%TD*%
D15*
%TO.C,C20*%
X137170000Y-120712500D03*
X135620000Y-120712500D03*
%TD*%
D29*
%TO.C,U5*%
X93620000Y-113602500D03*
X93620000Y-112332500D03*
X93620000Y-111062500D03*
X93620000Y-109792500D03*
X93620000Y-108522500D03*
X93620000Y-107252500D03*
X93620000Y-105982500D03*
X93620000Y-104712500D03*
X84069600Y-104712500D03*
X84069600Y-105982500D03*
X84069600Y-107252500D03*
X84069600Y-108522500D03*
X84069600Y-109792500D03*
X84069600Y-111062500D03*
X84069600Y-112332500D03*
X84069600Y-113602500D03*
%TD*%
D30*
%TO.C,D1*%
X61370000Y-123212500D03*
X64870000Y-123212500D03*
%TD*%
D16*
%TO.C,R12*%
X156532500Y-143212500D03*
X154707500Y-143212500D03*
%TD*%
D13*
%TO.C,R25*%
X56207500Y-98212500D03*
X58032500Y-98212500D03*
%TD*%
D11*
%TO.C,R6*%
X183515500Y-79484800D03*
X183515500Y-81309800D03*
%TD*%
D31*
%TO.C,L3*%
X143132500Y-126787500D03*
X143132500Y-125212500D03*
%TD*%
D11*
%TO.C,R7*%
X194160000Y-86887500D03*
X194160000Y-88712500D03*
%TD*%
D13*
%TO.C,R23*%
X69707500Y-98212500D03*
X71532500Y-98212500D03*
%TD*%
D32*
%TO.C,U10*%
X47345000Y-128837500D03*
X47345000Y-127137500D03*
X47345000Y-125437500D03*
D33*
X40620000Y-128212500D03*
X40620000Y-122662500D03*
X35770000Y-128212500D03*
X35770000Y-122662500D03*
D32*
X47345000Y-123737500D03*
X47345000Y-122037500D03*
%TD*%
D16*
%TO.C,R18*%
X47120000Y-49192100D03*
X45295000Y-49192100D03*
%TD*%
D13*
%TO.C,R27*%
X42707500Y-98212500D03*
X44532500Y-98212500D03*
%TD*%
D16*
%TO.C,R24*%
X47120000Y-63212500D03*
X45295000Y-63212500D03*
%TD*%
D11*
%TO.C,R10*%
X72609700Y-126979800D03*
X72609700Y-128804800D03*
%TD*%
D13*
%TO.C,R17*%
X108707500Y-98212500D03*
X110532500Y-98212500D03*
%TD*%
D34*
%TO.C,U13*%
X191935000Y-85920000D03*
X191285000Y-85920000D03*
X190635000Y-85920000D03*
X189985000Y-85920000D03*
X189985000Y-90145000D03*
X190635000Y-90145000D03*
X191285000Y-90145000D03*
X191935000Y-90145000D03*
%TD*%
D35*
%TO.C,BZ1*%
X208120000Y-63812500D03*
X208120000Y-50612500D03*
%TD*%
D24*
%TO.C,R8*%
X75109700Y-128804800D03*
X75109700Y-126979800D03*
%TD*%
D12*
%TO.C,C1*%
X59120000Y-121937500D03*
X59120000Y-123487500D03*
%TD*%
D36*
%TO.C,SW2*%
X147620000Y-107012500D03*
X147620000Y-110412500D03*
%TD*%
D13*
%TO.C,R21*%
X82207500Y-98267500D03*
X84032500Y-98267500D03*
%TD*%
D16*
%TO.C,R28*%
X47120000Y-72559400D03*
X45295000Y-72559400D03*
%TD*%
D11*
%TO.C,R33*%
X144620000Y-108500000D03*
X144620000Y-110325000D03*
%TD*%
D12*
%TO.C,C16*%
X139132500Y-125212500D03*
X139132500Y-126762500D03*
%TD*%
D24*
%TO.C,R32*%
X150620000Y-110325000D03*
X150620000Y-108500000D03*
%TD*%
D37*
%TO.C,U2*%
X186660000Y-76942500D03*
X186660000Y-78212500D03*
X186660000Y-79482500D03*
X195423000Y-79482500D03*
X195423000Y-78212500D03*
X195423000Y-76942500D03*
%TD*%
D38*
%TO.C,C7*%
X73113500Y-130987300D03*
X74663500Y-130987300D03*
%TD*%
D12*
%TO.C,C6*%
X185838500Y-85935400D03*
X185838500Y-87485400D03*
%TD*%
%TO.C,C14*%
X149120000Y-123437500D03*
X149120000Y-124987500D03*
%TD*%
%TO.C,C21*%
X57120000Y-121937500D03*
X57120000Y-123487500D03*
%TD*%
D13*
%TO.C,R4*%
X188073700Y-137265300D03*
X189898700Y-137265300D03*
%TD*%
D39*
%TO.C,Q1*%
X184456200Y-135250600D03*
X182556200Y-135250600D03*
X183506200Y-137125600D03*
%TD*%
D12*
%TO.C,C11*%
X205075300Y-139772100D03*
X205075300Y-141322100D03*
%TD*%
D16*
%TO.C,R26*%
X47120000Y-67886000D03*
X45295000Y-67886000D03*
%TD*%
D40*
%TO.C,U7*%
X66719999Y-129712450D03*
X67670000Y-129712450D03*
X68620001Y-129712450D03*
X68620001Y-126981950D03*
X66719999Y-126981950D03*
%TD*%
D24*
%TO.C,R29*%
X78437800Y-114168700D03*
X78437800Y-112343700D03*
%TD*%
D25*
%TO.C,SW1*%
X136832500Y-126809800D03*
X133432500Y-126809800D03*
%TD*%
D12*
%TO.C,C12*%
X151120000Y-123437500D03*
X151120000Y-124987500D03*
%TD*%
D13*
%TO.C,R19*%
X95207500Y-98212500D03*
X97032500Y-98212500D03*
%TD*%
%TO.C,R15*%
X122207500Y-98212500D03*
X124032500Y-98212500D03*
%TD*%
D16*
%TO.C,R20*%
X47120000Y-53865600D03*
X45295000Y-53865600D03*
%TD*%
D41*
%TO.C,Y1*%
X136220000Y-115812500D03*
X136220000Y-118212500D03*
X138120000Y-118212500D03*
X138120000Y-115812500D03*
%TD*%
D12*
%TO.C,C2*%
X155120000Y-123437500D03*
X155120000Y-124987500D03*
%TD*%
D24*
%TO.C,R30*%
X76055200Y-112904400D03*
X76055200Y-111079400D03*
%TD*%
D12*
%TO.C,C13*%
X153120000Y-123437500D03*
X153120000Y-124987500D03*
%TD*%
M02*
