%TF.GenerationSoftware,KiCad,Pcbnew,8.0.6-8.0.6-0~ubuntu22.04.1*%
%TF.CreationDate,2024-10-30T23:16:09-03:00*%
%TF.ProjectId,Projeto SEMB,50726f6a-6574-46f2-9053-454d422e6b69,rev?*%
%TF.SameCoordinates,Original*%
%TF.FileFunction,Legend,Top*%
%TF.FilePolarity,Positive*%
%FSLAX46Y46*%
G04 Gerber Fmt 4.6, Leading zero omitted, Abs format (unit mm)*
G04 Created by KiCad (PCBNEW 8.0.6-8.0.6-0~ubuntu22.04.1) date 2024-10-30 23:16:09*
%MOMM*%
%LPD*%
G01*
G04 APERTURE LIST*
%ADD10C,0.150000*%
%ADD11C,0.120000*%
%ADD12C,0.100000*%
%ADD13C,0.152400*%
%ADD14C,3.987800*%
G04 APERTURE END LIST*
D10*
X190634819Y-144879166D02*
X190634819Y-145355356D01*
X190634819Y-145355356D02*
X189634819Y-145355356D01*
X189730057Y-144593451D02*
X189682438Y-144545832D01*
X189682438Y-144545832D02*
X189634819Y-144450594D01*
X189634819Y-144450594D02*
X189634819Y-144212499D01*
X189634819Y-144212499D02*
X189682438Y-144117261D01*
X189682438Y-144117261D02*
X189730057Y-144069642D01*
X189730057Y-144069642D02*
X189825295Y-144022023D01*
X189825295Y-144022023D02*
X189920533Y-144022023D01*
X189920533Y-144022023D02*
X190063390Y-144069642D01*
X190063390Y-144069642D02*
X190634819Y-144641070D01*
X190634819Y-144641070D02*
X190634819Y-144022023D01*
X145574819Y-143030357D02*
X145098628Y-143363690D01*
X145574819Y-143601785D02*
X144574819Y-143601785D01*
X144574819Y-143601785D02*
X144574819Y-143220833D01*
X144574819Y-143220833D02*
X144622438Y-143125595D01*
X144622438Y-143125595D02*
X144670057Y-143077976D01*
X144670057Y-143077976D02*
X144765295Y-143030357D01*
X144765295Y-143030357D02*
X144908152Y-143030357D01*
X144908152Y-143030357D02*
X145003390Y-143077976D01*
X145003390Y-143077976D02*
X145051009Y-143125595D01*
X145051009Y-143125595D02*
X145098628Y-143220833D01*
X145098628Y-143220833D02*
X145098628Y-143601785D01*
X145574819Y-142077976D02*
X145574819Y-142649404D01*
X145574819Y-142363690D02*
X144574819Y-142363690D01*
X144574819Y-142363690D02*
X144717676Y-142458928D01*
X144717676Y-142458928D02*
X144812914Y-142554166D01*
X144812914Y-142554166D02*
X144860533Y-142649404D01*
X145574819Y-141125595D02*
X145574819Y-141697023D01*
X145574819Y-141411309D02*
X144574819Y-141411309D01*
X144574819Y-141411309D02*
X144717676Y-141506547D01*
X144717676Y-141506547D02*
X144812914Y-141601785D01*
X144812914Y-141601785D02*
X144860533Y-141697023D01*
X56574819Y-126879166D02*
X56098628Y-127212499D01*
X56574819Y-127450594D02*
X55574819Y-127450594D01*
X55574819Y-127450594D02*
X55574819Y-127069642D01*
X55574819Y-127069642D02*
X55622438Y-126974404D01*
X55622438Y-126974404D02*
X55670057Y-126926785D01*
X55670057Y-126926785D02*
X55765295Y-126879166D01*
X55765295Y-126879166D02*
X55908152Y-126879166D01*
X55908152Y-126879166D02*
X56003390Y-126926785D01*
X56003390Y-126926785D02*
X56051009Y-126974404D01*
X56051009Y-126974404D02*
X56098628Y-127069642D01*
X56098628Y-127069642D02*
X56098628Y-127450594D01*
X56574819Y-125926785D02*
X56574819Y-126498213D01*
X56574819Y-126212499D02*
X55574819Y-126212499D01*
X55574819Y-126212499D02*
X55717676Y-126307737D01*
X55717676Y-126307737D02*
X55812914Y-126402975D01*
X55812914Y-126402975D02*
X55860533Y-126498213D01*
X129670057Y-93862738D02*
X129622438Y-93957976D01*
X129622438Y-93957976D02*
X129527200Y-94053214D01*
X129527200Y-94053214D02*
X129384342Y-94196071D01*
X129384342Y-94196071D02*
X129336723Y-94291309D01*
X129336723Y-94291309D02*
X129336723Y-94386547D01*
X129574819Y-94338928D02*
X129527200Y-94434166D01*
X129527200Y-94434166D02*
X129431961Y-94529404D01*
X129431961Y-94529404D02*
X129241485Y-94577023D01*
X129241485Y-94577023D02*
X128908152Y-94577023D01*
X128908152Y-94577023D02*
X128717676Y-94529404D01*
X128717676Y-94529404D02*
X128622438Y-94434166D01*
X128622438Y-94434166D02*
X128574819Y-94338928D01*
X128574819Y-94338928D02*
X128574819Y-94148452D01*
X128574819Y-94148452D02*
X128622438Y-94053214D01*
X128622438Y-94053214D02*
X128717676Y-93957976D01*
X128717676Y-93957976D02*
X128908152Y-93910357D01*
X128908152Y-93910357D02*
X129241485Y-93910357D01*
X129241485Y-93910357D02*
X129431961Y-93957976D01*
X129431961Y-93957976D02*
X129527200Y-94053214D01*
X129527200Y-94053214D02*
X129574819Y-94148452D01*
X129574819Y-94148452D02*
X129574819Y-94338928D01*
X129574819Y-93434166D02*
X129574819Y-93243690D01*
X129574819Y-93243690D02*
X129527200Y-93148452D01*
X129527200Y-93148452D02*
X129479580Y-93100833D01*
X129479580Y-93100833D02*
X129336723Y-93005595D01*
X129336723Y-93005595D02*
X129146247Y-92957976D01*
X129146247Y-92957976D02*
X128765295Y-92957976D01*
X128765295Y-92957976D02*
X128670057Y-93005595D01*
X128670057Y-93005595D02*
X128622438Y-93053214D01*
X128622438Y-93053214D02*
X128574819Y-93148452D01*
X128574819Y-93148452D02*
X128574819Y-93338928D01*
X128574819Y-93338928D02*
X128622438Y-93434166D01*
X128622438Y-93434166D02*
X128670057Y-93481785D01*
X128670057Y-93481785D02*
X128765295Y-93529404D01*
X128765295Y-93529404D02*
X129003390Y-93529404D01*
X129003390Y-93529404D02*
X129098628Y-93481785D01*
X129098628Y-93481785D02*
X129146247Y-93434166D01*
X129146247Y-93434166D02*
X129193866Y-93338928D01*
X129193866Y-93338928D02*
X129193866Y-93148452D01*
X129193866Y-93148452D02*
X129146247Y-93053214D01*
X129146247Y-93053214D02*
X129098628Y-93005595D01*
X129098628Y-93005595D02*
X129003390Y-92957976D01*
X203434880Y-144414957D02*
X203482500Y-144462576D01*
X203482500Y-144462576D02*
X203530119Y-144605433D01*
X203530119Y-144605433D02*
X203530119Y-144700671D01*
X203530119Y-144700671D02*
X203482500Y-144843528D01*
X203482500Y-144843528D02*
X203387261Y-144938766D01*
X203387261Y-144938766D02*
X203292023Y-144986385D01*
X203292023Y-144986385D02*
X203101547Y-145034004D01*
X203101547Y-145034004D02*
X202958690Y-145034004D01*
X202958690Y-145034004D02*
X202768214Y-144986385D01*
X202768214Y-144986385D02*
X202672976Y-144938766D01*
X202672976Y-144938766D02*
X202577738Y-144843528D01*
X202577738Y-144843528D02*
X202530119Y-144700671D01*
X202530119Y-144700671D02*
X202530119Y-144605433D01*
X202530119Y-144605433D02*
X202577738Y-144462576D01*
X202577738Y-144462576D02*
X202625357Y-144414957D01*
X203530119Y-143462576D02*
X203530119Y-144034004D01*
X203530119Y-143748290D02*
X202530119Y-143748290D01*
X202530119Y-143748290D02*
X202672976Y-143843528D01*
X202672976Y-143843528D02*
X202768214Y-143938766D01*
X202768214Y-143938766D02*
X202815833Y-144034004D01*
X202530119Y-142843528D02*
X202530119Y-142748290D01*
X202530119Y-142748290D02*
X202577738Y-142653052D01*
X202577738Y-142653052D02*
X202625357Y-142605433D01*
X202625357Y-142605433D02*
X202720595Y-142557814D01*
X202720595Y-142557814D02*
X202911071Y-142510195D01*
X202911071Y-142510195D02*
X203149166Y-142510195D01*
X203149166Y-142510195D02*
X203339642Y-142557814D01*
X203339642Y-142557814D02*
X203434880Y-142605433D01*
X203434880Y-142605433D02*
X203482500Y-142653052D01*
X203482500Y-142653052D02*
X203530119Y-142748290D01*
X203530119Y-142748290D02*
X203530119Y-142843528D01*
X203530119Y-142843528D02*
X203482500Y-142938766D01*
X203482500Y-142938766D02*
X203434880Y-142986385D01*
X203434880Y-142986385D02*
X203339642Y-143034004D01*
X203339642Y-143034004D02*
X203149166Y-143081623D01*
X203149166Y-143081623D02*
X202911071Y-143081623D01*
X202911071Y-143081623D02*
X202720595Y-143034004D01*
X202720595Y-143034004D02*
X202625357Y-142986385D01*
X202625357Y-142986385D02*
X202577738Y-142938766D01*
X202577738Y-142938766D02*
X202530119Y-142843528D01*
X197889642Y-65267319D02*
X197556309Y-64791128D01*
X197318214Y-65267319D02*
X197318214Y-64267319D01*
X197318214Y-64267319D02*
X197699166Y-64267319D01*
X197699166Y-64267319D02*
X197794404Y-64314938D01*
X197794404Y-64314938D02*
X197842023Y-64362557D01*
X197842023Y-64362557D02*
X197889642Y-64457795D01*
X197889642Y-64457795D02*
X197889642Y-64600652D01*
X197889642Y-64600652D02*
X197842023Y-64695890D01*
X197842023Y-64695890D02*
X197794404Y-64743509D01*
X197794404Y-64743509D02*
X197699166Y-64791128D01*
X197699166Y-64791128D02*
X197318214Y-64791128D01*
X198222976Y-64267319D02*
X198842023Y-64267319D01*
X198842023Y-64267319D02*
X198508690Y-64648271D01*
X198508690Y-64648271D02*
X198651547Y-64648271D01*
X198651547Y-64648271D02*
X198746785Y-64695890D01*
X198746785Y-64695890D02*
X198794404Y-64743509D01*
X198794404Y-64743509D02*
X198842023Y-64838747D01*
X198842023Y-64838747D02*
X198842023Y-65076842D01*
X198842023Y-65076842D02*
X198794404Y-65172080D01*
X198794404Y-65172080D02*
X198746785Y-65219700D01*
X198746785Y-65219700D02*
X198651547Y-65267319D01*
X198651547Y-65267319D02*
X198365833Y-65267319D01*
X198365833Y-65267319D02*
X198270595Y-65219700D01*
X198270595Y-65219700D02*
X198222976Y-65172080D01*
X199699166Y-64600652D02*
X199699166Y-65267319D01*
X199461071Y-64219700D02*
X199222976Y-64933985D01*
X199222976Y-64933985D02*
X199842023Y-64933985D01*
X63670057Y-93862738D02*
X63622438Y-93957976D01*
X63622438Y-93957976D02*
X63527200Y-94053214D01*
X63527200Y-94053214D02*
X63384342Y-94196071D01*
X63384342Y-94196071D02*
X63336723Y-94291309D01*
X63336723Y-94291309D02*
X63336723Y-94386547D01*
X63574819Y-94338928D02*
X63527200Y-94434166D01*
X63527200Y-94434166D02*
X63431961Y-94529404D01*
X63431961Y-94529404D02*
X63241485Y-94577023D01*
X63241485Y-94577023D02*
X62908152Y-94577023D01*
X62908152Y-94577023D02*
X62717676Y-94529404D01*
X62717676Y-94529404D02*
X62622438Y-94434166D01*
X62622438Y-94434166D02*
X62574819Y-94338928D01*
X62574819Y-94338928D02*
X62574819Y-94148452D01*
X62574819Y-94148452D02*
X62622438Y-94053214D01*
X62622438Y-94053214D02*
X62717676Y-93957976D01*
X62717676Y-93957976D02*
X62908152Y-93910357D01*
X62908152Y-93910357D02*
X63241485Y-93910357D01*
X63241485Y-93910357D02*
X63431961Y-93957976D01*
X63431961Y-93957976D02*
X63527200Y-94053214D01*
X63527200Y-94053214D02*
X63574819Y-94148452D01*
X63574819Y-94148452D02*
X63574819Y-94338928D01*
X62574819Y-93577023D02*
X62574819Y-92910357D01*
X62574819Y-92910357D02*
X63574819Y-93338928D01*
X60489546Y-130244746D02*
X60537166Y-130292365D01*
X60537166Y-130292365D02*
X60584785Y-130435222D01*
X60584785Y-130435222D02*
X60584785Y-130530460D01*
X60584785Y-130530460D02*
X60537166Y-130673317D01*
X60537166Y-130673317D02*
X60441927Y-130768555D01*
X60441927Y-130768555D02*
X60346689Y-130816174D01*
X60346689Y-130816174D02*
X60156213Y-130863793D01*
X60156213Y-130863793D02*
X60013356Y-130863793D01*
X60013356Y-130863793D02*
X59822880Y-130816174D01*
X59822880Y-130816174D02*
X59727642Y-130768555D01*
X59727642Y-130768555D02*
X59632404Y-130673317D01*
X59632404Y-130673317D02*
X59584785Y-130530460D01*
X59584785Y-130530460D02*
X59584785Y-130435222D01*
X59584785Y-130435222D02*
X59632404Y-130292365D01*
X59632404Y-130292365D02*
X59680023Y-130244746D01*
X59584785Y-129339984D02*
X59584785Y-129816174D01*
X59584785Y-129816174D02*
X60060975Y-129863793D01*
X60060975Y-129863793D02*
X60013356Y-129816174D01*
X60013356Y-129816174D02*
X59965737Y-129720936D01*
X59965737Y-129720936D02*
X59965737Y-129482841D01*
X59965737Y-129482841D02*
X60013356Y-129387603D01*
X60013356Y-129387603D02*
X60060975Y-129339984D01*
X60060975Y-129339984D02*
X60156213Y-129292365D01*
X60156213Y-129292365D02*
X60394308Y-129292365D01*
X60394308Y-129292365D02*
X60489546Y-129339984D01*
X60489546Y-129339984D02*
X60537166Y-129387603D01*
X60537166Y-129387603D02*
X60584785Y-129482841D01*
X60584785Y-129482841D02*
X60584785Y-129720936D01*
X60584785Y-129720936D02*
X60537166Y-129816174D01*
X60537166Y-129816174D02*
X60489546Y-129863793D01*
X136017142Y-97167319D02*
X135683809Y-96691128D01*
X135445714Y-97167319D02*
X135445714Y-96167319D01*
X135445714Y-96167319D02*
X135826666Y-96167319D01*
X135826666Y-96167319D02*
X135921904Y-96214938D01*
X135921904Y-96214938D02*
X135969523Y-96262557D01*
X135969523Y-96262557D02*
X136017142Y-96357795D01*
X136017142Y-96357795D02*
X136017142Y-96500652D01*
X136017142Y-96500652D02*
X135969523Y-96595890D01*
X135969523Y-96595890D02*
X135921904Y-96643509D01*
X135921904Y-96643509D02*
X135826666Y-96691128D01*
X135826666Y-96691128D02*
X135445714Y-96691128D01*
X136969523Y-97167319D02*
X136398095Y-97167319D01*
X136683809Y-97167319D02*
X136683809Y-96167319D01*
X136683809Y-96167319D02*
X136588571Y-96310176D01*
X136588571Y-96310176D02*
X136493333Y-96405414D01*
X136493333Y-96405414D02*
X136398095Y-96453033D01*
X137302857Y-96167319D02*
X137921904Y-96167319D01*
X137921904Y-96167319D02*
X137588571Y-96548271D01*
X137588571Y-96548271D02*
X137731428Y-96548271D01*
X137731428Y-96548271D02*
X137826666Y-96595890D01*
X137826666Y-96595890D02*
X137874285Y-96643509D01*
X137874285Y-96643509D02*
X137921904Y-96738747D01*
X137921904Y-96738747D02*
X137921904Y-96976842D01*
X137921904Y-96976842D02*
X137874285Y-97072080D01*
X137874285Y-97072080D02*
X137826666Y-97119700D01*
X137826666Y-97119700D02*
X137731428Y-97167319D01*
X137731428Y-97167319D02*
X137445714Y-97167319D01*
X137445714Y-97167319D02*
X137350476Y-97119700D01*
X137350476Y-97119700D02*
X137302857Y-97072080D01*
X117130057Y-93362738D02*
X117082438Y-93457976D01*
X117082438Y-93457976D02*
X116987200Y-93553214D01*
X116987200Y-93553214D02*
X116844342Y-93696071D01*
X116844342Y-93696071D02*
X116796723Y-93791309D01*
X116796723Y-93791309D02*
X116796723Y-93886547D01*
X117034819Y-93838928D02*
X116987200Y-93934166D01*
X116987200Y-93934166D02*
X116891961Y-94029404D01*
X116891961Y-94029404D02*
X116701485Y-94077023D01*
X116701485Y-94077023D02*
X116368152Y-94077023D01*
X116368152Y-94077023D02*
X116177676Y-94029404D01*
X116177676Y-94029404D02*
X116082438Y-93934166D01*
X116082438Y-93934166D02*
X116034819Y-93838928D01*
X116034819Y-93838928D02*
X116034819Y-93648452D01*
X116034819Y-93648452D02*
X116082438Y-93553214D01*
X116082438Y-93553214D02*
X116177676Y-93457976D01*
X116177676Y-93457976D02*
X116368152Y-93410357D01*
X116368152Y-93410357D02*
X116701485Y-93410357D01*
X116701485Y-93410357D02*
X116891961Y-93457976D01*
X116891961Y-93457976D02*
X116987200Y-93553214D01*
X116987200Y-93553214D02*
X117034819Y-93648452D01*
X117034819Y-93648452D02*
X117034819Y-93838928D01*
X116034819Y-93077023D02*
X116034819Y-92457976D01*
X116034819Y-92457976D02*
X116415771Y-92791309D01*
X116415771Y-92791309D02*
X116415771Y-92648452D01*
X116415771Y-92648452D02*
X116463390Y-92553214D01*
X116463390Y-92553214D02*
X116511009Y-92505595D01*
X116511009Y-92505595D02*
X116606247Y-92457976D01*
X116606247Y-92457976D02*
X116844342Y-92457976D01*
X116844342Y-92457976D02*
X116939580Y-92505595D01*
X116939580Y-92505595D02*
X116987200Y-92553214D01*
X116987200Y-92553214D02*
X117034819Y-92648452D01*
X117034819Y-92648452D02*
X117034819Y-92934166D01*
X117034819Y-92934166D02*
X116987200Y-93029404D01*
X116987200Y-93029404D02*
X116939580Y-93077023D01*
X89750057Y-93561838D02*
X89702438Y-93657076D01*
X89702438Y-93657076D02*
X89607200Y-93752314D01*
X89607200Y-93752314D02*
X89464342Y-93895171D01*
X89464342Y-93895171D02*
X89416723Y-93990409D01*
X89416723Y-93990409D02*
X89416723Y-94085647D01*
X89654819Y-94038028D02*
X89607200Y-94133266D01*
X89607200Y-94133266D02*
X89511961Y-94228504D01*
X89511961Y-94228504D02*
X89321485Y-94276123D01*
X89321485Y-94276123D02*
X88988152Y-94276123D01*
X88988152Y-94276123D02*
X88797676Y-94228504D01*
X88797676Y-94228504D02*
X88702438Y-94133266D01*
X88702438Y-94133266D02*
X88654819Y-94038028D01*
X88654819Y-94038028D02*
X88654819Y-93847552D01*
X88654819Y-93847552D02*
X88702438Y-93752314D01*
X88702438Y-93752314D02*
X88797676Y-93657076D01*
X88797676Y-93657076D02*
X88988152Y-93609457D01*
X88988152Y-93609457D02*
X89321485Y-93609457D01*
X89321485Y-93609457D02*
X89511961Y-93657076D01*
X89511961Y-93657076D02*
X89607200Y-93752314D01*
X89607200Y-93752314D02*
X89654819Y-93847552D01*
X89654819Y-93847552D02*
X89654819Y-94038028D01*
X88654819Y-92704695D02*
X88654819Y-93180885D01*
X88654819Y-93180885D02*
X89131009Y-93228504D01*
X89131009Y-93228504D02*
X89083390Y-93180885D01*
X89083390Y-93180885D02*
X89035771Y-93085647D01*
X89035771Y-93085647D02*
X89035771Y-92847552D01*
X89035771Y-92847552D02*
X89083390Y-92752314D01*
X89083390Y-92752314D02*
X89131009Y-92704695D01*
X89131009Y-92704695D02*
X89226247Y-92657076D01*
X89226247Y-92657076D02*
X89464342Y-92657076D01*
X89464342Y-92657076D02*
X89559580Y-92704695D01*
X89559580Y-92704695D02*
X89607200Y-92752314D01*
X89607200Y-92752314D02*
X89654819Y-92847552D01*
X89654819Y-92847552D02*
X89654819Y-93085647D01*
X89654819Y-93085647D02*
X89607200Y-93180885D01*
X89607200Y-93180885D02*
X89559580Y-93228504D01*
X128977142Y-118572080D02*
X128929523Y-118619700D01*
X128929523Y-118619700D02*
X128786666Y-118667319D01*
X128786666Y-118667319D02*
X128691428Y-118667319D01*
X128691428Y-118667319D02*
X128548571Y-118619700D01*
X128548571Y-118619700D02*
X128453333Y-118524461D01*
X128453333Y-118524461D02*
X128405714Y-118429223D01*
X128405714Y-118429223D02*
X128358095Y-118238747D01*
X128358095Y-118238747D02*
X128358095Y-118095890D01*
X128358095Y-118095890D02*
X128405714Y-117905414D01*
X128405714Y-117905414D02*
X128453333Y-117810176D01*
X128453333Y-117810176D02*
X128548571Y-117714938D01*
X128548571Y-117714938D02*
X128691428Y-117667319D01*
X128691428Y-117667319D02*
X128786666Y-117667319D01*
X128786666Y-117667319D02*
X128929523Y-117714938D01*
X128929523Y-117714938D02*
X128977142Y-117762557D01*
X129929523Y-118667319D02*
X129358095Y-118667319D01*
X129643809Y-118667319D02*
X129643809Y-117667319D01*
X129643809Y-117667319D02*
X129548571Y-117810176D01*
X129548571Y-117810176D02*
X129453333Y-117905414D01*
X129453333Y-117905414D02*
X129358095Y-117953033D01*
X130405714Y-118667319D02*
X130596190Y-118667319D01*
X130596190Y-118667319D02*
X130691428Y-118619700D01*
X130691428Y-118619700D02*
X130739047Y-118572080D01*
X130739047Y-118572080D02*
X130834285Y-118429223D01*
X130834285Y-118429223D02*
X130881904Y-118238747D01*
X130881904Y-118238747D02*
X130881904Y-117857795D01*
X130881904Y-117857795D02*
X130834285Y-117762557D01*
X130834285Y-117762557D02*
X130786666Y-117714938D01*
X130786666Y-117714938D02*
X130691428Y-117667319D01*
X130691428Y-117667319D02*
X130500952Y-117667319D01*
X130500952Y-117667319D02*
X130405714Y-117714938D01*
X130405714Y-117714938D02*
X130358095Y-117762557D01*
X130358095Y-117762557D02*
X130310476Y-117857795D01*
X130310476Y-117857795D02*
X130310476Y-118095890D01*
X130310476Y-118095890D02*
X130358095Y-118191128D01*
X130358095Y-118191128D02*
X130405714Y-118238747D01*
X130405714Y-118238747D02*
X130500952Y-118286366D01*
X130500952Y-118286366D02*
X130691428Y-118286366D01*
X130691428Y-118286366D02*
X130786666Y-118238747D01*
X130786666Y-118238747D02*
X130834285Y-118191128D01*
X130834285Y-118191128D02*
X130881904Y-118095890D01*
X191907066Y-135720116D02*
X191573733Y-135243925D01*
X191335638Y-135720116D02*
X191335638Y-134720116D01*
X191335638Y-134720116D02*
X191716590Y-134720116D01*
X191716590Y-134720116D02*
X191811828Y-134767735D01*
X191811828Y-134767735D02*
X191859447Y-134815354D01*
X191859447Y-134815354D02*
X191907066Y-134910592D01*
X191907066Y-134910592D02*
X191907066Y-135053449D01*
X191907066Y-135053449D02*
X191859447Y-135148687D01*
X191859447Y-135148687D02*
X191811828Y-135196306D01*
X191811828Y-135196306D02*
X191716590Y-135243925D01*
X191716590Y-135243925D02*
X191335638Y-135243925D01*
X192240400Y-134720116D02*
X192859447Y-134720116D01*
X192859447Y-134720116D02*
X192526114Y-135101068D01*
X192526114Y-135101068D02*
X192668971Y-135101068D01*
X192668971Y-135101068D02*
X192764209Y-135148687D01*
X192764209Y-135148687D02*
X192811828Y-135196306D01*
X192811828Y-135196306D02*
X192859447Y-135291544D01*
X192859447Y-135291544D02*
X192859447Y-135529639D01*
X192859447Y-135529639D02*
X192811828Y-135624877D01*
X192811828Y-135624877D02*
X192764209Y-135672497D01*
X192764209Y-135672497D02*
X192668971Y-135720116D01*
X192668971Y-135720116D02*
X192383257Y-135720116D01*
X192383257Y-135720116D02*
X192288019Y-135672497D01*
X192288019Y-135672497D02*
X192240400Y-135624877D01*
X45564642Y-46403419D02*
X45231309Y-45927228D01*
X44993214Y-46403419D02*
X44993214Y-45403419D01*
X44993214Y-45403419D02*
X45374166Y-45403419D01*
X45374166Y-45403419D02*
X45469404Y-45451038D01*
X45469404Y-45451038D02*
X45517023Y-45498657D01*
X45517023Y-45498657D02*
X45564642Y-45593895D01*
X45564642Y-45593895D02*
X45564642Y-45736752D01*
X45564642Y-45736752D02*
X45517023Y-45831990D01*
X45517023Y-45831990D02*
X45469404Y-45879609D01*
X45469404Y-45879609D02*
X45374166Y-45927228D01*
X45374166Y-45927228D02*
X44993214Y-45927228D01*
X46517023Y-46403419D02*
X45945595Y-46403419D01*
X46231309Y-46403419D02*
X46231309Y-45403419D01*
X46231309Y-45403419D02*
X46136071Y-45546276D01*
X46136071Y-45546276D02*
X46040833Y-45641514D01*
X46040833Y-45641514D02*
X45945595Y-45689133D01*
X47374166Y-45403419D02*
X47183690Y-45403419D01*
X47183690Y-45403419D02*
X47088452Y-45451038D01*
X47088452Y-45451038D02*
X47040833Y-45498657D01*
X47040833Y-45498657D02*
X46945595Y-45641514D01*
X46945595Y-45641514D02*
X46897976Y-45831990D01*
X46897976Y-45831990D02*
X46897976Y-46212942D01*
X46897976Y-46212942D02*
X46945595Y-46308180D01*
X46945595Y-46308180D02*
X46993214Y-46355800D01*
X46993214Y-46355800D02*
X47088452Y-46403419D01*
X47088452Y-46403419D02*
X47278928Y-46403419D01*
X47278928Y-46403419D02*
X47374166Y-46355800D01*
X47374166Y-46355800D02*
X47421785Y-46308180D01*
X47421785Y-46308180D02*
X47469404Y-46212942D01*
X47469404Y-46212942D02*
X47469404Y-45974847D01*
X47469404Y-45974847D02*
X47421785Y-45879609D01*
X47421785Y-45879609D02*
X47374166Y-45831990D01*
X47374166Y-45831990D02*
X47278928Y-45784371D01*
X47278928Y-45784371D02*
X47088452Y-45784371D01*
X47088452Y-45784371D02*
X46993214Y-45831990D01*
X46993214Y-45831990D02*
X46945595Y-45879609D01*
X46945595Y-45879609D02*
X46897976Y-45974847D01*
X78479580Y-131258266D02*
X78527200Y-131305885D01*
X78527200Y-131305885D02*
X78574819Y-131448742D01*
X78574819Y-131448742D02*
X78574819Y-131543980D01*
X78574819Y-131543980D02*
X78527200Y-131686837D01*
X78527200Y-131686837D02*
X78431961Y-131782075D01*
X78431961Y-131782075D02*
X78336723Y-131829694D01*
X78336723Y-131829694D02*
X78146247Y-131877313D01*
X78146247Y-131877313D02*
X78003390Y-131877313D01*
X78003390Y-131877313D02*
X77812914Y-131829694D01*
X77812914Y-131829694D02*
X77717676Y-131782075D01*
X77717676Y-131782075D02*
X77622438Y-131686837D01*
X77622438Y-131686837D02*
X77574819Y-131543980D01*
X77574819Y-131543980D02*
X77574819Y-131448742D01*
X77574819Y-131448742D02*
X77622438Y-131305885D01*
X77622438Y-131305885D02*
X77670057Y-131258266D01*
X78003390Y-130686837D02*
X77955771Y-130782075D01*
X77955771Y-130782075D02*
X77908152Y-130829694D01*
X77908152Y-130829694D02*
X77812914Y-130877313D01*
X77812914Y-130877313D02*
X77765295Y-130877313D01*
X77765295Y-130877313D02*
X77670057Y-130829694D01*
X77670057Y-130829694D02*
X77622438Y-130782075D01*
X77622438Y-130782075D02*
X77574819Y-130686837D01*
X77574819Y-130686837D02*
X77574819Y-130496361D01*
X77574819Y-130496361D02*
X77622438Y-130401123D01*
X77622438Y-130401123D02*
X77670057Y-130353504D01*
X77670057Y-130353504D02*
X77765295Y-130305885D01*
X77765295Y-130305885D02*
X77812914Y-130305885D01*
X77812914Y-130305885D02*
X77908152Y-130353504D01*
X77908152Y-130353504D02*
X77955771Y-130401123D01*
X77955771Y-130401123D02*
X78003390Y-130496361D01*
X78003390Y-130496361D02*
X78003390Y-130686837D01*
X78003390Y-130686837D02*
X78051009Y-130782075D01*
X78051009Y-130782075D02*
X78098628Y-130829694D01*
X78098628Y-130829694D02*
X78193866Y-130877313D01*
X78193866Y-130877313D02*
X78384342Y-130877313D01*
X78384342Y-130877313D02*
X78479580Y-130829694D01*
X78479580Y-130829694D02*
X78527200Y-130782075D01*
X78527200Y-130782075D02*
X78574819Y-130686837D01*
X78574819Y-130686837D02*
X78574819Y-130496361D01*
X78574819Y-130496361D02*
X78527200Y-130401123D01*
X78527200Y-130401123D02*
X78479580Y-130353504D01*
X78479580Y-130353504D02*
X78384342Y-130305885D01*
X78384342Y-130305885D02*
X78193866Y-130305885D01*
X78193866Y-130305885D02*
X78098628Y-130353504D01*
X78098628Y-130353504D02*
X78051009Y-130401123D01*
X78051009Y-130401123D02*
X78003390Y-130496361D01*
X45564642Y-60423819D02*
X45231309Y-59947628D01*
X44993214Y-60423819D02*
X44993214Y-59423819D01*
X44993214Y-59423819D02*
X45374166Y-59423819D01*
X45374166Y-59423819D02*
X45469404Y-59471438D01*
X45469404Y-59471438D02*
X45517023Y-59519057D01*
X45517023Y-59519057D02*
X45564642Y-59614295D01*
X45564642Y-59614295D02*
X45564642Y-59757152D01*
X45564642Y-59757152D02*
X45517023Y-59852390D01*
X45517023Y-59852390D02*
X45469404Y-59900009D01*
X45469404Y-59900009D02*
X45374166Y-59947628D01*
X45374166Y-59947628D02*
X44993214Y-59947628D01*
X45945595Y-59519057D02*
X45993214Y-59471438D01*
X45993214Y-59471438D02*
X46088452Y-59423819D01*
X46088452Y-59423819D02*
X46326547Y-59423819D01*
X46326547Y-59423819D02*
X46421785Y-59471438D01*
X46421785Y-59471438D02*
X46469404Y-59519057D01*
X46469404Y-59519057D02*
X46517023Y-59614295D01*
X46517023Y-59614295D02*
X46517023Y-59709533D01*
X46517023Y-59709533D02*
X46469404Y-59852390D01*
X46469404Y-59852390D02*
X45897976Y-60423819D01*
X45897976Y-60423819D02*
X46517023Y-60423819D01*
X46897976Y-59519057D02*
X46945595Y-59471438D01*
X46945595Y-59471438D02*
X47040833Y-59423819D01*
X47040833Y-59423819D02*
X47278928Y-59423819D01*
X47278928Y-59423819D02*
X47374166Y-59471438D01*
X47374166Y-59471438D02*
X47421785Y-59519057D01*
X47421785Y-59519057D02*
X47469404Y-59614295D01*
X47469404Y-59614295D02*
X47469404Y-59709533D01*
X47469404Y-59709533D02*
X47421785Y-59852390D01*
X47421785Y-59852390D02*
X46850357Y-60423819D01*
X46850357Y-60423819D02*
X47469404Y-60423819D01*
X207810476Y-140227319D02*
X207810476Y-139227319D01*
X207810476Y-139227319D02*
X208143809Y-139941604D01*
X208143809Y-139941604D02*
X208477142Y-139227319D01*
X208477142Y-139227319D02*
X208477142Y-140227319D01*
X209477142Y-140227319D02*
X208905714Y-140227319D01*
X209191428Y-140227319D02*
X209191428Y-139227319D01*
X209191428Y-139227319D02*
X209096190Y-139370176D01*
X209096190Y-139370176D02*
X209000952Y-139465414D01*
X209000952Y-139465414D02*
X208905714Y-139513033D01*
X199514880Y-141232766D02*
X199562500Y-141280385D01*
X199562500Y-141280385D02*
X199610119Y-141423242D01*
X199610119Y-141423242D02*
X199610119Y-141518480D01*
X199610119Y-141518480D02*
X199562500Y-141661337D01*
X199562500Y-141661337D02*
X199467261Y-141756575D01*
X199467261Y-141756575D02*
X199372023Y-141804194D01*
X199372023Y-141804194D02*
X199181547Y-141851813D01*
X199181547Y-141851813D02*
X199038690Y-141851813D01*
X199038690Y-141851813D02*
X198848214Y-141804194D01*
X198848214Y-141804194D02*
X198752976Y-141756575D01*
X198752976Y-141756575D02*
X198657738Y-141661337D01*
X198657738Y-141661337D02*
X198610119Y-141518480D01*
X198610119Y-141518480D02*
X198610119Y-141423242D01*
X198610119Y-141423242D02*
X198657738Y-141280385D01*
X198657738Y-141280385D02*
X198705357Y-141232766D01*
X199610119Y-140756575D02*
X199610119Y-140566099D01*
X199610119Y-140566099D02*
X199562500Y-140470861D01*
X199562500Y-140470861D02*
X199514880Y-140423242D01*
X199514880Y-140423242D02*
X199372023Y-140328004D01*
X199372023Y-140328004D02*
X199181547Y-140280385D01*
X199181547Y-140280385D02*
X198800595Y-140280385D01*
X198800595Y-140280385D02*
X198705357Y-140328004D01*
X198705357Y-140328004D02*
X198657738Y-140375623D01*
X198657738Y-140375623D02*
X198610119Y-140470861D01*
X198610119Y-140470861D02*
X198610119Y-140661337D01*
X198610119Y-140661337D02*
X198657738Y-140756575D01*
X198657738Y-140756575D02*
X198705357Y-140804194D01*
X198705357Y-140804194D02*
X198800595Y-140851813D01*
X198800595Y-140851813D02*
X199038690Y-140851813D01*
X199038690Y-140851813D02*
X199133928Y-140804194D01*
X199133928Y-140804194D02*
X199181547Y-140756575D01*
X199181547Y-140756575D02*
X199229166Y-140661337D01*
X199229166Y-140661337D02*
X199229166Y-140470861D01*
X199229166Y-140470861D02*
X199181547Y-140375623D01*
X199181547Y-140375623D02*
X199133928Y-140328004D01*
X199133928Y-140328004D02*
X199038690Y-140280385D01*
X138631823Y-107302202D02*
X138155632Y-107635535D01*
X138631823Y-107873630D02*
X137631823Y-107873630D01*
X137631823Y-107873630D02*
X137631823Y-107492678D01*
X137631823Y-107492678D02*
X137679442Y-107397440D01*
X137679442Y-107397440D02*
X137727061Y-107349821D01*
X137727061Y-107349821D02*
X137822299Y-107302202D01*
X137822299Y-107302202D02*
X137965156Y-107302202D01*
X137965156Y-107302202D02*
X138060394Y-107349821D01*
X138060394Y-107349821D02*
X138108013Y-107397440D01*
X138108013Y-107397440D02*
X138155632Y-107492678D01*
X138155632Y-107492678D02*
X138155632Y-107873630D01*
X137631823Y-106968868D02*
X137631823Y-106349821D01*
X137631823Y-106349821D02*
X138012775Y-106683154D01*
X138012775Y-106683154D02*
X138012775Y-106540297D01*
X138012775Y-106540297D02*
X138060394Y-106445059D01*
X138060394Y-106445059D02*
X138108013Y-106397440D01*
X138108013Y-106397440D02*
X138203251Y-106349821D01*
X138203251Y-106349821D02*
X138441346Y-106349821D01*
X138441346Y-106349821D02*
X138536584Y-106397440D01*
X138536584Y-106397440D02*
X138584204Y-106445059D01*
X138584204Y-106445059D02*
X138631823Y-106540297D01*
X138631823Y-106540297D02*
X138631823Y-106826011D01*
X138631823Y-106826011D02*
X138584204Y-106921249D01*
X138584204Y-106921249D02*
X138536584Y-106968868D01*
X138631823Y-105397440D02*
X138631823Y-105968868D01*
X138631823Y-105683154D02*
X137631823Y-105683154D01*
X137631823Y-105683154D02*
X137774680Y-105778392D01*
X137774680Y-105778392D02*
X137869918Y-105873630D01*
X137869918Y-105873630D02*
X137917537Y-105968868D01*
X141492080Y-129805357D02*
X141539700Y-129852976D01*
X141539700Y-129852976D02*
X141587319Y-129995833D01*
X141587319Y-129995833D02*
X141587319Y-130091071D01*
X141587319Y-130091071D02*
X141539700Y-130233928D01*
X141539700Y-130233928D02*
X141444461Y-130329166D01*
X141444461Y-130329166D02*
X141349223Y-130376785D01*
X141349223Y-130376785D02*
X141158747Y-130424404D01*
X141158747Y-130424404D02*
X141015890Y-130424404D01*
X141015890Y-130424404D02*
X140825414Y-130376785D01*
X140825414Y-130376785D02*
X140730176Y-130329166D01*
X140730176Y-130329166D02*
X140634938Y-130233928D01*
X140634938Y-130233928D02*
X140587319Y-130091071D01*
X140587319Y-130091071D02*
X140587319Y-129995833D01*
X140587319Y-129995833D02*
X140634938Y-129852976D01*
X140634938Y-129852976D02*
X140682557Y-129805357D01*
X141587319Y-128852976D02*
X141587319Y-129424404D01*
X141587319Y-129138690D02*
X140587319Y-129138690D01*
X140587319Y-129138690D02*
X140730176Y-129233928D01*
X140730176Y-129233928D02*
X140825414Y-129329166D01*
X140825414Y-129329166D02*
X140873033Y-129424404D01*
X140587319Y-128519642D02*
X140587319Y-127852976D01*
X140587319Y-127852976D02*
X141587319Y-128281547D01*
X52574819Y-126879166D02*
X52574819Y-127355356D01*
X52574819Y-127355356D02*
X51574819Y-127355356D01*
X52574819Y-126022023D02*
X52574819Y-126593451D01*
X52574819Y-126307737D02*
X51574819Y-126307737D01*
X51574819Y-126307737D02*
X51717676Y-126402975D01*
X51717676Y-126402975D02*
X51812914Y-126498213D01*
X51812914Y-126498213D02*
X51860533Y-126593451D01*
X62671246Y-130194746D02*
X62718866Y-130242365D01*
X62718866Y-130242365D02*
X62766485Y-130385222D01*
X62766485Y-130385222D02*
X62766485Y-130480460D01*
X62766485Y-130480460D02*
X62718866Y-130623317D01*
X62718866Y-130623317D02*
X62623627Y-130718555D01*
X62623627Y-130718555D02*
X62528389Y-130766174D01*
X62528389Y-130766174D02*
X62337913Y-130813793D01*
X62337913Y-130813793D02*
X62195056Y-130813793D01*
X62195056Y-130813793D02*
X62004580Y-130766174D01*
X62004580Y-130766174D02*
X61909342Y-130718555D01*
X61909342Y-130718555D02*
X61814104Y-130623317D01*
X61814104Y-130623317D02*
X61766485Y-130480460D01*
X61766485Y-130480460D02*
X61766485Y-130385222D01*
X61766485Y-130385222D02*
X61814104Y-130242365D01*
X61814104Y-130242365D02*
X61861723Y-130194746D01*
X62099818Y-129337603D02*
X62766485Y-129337603D01*
X61718866Y-129575698D02*
X62433151Y-129813793D01*
X62433151Y-129813793D02*
X62433151Y-129194746D01*
X128977142Y-116069380D02*
X128929523Y-116117000D01*
X128929523Y-116117000D02*
X128786666Y-116164619D01*
X128786666Y-116164619D02*
X128691428Y-116164619D01*
X128691428Y-116164619D02*
X128548571Y-116117000D01*
X128548571Y-116117000D02*
X128453333Y-116021761D01*
X128453333Y-116021761D02*
X128405714Y-115926523D01*
X128405714Y-115926523D02*
X128358095Y-115736047D01*
X128358095Y-115736047D02*
X128358095Y-115593190D01*
X128358095Y-115593190D02*
X128405714Y-115402714D01*
X128405714Y-115402714D02*
X128453333Y-115307476D01*
X128453333Y-115307476D02*
X128548571Y-115212238D01*
X128548571Y-115212238D02*
X128691428Y-115164619D01*
X128691428Y-115164619D02*
X128786666Y-115164619D01*
X128786666Y-115164619D02*
X128929523Y-115212238D01*
X128929523Y-115212238D02*
X128977142Y-115259857D01*
X129929523Y-116164619D02*
X129358095Y-116164619D01*
X129643809Y-116164619D02*
X129643809Y-115164619D01*
X129643809Y-115164619D02*
X129548571Y-115307476D01*
X129548571Y-115307476D02*
X129453333Y-115402714D01*
X129453333Y-115402714D02*
X129358095Y-115450333D01*
X130500952Y-115593190D02*
X130405714Y-115545571D01*
X130405714Y-115545571D02*
X130358095Y-115497952D01*
X130358095Y-115497952D02*
X130310476Y-115402714D01*
X130310476Y-115402714D02*
X130310476Y-115355095D01*
X130310476Y-115355095D02*
X130358095Y-115259857D01*
X130358095Y-115259857D02*
X130405714Y-115212238D01*
X130405714Y-115212238D02*
X130500952Y-115164619D01*
X130500952Y-115164619D02*
X130691428Y-115164619D01*
X130691428Y-115164619D02*
X130786666Y-115212238D01*
X130786666Y-115212238D02*
X130834285Y-115259857D01*
X130834285Y-115259857D02*
X130881904Y-115355095D01*
X130881904Y-115355095D02*
X130881904Y-115402714D01*
X130881904Y-115402714D02*
X130834285Y-115497952D01*
X130834285Y-115497952D02*
X130786666Y-115545571D01*
X130786666Y-115545571D02*
X130691428Y-115593190D01*
X130691428Y-115593190D02*
X130500952Y-115593190D01*
X130500952Y-115593190D02*
X130405714Y-115640809D01*
X130405714Y-115640809D02*
X130358095Y-115688428D01*
X130358095Y-115688428D02*
X130310476Y-115783666D01*
X130310476Y-115783666D02*
X130310476Y-115974142D01*
X130310476Y-115974142D02*
X130358095Y-116069380D01*
X130358095Y-116069380D02*
X130405714Y-116117000D01*
X130405714Y-116117000D02*
X130500952Y-116164619D01*
X130500952Y-116164619D02*
X130691428Y-116164619D01*
X130691428Y-116164619D02*
X130786666Y-116117000D01*
X130786666Y-116117000D02*
X130834285Y-116069380D01*
X130834285Y-116069380D02*
X130881904Y-115974142D01*
X130881904Y-115974142D02*
X130881904Y-115783666D01*
X130881904Y-115783666D02*
X130834285Y-115688428D01*
X130834285Y-115688428D02*
X130786666Y-115640809D01*
X130786666Y-115640809D02*
X130691428Y-115593190D01*
X139547205Y-112983019D02*
X139547205Y-111983019D01*
X139547205Y-111983019D02*
X139785300Y-111983019D01*
X139785300Y-111983019D02*
X139928157Y-112030638D01*
X139928157Y-112030638D02*
X140023395Y-112125876D01*
X140023395Y-112125876D02*
X140071014Y-112221114D01*
X140071014Y-112221114D02*
X140118633Y-112411590D01*
X140118633Y-112411590D02*
X140118633Y-112554447D01*
X140118633Y-112554447D02*
X140071014Y-112744923D01*
X140071014Y-112744923D02*
X140023395Y-112840161D01*
X140023395Y-112840161D02*
X139928157Y-112935400D01*
X139928157Y-112935400D02*
X139785300Y-112983019D01*
X139785300Y-112983019D02*
X139547205Y-112983019D01*
X140975776Y-112316352D02*
X140975776Y-112983019D01*
X140737681Y-111935400D02*
X140499586Y-112649685D01*
X140499586Y-112649685D02*
X141118633Y-112649685D01*
X211219819Y-44367738D02*
X210743628Y-44701071D01*
X211219819Y-44939166D02*
X210219819Y-44939166D01*
X210219819Y-44939166D02*
X210219819Y-44558214D01*
X210219819Y-44558214D02*
X210267438Y-44462976D01*
X210267438Y-44462976D02*
X210315057Y-44415357D01*
X210315057Y-44415357D02*
X210410295Y-44367738D01*
X210410295Y-44367738D02*
X210553152Y-44367738D01*
X210553152Y-44367738D02*
X210648390Y-44415357D01*
X210648390Y-44415357D02*
X210696009Y-44462976D01*
X210696009Y-44462976D02*
X210743628Y-44558214D01*
X210743628Y-44558214D02*
X210743628Y-44939166D01*
X210219819Y-44082023D02*
X211219819Y-43748690D01*
X211219819Y-43748690D02*
X210219819Y-43415357D01*
X211219819Y-42558214D02*
X211219819Y-43129642D01*
X211219819Y-42843928D02*
X210219819Y-42843928D01*
X210219819Y-42843928D02*
X210362676Y-42939166D01*
X210362676Y-42939166D02*
X210457914Y-43034404D01*
X210457914Y-43034404D02*
X210505533Y-43129642D01*
X200978095Y-138067319D02*
X200978095Y-138876842D01*
X200978095Y-138876842D02*
X201025714Y-138972080D01*
X201025714Y-138972080D02*
X201073333Y-139019700D01*
X201073333Y-139019700D02*
X201168571Y-139067319D01*
X201168571Y-139067319D02*
X201359047Y-139067319D01*
X201359047Y-139067319D02*
X201454285Y-139019700D01*
X201454285Y-139019700D02*
X201501904Y-138972080D01*
X201501904Y-138972080D02*
X201549523Y-138876842D01*
X201549523Y-138876842D02*
X201549523Y-138067319D01*
X202454285Y-138400652D02*
X202454285Y-139067319D01*
X202216190Y-138019700D02*
X201978095Y-138733985D01*
X201978095Y-138733985D02*
X202597142Y-138733985D01*
X43014819Y-142545833D02*
X43729104Y-142545833D01*
X43729104Y-142545833D02*
X43871961Y-142593452D01*
X43871961Y-142593452D02*
X43967200Y-142688690D01*
X43967200Y-142688690D02*
X44014819Y-142831547D01*
X44014819Y-142831547D02*
X44014819Y-142926785D01*
X44014819Y-141545833D02*
X44014819Y-142117261D01*
X44014819Y-141831547D02*
X43014819Y-141831547D01*
X43014819Y-141831547D02*
X43157676Y-141926785D01*
X43157676Y-141926785D02*
X43252914Y-142022023D01*
X43252914Y-142022023D02*
X43300533Y-142117261D01*
X139924819Y-115760594D02*
X138924819Y-115760594D01*
X138924819Y-115760594D02*
X138924819Y-115522499D01*
X138924819Y-115522499D02*
X138972438Y-115379642D01*
X138972438Y-115379642D02*
X139067676Y-115284404D01*
X139067676Y-115284404D02*
X139162914Y-115236785D01*
X139162914Y-115236785D02*
X139353390Y-115189166D01*
X139353390Y-115189166D02*
X139496247Y-115189166D01*
X139496247Y-115189166D02*
X139686723Y-115236785D01*
X139686723Y-115236785D02*
X139781961Y-115284404D01*
X139781961Y-115284404D02*
X139877200Y-115379642D01*
X139877200Y-115379642D02*
X139924819Y-115522499D01*
X139924819Y-115522499D02*
X139924819Y-115760594D01*
X138924819Y-114284404D02*
X138924819Y-114760594D01*
X138924819Y-114760594D02*
X139401009Y-114808213D01*
X139401009Y-114808213D02*
X139353390Y-114760594D01*
X139353390Y-114760594D02*
X139305771Y-114665356D01*
X139305771Y-114665356D02*
X139305771Y-114427261D01*
X139305771Y-114427261D02*
X139353390Y-114332023D01*
X139353390Y-114332023D02*
X139401009Y-114284404D01*
X139401009Y-114284404D02*
X139496247Y-114236785D01*
X139496247Y-114236785D02*
X139734342Y-114236785D01*
X139734342Y-114236785D02*
X139829580Y-114284404D01*
X139829580Y-114284404D02*
X139877200Y-114332023D01*
X139877200Y-114332023D02*
X139924819Y-114427261D01*
X139924819Y-114427261D02*
X139924819Y-114665356D01*
X139924819Y-114665356D02*
X139877200Y-114760594D01*
X139877200Y-114760594D02*
X139829580Y-114808213D01*
X54904580Y-120154166D02*
X54952200Y-120201785D01*
X54952200Y-120201785D02*
X54999819Y-120344642D01*
X54999819Y-120344642D02*
X54999819Y-120439880D01*
X54999819Y-120439880D02*
X54952200Y-120582737D01*
X54952200Y-120582737D02*
X54856961Y-120677975D01*
X54856961Y-120677975D02*
X54761723Y-120725594D01*
X54761723Y-120725594D02*
X54571247Y-120773213D01*
X54571247Y-120773213D02*
X54428390Y-120773213D01*
X54428390Y-120773213D02*
X54237914Y-120725594D01*
X54237914Y-120725594D02*
X54142676Y-120677975D01*
X54142676Y-120677975D02*
X54047438Y-120582737D01*
X54047438Y-120582737D02*
X53999819Y-120439880D01*
X53999819Y-120439880D02*
X53999819Y-120344642D01*
X53999819Y-120344642D02*
X54047438Y-120201785D01*
X54047438Y-120201785D02*
X54095057Y-120154166D01*
X53999819Y-119820832D02*
X53999819Y-119201785D01*
X53999819Y-119201785D02*
X54380771Y-119535118D01*
X54380771Y-119535118D02*
X54380771Y-119392261D01*
X54380771Y-119392261D02*
X54428390Y-119297023D01*
X54428390Y-119297023D02*
X54476009Y-119249404D01*
X54476009Y-119249404D02*
X54571247Y-119201785D01*
X54571247Y-119201785D02*
X54809342Y-119201785D01*
X54809342Y-119201785D02*
X54904580Y-119249404D01*
X54904580Y-119249404D02*
X54952200Y-119297023D01*
X54952200Y-119297023D02*
X54999819Y-119392261D01*
X54999819Y-119392261D02*
X54999819Y-119677975D01*
X54999819Y-119677975D02*
X54952200Y-119773213D01*
X54952200Y-119773213D02*
X54904580Y-119820832D01*
X33227200Y-140045832D02*
X33274819Y-139902975D01*
X33274819Y-139902975D02*
X33274819Y-139664880D01*
X33274819Y-139664880D02*
X33227200Y-139569642D01*
X33227200Y-139569642D02*
X33179580Y-139522023D01*
X33179580Y-139522023D02*
X33084342Y-139474404D01*
X33084342Y-139474404D02*
X32989104Y-139474404D01*
X32989104Y-139474404D02*
X32893866Y-139522023D01*
X32893866Y-139522023D02*
X32846247Y-139569642D01*
X32846247Y-139569642D02*
X32798628Y-139664880D01*
X32798628Y-139664880D02*
X32751009Y-139855356D01*
X32751009Y-139855356D02*
X32703390Y-139950594D01*
X32703390Y-139950594D02*
X32655771Y-139998213D01*
X32655771Y-139998213D02*
X32560533Y-140045832D01*
X32560533Y-140045832D02*
X32465295Y-140045832D01*
X32465295Y-140045832D02*
X32370057Y-139998213D01*
X32370057Y-139998213D02*
X32322438Y-139950594D01*
X32322438Y-139950594D02*
X32274819Y-139855356D01*
X32274819Y-139855356D02*
X32274819Y-139617261D01*
X32274819Y-139617261D02*
X32322438Y-139474404D01*
X32274819Y-139141070D02*
X33274819Y-138902975D01*
X33274819Y-138902975D02*
X32560533Y-138712499D01*
X32560533Y-138712499D02*
X33274819Y-138522023D01*
X33274819Y-138522023D02*
X32274819Y-138283928D01*
X32274819Y-137998213D02*
X32274819Y-137379166D01*
X32274819Y-137379166D02*
X32655771Y-137712499D01*
X32655771Y-137712499D02*
X32655771Y-137569642D01*
X32655771Y-137569642D02*
X32703390Y-137474404D01*
X32703390Y-137474404D02*
X32751009Y-137426785D01*
X32751009Y-137426785D02*
X32846247Y-137379166D01*
X32846247Y-137379166D02*
X33084342Y-137379166D01*
X33084342Y-137379166D02*
X33179580Y-137426785D01*
X33179580Y-137426785D02*
X33227200Y-137474404D01*
X33227200Y-137474404D02*
X33274819Y-137569642D01*
X33274819Y-137569642D02*
X33274819Y-137855356D01*
X33274819Y-137855356D02*
X33227200Y-137950594D01*
X33227200Y-137950594D02*
X33179580Y-137998213D01*
X207654819Y-96466666D02*
X207178628Y-96799999D01*
X207654819Y-97038094D02*
X206654819Y-97038094D01*
X206654819Y-97038094D02*
X206654819Y-96657142D01*
X206654819Y-96657142D02*
X206702438Y-96561904D01*
X206702438Y-96561904D02*
X206750057Y-96514285D01*
X206750057Y-96514285D02*
X206845295Y-96466666D01*
X206845295Y-96466666D02*
X206988152Y-96466666D01*
X206988152Y-96466666D02*
X207083390Y-96514285D01*
X207083390Y-96514285D02*
X207131009Y-96561904D01*
X207131009Y-96561904D02*
X207178628Y-96657142D01*
X207178628Y-96657142D02*
X207178628Y-97038094D01*
X206654819Y-95561904D02*
X206654819Y-96038094D01*
X206654819Y-96038094D02*
X207131009Y-96085713D01*
X207131009Y-96085713D02*
X207083390Y-96038094D01*
X207083390Y-96038094D02*
X207035771Y-95942856D01*
X207035771Y-95942856D02*
X207035771Y-95704761D01*
X207035771Y-95704761D02*
X207083390Y-95609523D01*
X207083390Y-95609523D02*
X207131009Y-95561904D01*
X207131009Y-95561904D02*
X207226247Y-95514285D01*
X207226247Y-95514285D02*
X207464342Y-95514285D01*
X207464342Y-95514285D02*
X207559580Y-95561904D01*
X207559580Y-95561904D02*
X207607200Y-95609523D01*
X207607200Y-95609523D02*
X207654819Y-95704761D01*
X207654819Y-95704761D02*
X207654819Y-95942856D01*
X207654819Y-95942856D02*
X207607200Y-96038094D01*
X207607200Y-96038094D02*
X207559580Y-96085713D01*
X149286667Y-141119700D02*
X149429524Y-141167319D01*
X149429524Y-141167319D02*
X149667619Y-141167319D01*
X149667619Y-141167319D02*
X149762857Y-141119700D01*
X149762857Y-141119700D02*
X149810476Y-141072080D01*
X149810476Y-141072080D02*
X149858095Y-140976842D01*
X149858095Y-140976842D02*
X149858095Y-140881604D01*
X149858095Y-140881604D02*
X149810476Y-140786366D01*
X149810476Y-140786366D02*
X149762857Y-140738747D01*
X149762857Y-140738747D02*
X149667619Y-140691128D01*
X149667619Y-140691128D02*
X149477143Y-140643509D01*
X149477143Y-140643509D02*
X149381905Y-140595890D01*
X149381905Y-140595890D02*
X149334286Y-140548271D01*
X149334286Y-140548271D02*
X149286667Y-140453033D01*
X149286667Y-140453033D02*
X149286667Y-140357795D01*
X149286667Y-140357795D02*
X149334286Y-140262557D01*
X149334286Y-140262557D02*
X149381905Y-140214938D01*
X149381905Y-140214938D02*
X149477143Y-140167319D01*
X149477143Y-140167319D02*
X149715238Y-140167319D01*
X149715238Y-140167319D02*
X149858095Y-140214938D01*
X150191429Y-140167319D02*
X150429524Y-141167319D01*
X150429524Y-141167319D02*
X150620000Y-140453033D01*
X150620000Y-140453033D02*
X150810476Y-141167319D01*
X150810476Y-141167319D02*
X151048572Y-140167319D01*
X151858095Y-140500652D02*
X151858095Y-141167319D01*
X151620000Y-140119700D02*
X151381905Y-140833985D01*
X151381905Y-140833985D02*
X152000952Y-140833985D01*
X148633095Y-114164619D02*
X148633095Y-114974142D01*
X148633095Y-114974142D02*
X148680714Y-115069380D01*
X148680714Y-115069380D02*
X148728333Y-115117000D01*
X148728333Y-115117000D02*
X148823571Y-115164619D01*
X148823571Y-115164619D02*
X149014047Y-115164619D01*
X149014047Y-115164619D02*
X149109285Y-115117000D01*
X149109285Y-115117000D02*
X149156904Y-115069380D01*
X149156904Y-115069380D02*
X149204523Y-114974142D01*
X149204523Y-114974142D02*
X149204523Y-114164619D01*
X150204523Y-115164619D02*
X149633095Y-115164619D01*
X149918809Y-115164619D02*
X149918809Y-114164619D01*
X149918809Y-114164619D02*
X149823571Y-114307476D01*
X149823571Y-114307476D02*
X149728333Y-114402714D01*
X149728333Y-114402714D02*
X149633095Y-114450333D01*
X45564642Y-41730019D02*
X45231309Y-41253828D01*
X44993214Y-41730019D02*
X44993214Y-40730019D01*
X44993214Y-40730019D02*
X45374166Y-40730019D01*
X45374166Y-40730019D02*
X45469404Y-40777638D01*
X45469404Y-40777638D02*
X45517023Y-40825257D01*
X45517023Y-40825257D02*
X45564642Y-40920495D01*
X45564642Y-40920495D02*
X45564642Y-41063352D01*
X45564642Y-41063352D02*
X45517023Y-41158590D01*
X45517023Y-41158590D02*
X45469404Y-41206209D01*
X45469404Y-41206209D02*
X45374166Y-41253828D01*
X45374166Y-41253828D02*
X44993214Y-41253828D01*
X46517023Y-41730019D02*
X45945595Y-41730019D01*
X46231309Y-41730019D02*
X46231309Y-40730019D01*
X46231309Y-40730019D02*
X46136071Y-40872876D01*
X46136071Y-40872876D02*
X46040833Y-40968114D01*
X46040833Y-40968114D02*
X45945595Y-41015733D01*
X47374166Y-41063352D02*
X47374166Y-41730019D01*
X47136071Y-40682400D02*
X46897976Y-41396685D01*
X46897976Y-41396685D02*
X47517023Y-41396685D01*
X56721719Y-130608466D02*
X56245528Y-130941799D01*
X56721719Y-131179894D02*
X55721719Y-131179894D01*
X55721719Y-131179894D02*
X55721719Y-130798942D01*
X55721719Y-130798942D02*
X55769338Y-130703704D01*
X55769338Y-130703704D02*
X55816957Y-130656085D01*
X55816957Y-130656085D02*
X55912195Y-130608466D01*
X55912195Y-130608466D02*
X56055052Y-130608466D01*
X56055052Y-130608466D02*
X56150290Y-130656085D01*
X56150290Y-130656085D02*
X56197909Y-130703704D01*
X56197909Y-130703704D02*
X56245528Y-130798942D01*
X56245528Y-130798942D02*
X56245528Y-131179894D01*
X55816957Y-130227513D02*
X55769338Y-130179894D01*
X55769338Y-130179894D02*
X55721719Y-130084656D01*
X55721719Y-130084656D02*
X55721719Y-129846561D01*
X55721719Y-129846561D02*
X55769338Y-129751323D01*
X55769338Y-129751323D02*
X55816957Y-129703704D01*
X55816957Y-129703704D02*
X55912195Y-129656085D01*
X55912195Y-129656085D02*
X56007433Y-129656085D01*
X56007433Y-129656085D02*
X56150290Y-129703704D01*
X56150290Y-129703704D02*
X56721719Y-130275132D01*
X56721719Y-130275132D02*
X56721719Y-129656085D01*
X139252142Y-121072080D02*
X139204523Y-121119700D01*
X139204523Y-121119700D02*
X139061666Y-121167319D01*
X139061666Y-121167319D02*
X138966428Y-121167319D01*
X138966428Y-121167319D02*
X138823571Y-121119700D01*
X138823571Y-121119700D02*
X138728333Y-121024461D01*
X138728333Y-121024461D02*
X138680714Y-120929223D01*
X138680714Y-120929223D02*
X138633095Y-120738747D01*
X138633095Y-120738747D02*
X138633095Y-120595890D01*
X138633095Y-120595890D02*
X138680714Y-120405414D01*
X138680714Y-120405414D02*
X138728333Y-120310176D01*
X138728333Y-120310176D02*
X138823571Y-120214938D01*
X138823571Y-120214938D02*
X138966428Y-120167319D01*
X138966428Y-120167319D02*
X139061666Y-120167319D01*
X139061666Y-120167319D02*
X139204523Y-120214938D01*
X139204523Y-120214938D02*
X139252142Y-120262557D01*
X139633095Y-120262557D02*
X139680714Y-120214938D01*
X139680714Y-120214938D02*
X139775952Y-120167319D01*
X139775952Y-120167319D02*
X140014047Y-120167319D01*
X140014047Y-120167319D02*
X140109285Y-120214938D01*
X140109285Y-120214938D02*
X140156904Y-120262557D01*
X140156904Y-120262557D02*
X140204523Y-120357795D01*
X140204523Y-120357795D02*
X140204523Y-120453033D01*
X140204523Y-120453033D02*
X140156904Y-120595890D01*
X140156904Y-120595890D02*
X139585476Y-121167319D01*
X139585476Y-121167319D02*
X140204523Y-121167319D01*
X140823571Y-120167319D02*
X140918809Y-120167319D01*
X140918809Y-120167319D02*
X141014047Y-120214938D01*
X141014047Y-120214938D02*
X141061666Y-120262557D01*
X141061666Y-120262557D02*
X141109285Y-120357795D01*
X141109285Y-120357795D02*
X141156904Y-120548271D01*
X141156904Y-120548271D02*
X141156904Y-120786366D01*
X141156904Y-120786366D02*
X141109285Y-120976842D01*
X141109285Y-120976842D02*
X141061666Y-121072080D01*
X141061666Y-121072080D02*
X141014047Y-121119700D01*
X141014047Y-121119700D02*
X140918809Y-121167319D01*
X140918809Y-121167319D02*
X140823571Y-121167319D01*
X140823571Y-121167319D02*
X140728333Y-121119700D01*
X140728333Y-121119700D02*
X140680714Y-121072080D01*
X140680714Y-121072080D02*
X140633095Y-120976842D01*
X140633095Y-120976842D02*
X140585476Y-120786366D01*
X140585476Y-120786366D02*
X140585476Y-120548271D01*
X140585476Y-120548271D02*
X140633095Y-120357795D01*
X140633095Y-120357795D02*
X140680714Y-120262557D01*
X140680714Y-120262557D02*
X140728333Y-120214938D01*
X140728333Y-120214938D02*
X140823571Y-120167319D01*
X85839485Y-116302376D02*
X85839485Y-117631403D01*
X85839485Y-117631403D02*
X85917663Y-117787759D01*
X85917663Y-117787759D02*
X85995841Y-117865938D01*
X85995841Y-117865938D02*
X86152197Y-117944116D01*
X86152197Y-117944116D02*
X86464910Y-117944116D01*
X86464910Y-117944116D02*
X86621266Y-117865938D01*
X86621266Y-117865938D02*
X86699444Y-117787759D01*
X86699444Y-117787759D02*
X86777622Y-117631403D01*
X86777622Y-117631403D02*
X86777622Y-116302376D01*
X88341184Y-116302376D02*
X87559403Y-116302376D01*
X87559403Y-116302376D02*
X87481225Y-117084157D01*
X87481225Y-117084157D02*
X87559403Y-117005978D01*
X87559403Y-117005978D02*
X87715759Y-116927800D01*
X87715759Y-116927800D02*
X88106650Y-116927800D01*
X88106650Y-116927800D02*
X88263006Y-117005978D01*
X88263006Y-117005978D02*
X88341184Y-117084157D01*
X88341184Y-117084157D02*
X88419362Y-117240513D01*
X88419362Y-117240513D02*
X88419362Y-117631403D01*
X88419362Y-117631403D02*
X88341184Y-117787759D01*
X88341184Y-117787759D02*
X88263006Y-117865938D01*
X88263006Y-117865938D02*
X88106650Y-117944116D01*
X88106650Y-117944116D02*
X87715759Y-117944116D01*
X87715759Y-117944116D02*
X87559403Y-117865938D01*
X87559403Y-117865938D02*
X87481225Y-117787759D01*
X62381905Y-121667319D02*
X62381905Y-120667319D01*
X62381905Y-120667319D02*
X62620000Y-120667319D01*
X62620000Y-120667319D02*
X62762857Y-120714938D01*
X62762857Y-120714938D02*
X62858095Y-120810176D01*
X62858095Y-120810176D02*
X62905714Y-120905414D01*
X62905714Y-120905414D02*
X62953333Y-121095890D01*
X62953333Y-121095890D02*
X62953333Y-121238747D01*
X62953333Y-121238747D02*
X62905714Y-121429223D01*
X62905714Y-121429223D02*
X62858095Y-121524461D01*
X62858095Y-121524461D02*
X62762857Y-121619700D01*
X62762857Y-121619700D02*
X62620000Y-121667319D01*
X62620000Y-121667319D02*
X62381905Y-121667319D01*
X63905714Y-121667319D02*
X63334286Y-121667319D01*
X63620000Y-121667319D02*
X63620000Y-120667319D01*
X63620000Y-120667319D02*
X63524762Y-120810176D01*
X63524762Y-120810176D02*
X63429524Y-120905414D01*
X63429524Y-120905414D02*
X63334286Y-120953033D01*
X154977142Y-142167319D02*
X154643809Y-141691128D01*
X154405714Y-142167319D02*
X154405714Y-141167319D01*
X154405714Y-141167319D02*
X154786666Y-141167319D01*
X154786666Y-141167319D02*
X154881904Y-141214938D01*
X154881904Y-141214938D02*
X154929523Y-141262557D01*
X154929523Y-141262557D02*
X154977142Y-141357795D01*
X154977142Y-141357795D02*
X154977142Y-141500652D01*
X154977142Y-141500652D02*
X154929523Y-141595890D01*
X154929523Y-141595890D02*
X154881904Y-141643509D01*
X154881904Y-141643509D02*
X154786666Y-141691128D01*
X154786666Y-141691128D02*
X154405714Y-141691128D01*
X155929523Y-142167319D02*
X155358095Y-142167319D01*
X155643809Y-142167319D02*
X155643809Y-141167319D01*
X155643809Y-141167319D02*
X155548571Y-141310176D01*
X155548571Y-141310176D02*
X155453333Y-141405414D01*
X155453333Y-141405414D02*
X155358095Y-141453033D01*
X156310476Y-141262557D02*
X156358095Y-141214938D01*
X156358095Y-141214938D02*
X156453333Y-141167319D01*
X156453333Y-141167319D02*
X156691428Y-141167319D01*
X156691428Y-141167319D02*
X156786666Y-141214938D01*
X156786666Y-141214938D02*
X156834285Y-141262557D01*
X156834285Y-141262557D02*
X156881904Y-141357795D01*
X156881904Y-141357795D02*
X156881904Y-141453033D01*
X156881904Y-141453033D02*
X156834285Y-141595890D01*
X156834285Y-141595890D02*
X156262857Y-142167319D01*
X156262857Y-142167319D02*
X156881904Y-142167319D01*
X56477142Y-97237319D02*
X56143809Y-96761128D01*
X55905714Y-97237319D02*
X55905714Y-96237319D01*
X55905714Y-96237319D02*
X56286666Y-96237319D01*
X56286666Y-96237319D02*
X56381904Y-96284938D01*
X56381904Y-96284938D02*
X56429523Y-96332557D01*
X56429523Y-96332557D02*
X56477142Y-96427795D01*
X56477142Y-96427795D02*
X56477142Y-96570652D01*
X56477142Y-96570652D02*
X56429523Y-96665890D01*
X56429523Y-96665890D02*
X56381904Y-96713509D01*
X56381904Y-96713509D02*
X56286666Y-96761128D01*
X56286666Y-96761128D02*
X55905714Y-96761128D01*
X56858095Y-96332557D02*
X56905714Y-96284938D01*
X56905714Y-96284938D02*
X57000952Y-96237319D01*
X57000952Y-96237319D02*
X57239047Y-96237319D01*
X57239047Y-96237319D02*
X57334285Y-96284938D01*
X57334285Y-96284938D02*
X57381904Y-96332557D01*
X57381904Y-96332557D02*
X57429523Y-96427795D01*
X57429523Y-96427795D02*
X57429523Y-96523033D01*
X57429523Y-96523033D02*
X57381904Y-96665890D01*
X57381904Y-96665890D02*
X56810476Y-97237319D01*
X56810476Y-97237319D02*
X57429523Y-97237319D01*
X58334285Y-96237319D02*
X57858095Y-96237319D01*
X57858095Y-96237319D02*
X57810476Y-96713509D01*
X57810476Y-96713509D02*
X57858095Y-96665890D01*
X57858095Y-96665890D02*
X57953333Y-96618271D01*
X57953333Y-96618271D02*
X58191428Y-96618271D01*
X58191428Y-96618271D02*
X58286666Y-96665890D01*
X58286666Y-96665890D02*
X58334285Y-96713509D01*
X58334285Y-96713509D02*
X58381904Y-96808747D01*
X58381904Y-96808747D02*
X58381904Y-97046842D01*
X58381904Y-97046842D02*
X58334285Y-97142080D01*
X58334285Y-97142080D02*
X58286666Y-97189700D01*
X58286666Y-97189700D02*
X58191428Y-97237319D01*
X58191428Y-97237319D02*
X57953333Y-97237319D01*
X57953333Y-97237319D02*
X57858095Y-97189700D01*
X57858095Y-97189700D02*
X57810476Y-97142080D01*
X182114774Y-80379215D02*
X181638583Y-80712548D01*
X182114774Y-80950643D02*
X181114774Y-80950643D01*
X181114774Y-80950643D02*
X181114774Y-80569691D01*
X181114774Y-80569691D02*
X181162393Y-80474453D01*
X181162393Y-80474453D02*
X181210012Y-80426834D01*
X181210012Y-80426834D02*
X181305250Y-80379215D01*
X181305250Y-80379215D02*
X181448107Y-80379215D01*
X181448107Y-80379215D02*
X181543345Y-80426834D01*
X181543345Y-80426834D02*
X181590964Y-80474453D01*
X181590964Y-80474453D02*
X181638583Y-80569691D01*
X181638583Y-80569691D02*
X181638583Y-80950643D01*
X181114774Y-79522072D02*
X181114774Y-79712548D01*
X181114774Y-79712548D02*
X181162393Y-79807786D01*
X181162393Y-79807786D02*
X181210012Y-79855405D01*
X181210012Y-79855405D02*
X181352869Y-79950643D01*
X181352869Y-79950643D02*
X181543345Y-79998262D01*
X181543345Y-79998262D02*
X181924297Y-79998262D01*
X181924297Y-79998262D02*
X182019535Y-79950643D01*
X182019535Y-79950643D02*
X182067155Y-79903024D01*
X182067155Y-79903024D02*
X182114774Y-79807786D01*
X182114774Y-79807786D02*
X182114774Y-79617310D01*
X182114774Y-79617310D02*
X182067155Y-79522072D01*
X182067155Y-79522072D02*
X182019535Y-79474453D01*
X182019535Y-79474453D02*
X181924297Y-79426834D01*
X181924297Y-79426834D02*
X181686202Y-79426834D01*
X181686202Y-79426834D02*
X181590964Y-79474453D01*
X181590964Y-79474453D02*
X181543345Y-79522072D01*
X181543345Y-79522072D02*
X181495726Y-79617310D01*
X181495726Y-79617310D02*
X181495726Y-79807786D01*
X181495726Y-79807786D02*
X181543345Y-79903024D01*
X181543345Y-79903024D02*
X181590964Y-79950643D01*
X181590964Y-79950643D02*
X181686202Y-79998262D01*
X143559150Y-128623837D02*
X143559150Y-129100027D01*
X143559150Y-129100027D02*
X142559150Y-129100027D01*
X142559150Y-128385741D02*
X142559150Y-127766694D01*
X142559150Y-127766694D02*
X142940102Y-128100027D01*
X142940102Y-128100027D02*
X142940102Y-127957170D01*
X142940102Y-127957170D02*
X142987721Y-127861932D01*
X142987721Y-127861932D02*
X143035340Y-127814313D01*
X143035340Y-127814313D02*
X143130578Y-127766694D01*
X143130578Y-127766694D02*
X143368673Y-127766694D01*
X143368673Y-127766694D02*
X143463911Y-127814313D01*
X143463911Y-127814313D02*
X143511531Y-127861932D01*
X143511531Y-127861932D02*
X143559150Y-127957170D01*
X143559150Y-127957170D02*
X143559150Y-128242884D01*
X143559150Y-128242884D02*
X143511531Y-128338122D01*
X143511531Y-128338122D02*
X143463911Y-128385741D01*
X194614819Y-91054166D02*
X194138628Y-91387499D01*
X194614819Y-91625594D02*
X193614819Y-91625594D01*
X193614819Y-91625594D02*
X193614819Y-91244642D01*
X193614819Y-91244642D02*
X193662438Y-91149404D01*
X193662438Y-91149404D02*
X193710057Y-91101785D01*
X193710057Y-91101785D02*
X193805295Y-91054166D01*
X193805295Y-91054166D02*
X193948152Y-91054166D01*
X193948152Y-91054166D02*
X194043390Y-91101785D01*
X194043390Y-91101785D02*
X194091009Y-91149404D01*
X194091009Y-91149404D02*
X194138628Y-91244642D01*
X194138628Y-91244642D02*
X194138628Y-91625594D01*
X193614819Y-90720832D02*
X193614819Y-90054166D01*
X193614819Y-90054166D02*
X194614819Y-90482737D01*
X143630057Y-93362738D02*
X143582438Y-93457976D01*
X143582438Y-93457976D02*
X143487200Y-93553214D01*
X143487200Y-93553214D02*
X143344342Y-93696071D01*
X143344342Y-93696071D02*
X143296723Y-93791309D01*
X143296723Y-93791309D02*
X143296723Y-93886547D01*
X143534819Y-93838928D02*
X143487200Y-93934166D01*
X143487200Y-93934166D02*
X143391961Y-94029404D01*
X143391961Y-94029404D02*
X143201485Y-94077023D01*
X143201485Y-94077023D02*
X142868152Y-94077023D01*
X142868152Y-94077023D02*
X142677676Y-94029404D01*
X142677676Y-94029404D02*
X142582438Y-93934166D01*
X142582438Y-93934166D02*
X142534819Y-93838928D01*
X142534819Y-93838928D02*
X142534819Y-93648452D01*
X142534819Y-93648452D02*
X142582438Y-93553214D01*
X142582438Y-93553214D02*
X142677676Y-93457976D01*
X142677676Y-93457976D02*
X142868152Y-93410357D01*
X142868152Y-93410357D02*
X143201485Y-93410357D01*
X143201485Y-93410357D02*
X143391961Y-93457976D01*
X143391961Y-93457976D02*
X143487200Y-93553214D01*
X143487200Y-93553214D02*
X143534819Y-93648452D01*
X143534819Y-93648452D02*
X143534819Y-93838928D01*
X142630057Y-93029404D02*
X142582438Y-92981785D01*
X142582438Y-92981785D02*
X142534819Y-92886547D01*
X142534819Y-92886547D02*
X142534819Y-92648452D01*
X142534819Y-92648452D02*
X142582438Y-92553214D01*
X142582438Y-92553214D02*
X142630057Y-92505595D01*
X142630057Y-92505595D02*
X142725295Y-92457976D01*
X142725295Y-92457976D02*
X142820533Y-92457976D01*
X142820533Y-92457976D02*
X142963390Y-92505595D01*
X142963390Y-92505595D02*
X143534819Y-93077023D01*
X143534819Y-93077023D02*
X143534819Y-92457976D01*
X69977142Y-97237319D02*
X69643809Y-96761128D01*
X69405714Y-97237319D02*
X69405714Y-96237319D01*
X69405714Y-96237319D02*
X69786666Y-96237319D01*
X69786666Y-96237319D02*
X69881904Y-96284938D01*
X69881904Y-96284938D02*
X69929523Y-96332557D01*
X69929523Y-96332557D02*
X69977142Y-96427795D01*
X69977142Y-96427795D02*
X69977142Y-96570652D01*
X69977142Y-96570652D02*
X69929523Y-96665890D01*
X69929523Y-96665890D02*
X69881904Y-96713509D01*
X69881904Y-96713509D02*
X69786666Y-96761128D01*
X69786666Y-96761128D02*
X69405714Y-96761128D01*
X70358095Y-96332557D02*
X70405714Y-96284938D01*
X70405714Y-96284938D02*
X70500952Y-96237319D01*
X70500952Y-96237319D02*
X70739047Y-96237319D01*
X70739047Y-96237319D02*
X70834285Y-96284938D01*
X70834285Y-96284938D02*
X70881904Y-96332557D01*
X70881904Y-96332557D02*
X70929523Y-96427795D01*
X70929523Y-96427795D02*
X70929523Y-96523033D01*
X70929523Y-96523033D02*
X70881904Y-96665890D01*
X70881904Y-96665890D02*
X70310476Y-97237319D01*
X70310476Y-97237319D02*
X70929523Y-97237319D01*
X71262857Y-96237319D02*
X71881904Y-96237319D01*
X71881904Y-96237319D02*
X71548571Y-96618271D01*
X71548571Y-96618271D02*
X71691428Y-96618271D01*
X71691428Y-96618271D02*
X71786666Y-96665890D01*
X71786666Y-96665890D02*
X71834285Y-96713509D01*
X71834285Y-96713509D02*
X71881904Y-96808747D01*
X71881904Y-96808747D02*
X71881904Y-97046842D01*
X71881904Y-97046842D02*
X71834285Y-97142080D01*
X71834285Y-97142080D02*
X71786666Y-97189700D01*
X71786666Y-97189700D02*
X71691428Y-97237319D01*
X71691428Y-97237319D02*
X71405714Y-97237319D01*
X71405714Y-97237319D02*
X71310476Y-97189700D01*
X71310476Y-97189700D02*
X71262857Y-97142080D01*
X38456905Y-131542319D02*
X38456905Y-132351842D01*
X38456905Y-132351842D02*
X38504524Y-132447080D01*
X38504524Y-132447080D02*
X38552143Y-132494700D01*
X38552143Y-132494700D02*
X38647381Y-132542319D01*
X38647381Y-132542319D02*
X38837857Y-132542319D01*
X38837857Y-132542319D02*
X38933095Y-132494700D01*
X38933095Y-132494700D02*
X38980714Y-132447080D01*
X38980714Y-132447080D02*
X39028333Y-132351842D01*
X39028333Y-132351842D02*
X39028333Y-131542319D01*
X40028333Y-132542319D02*
X39456905Y-132542319D01*
X39742619Y-132542319D02*
X39742619Y-131542319D01*
X39742619Y-131542319D02*
X39647381Y-131685176D01*
X39647381Y-131685176D02*
X39552143Y-131780414D01*
X39552143Y-131780414D02*
X39456905Y-131828033D01*
X40647381Y-131542319D02*
X40742619Y-131542319D01*
X40742619Y-131542319D02*
X40837857Y-131589938D01*
X40837857Y-131589938D02*
X40885476Y-131637557D01*
X40885476Y-131637557D02*
X40933095Y-131732795D01*
X40933095Y-131732795D02*
X40980714Y-131923271D01*
X40980714Y-131923271D02*
X40980714Y-132161366D01*
X40980714Y-132161366D02*
X40933095Y-132351842D01*
X40933095Y-132351842D02*
X40885476Y-132447080D01*
X40885476Y-132447080D02*
X40837857Y-132494700D01*
X40837857Y-132494700D02*
X40742619Y-132542319D01*
X40742619Y-132542319D02*
X40647381Y-132542319D01*
X40647381Y-132542319D02*
X40552143Y-132494700D01*
X40552143Y-132494700D02*
X40504524Y-132447080D01*
X40504524Y-132447080D02*
X40456905Y-132351842D01*
X40456905Y-132351842D02*
X40409286Y-132161366D01*
X40409286Y-132161366D02*
X40409286Y-131923271D01*
X40409286Y-131923271D02*
X40456905Y-131732795D01*
X40456905Y-131732795D02*
X40504524Y-131637557D01*
X40504524Y-131637557D02*
X40552143Y-131589938D01*
X40552143Y-131589938D02*
X40647381Y-131542319D01*
X45564642Y-51076919D02*
X45231309Y-50600728D01*
X44993214Y-51076919D02*
X44993214Y-50076919D01*
X44993214Y-50076919D02*
X45374166Y-50076919D01*
X45374166Y-50076919D02*
X45469404Y-50124538D01*
X45469404Y-50124538D02*
X45517023Y-50172157D01*
X45517023Y-50172157D02*
X45564642Y-50267395D01*
X45564642Y-50267395D02*
X45564642Y-50410252D01*
X45564642Y-50410252D02*
X45517023Y-50505490D01*
X45517023Y-50505490D02*
X45469404Y-50553109D01*
X45469404Y-50553109D02*
X45374166Y-50600728D01*
X45374166Y-50600728D02*
X44993214Y-50600728D01*
X46517023Y-51076919D02*
X45945595Y-51076919D01*
X46231309Y-51076919D02*
X46231309Y-50076919D01*
X46231309Y-50076919D02*
X46136071Y-50219776D01*
X46136071Y-50219776D02*
X46040833Y-50315014D01*
X46040833Y-50315014D02*
X45945595Y-50362633D01*
X47088452Y-50505490D02*
X46993214Y-50457871D01*
X46993214Y-50457871D02*
X46945595Y-50410252D01*
X46945595Y-50410252D02*
X46897976Y-50315014D01*
X46897976Y-50315014D02*
X46897976Y-50267395D01*
X46897976Y-50267395D02*
X46945595Y-50172157D01*
X46945595Y-50172157D02*
X46993214Y-50124538D01*
X46993214Y-50124538D02*
X47088452Y-50076919D01*
X47088452Y-50076919D02*
X47278928Y-50076919D01*
X47278928Y-50076919D02*
X47374166Y-50124538D01*
X47374166Y-50124538D02*
X47421785Y-50172157D01*
X47421785Y-50172157D02*
X47469404Y-50267395D01*
X47469404Y-50267395D02*
X47469404Y-50315014D01*
X47469404Y-50315014D02*
X47421785Y-50410252D01*
X47421785Y-50410252D02*
X47374166Y-50457871D01*
X47374166Y-50457871D02*
X47278928Y-50505490D01*
X47278928Y-50505490D02*
X47088452Y-50505490D01*
X47088452Y-50505490D02*
X46993214Y-50553109D01*
X46993214Y-50553109D02*
X46945595Y-50600728D01*
X46945595Y-50600728D02*
X46897976Y-50695966D01*
X46897976Y-50695966D02*
X46897976Y-50886442D01*
X46897976Y-50886442D02*
X46945595Y-50981680D01*
X46945595Y-50981680D02*
X46993214Y-51029300D01*
X46993214Y-51029300D02*
X47088452Y-51076919D01*
X47088452Y-51076919D02*
X47278928Y-51076919D01*
X47278928Y-51076919D02*
X47374166Y-51029300D01*
X47374166Y-51029300D02*
X47421785Y-50981680D01*
X47421785Y-50981680D02*
X47469404Y-50886442D01*
X47469404Y-50886442D02*
X47469404Y-50695966D01*
X47469404Y-50695966D02*
X47421785Y-50600728D01*
X47421785Y-50600728D02*
X47374166Y-50553109D01*
X47374166Y-50553109D02*
X47278928Y-50505490D01*
X42977142Y-97237319D02*
X42643809Y-96761128D01*
X42405714Y-97237319D02*
X42405714Y-96237319D01*
X42405714Y-96237319D02*
X42786666Y-96237319D01*
X42786666Y-96237319D02*
X42881904Y-96284938D01*
X42881904Y-96284938D02*
X42929523Y-96332557D01*
X42929523Y-96332557D02*
X42977142Y-96427795D01*
X42977142Y-96427795D02*
X42977142Y-96570652D01*
X42977142Y-96570652D02*
X42929523Y-96665890D01*
X42929523Y-96665890D02*
X42881904Y-96713509D01*
X42881904Y-96713509D02*
X42786666Y-96761128D01*
X42786666Y-96761128D02*
X42405714Y-96761128D01*
X43358095Y-96332557D02*
X43405714Y-96284938D01*
X43405714Y-96284938D02*
X43500952Y-96237319D01*
X43500952Y-96237319D02*
X43739047Y-96237319D01*
X43739047Y-96237319D02*
X43834285Y-96284938D01*
X43834285Y-96284938D02*
X43881904Y-96332557D01*
X43881904Y-96332557D02*
X43929523Y-96427795D01*
X43929523Y-96427795D02*
X43929523Y-96523033D01*
X43929523Y-96523033D02*
X43881904Y-96665890D01*
X43881904Y-96665890D02*
X43310476Y-97237319D01*
X43310476Y-97237319D02*
X43929523Y-97237319D01*
X44262857Y-96237319D02*
X44929523Y-96237319D01*
X44929523Y-96237319D02*
X44500952Y-97237319D01*
X45564642Y-65097319D02*
X45231309Y-64621128D01*
X44993214Y-65097319D02*
X44993214Y-64097319D01*
X44993214Y-64097319D02*
X45374166Y-64097319D01*
X45374166Y-64097319D02*
X45469404Y-64144938D01*
X45469404Y-64144938D02*
X45517023Y-64192557D01*
X45517023Y-64192557D02*
X45564642Y-64287795D01*
X45564642Y-64287795D02*
X45564642Y-64430652D01*
X45564642Y-64430652D02*
X45517023Y-64525890D01*
X45517023Y-64525890D02*
X45469404Y-64573509D01*
X45469404Y-64573509D02*
X45374166Y-64621128D01*
X45374166Y-64621128D02*
X44993214Y-64621128D01*
X45945595Y-64192557D02*
X45993214Y-64144938D01*
X45993214Y-64144938D02*
X46088452Y-64097319D01*
X46088452Y-64097319D02*
X46326547Y-64097319D01*
X46326547Y-64097319D02*
X46421785Y-64144938D01*
X46421785Y-64144938D02*
X46469404Y-64192557D01*
X46469404Y-64192557D02*
X46517023Y-64287795D01*
X46517023Y-64287795D02*
X46517023Y-64383033D01*
X46517023Y-64383033D02*
X46469404Y-64525890D01*
X46469404Y-64525890D02*
X45897976Y-65097319D01*
X45897976Y-65097319D02*
X46517023Y-65097319D01*
X47374166Y-64430652D02*
X47374166Y-65097319D01*
X47136071Y-64049700D02*
X46897976Y-64763985D01*
X46897976Y-64763985D02*
X47517023Y-64763985D01*
X73064519Y-125355335D02*
X72588328Y-125688668D01*
X73064519Y-125926763D02*
X72064519Y-125926763D01*
X72064519Y-125926763D02*
X72064519Y-125545811D01*
X72064519Y-125545811D02*
X72112138Y-125450573D01*
X72112138Y-125450573D02*
X72159757Y-125402954D01*
X72159757Y-125402954D02*
X72254995Y-125355335D01*
X72254995Y-125355335D02*
X72397852Y-125355335D01*
X72397852Y-125355335D02*
X72493090Y-125402954D01*
X72493090Y-125402954D02*
X72540709Y-125450573D01*
X72540709Y-125450573D02*
X72588328Y-125545811D01*
X72588328Y-125545811D02*
X72588328Y-125926763D01*
X73064519Y-124402954D02*
X73064519Y-124974382D01*
X73064519Y-124688668D02*
X72064519Y-124688668D01*
X72064519Y-124688668D02*
X72207376Y-124783906D01*
X72207376Y-124783906D02*
X72302614Y-124879144D01*
X72302614Y-124879144D02*
X72350233Y-124974382D01*
X72064519Y-123783906D02*
X72064519Y-123688668D01*
X72064519Y-123688668D02*
X72112138Y-123593430D01*
X72112138Y-123593430D02*
X72159757Y-123545811D01*
X72159757Y-123545811D02*
X72254995Y-123498192D01*
X72254995Y-123498192D02*
X72445471Y-123450573D01*
X72445471Y-123450573D02*
X72683566Y-123450573D01*
X72683566Y-123450573D02*
X72874042Y-123498192D01*
X72874042Y-123498192D02*
X72969280Y-123545811D01*
X72969280Y-123545811D02*
X73016900Y-123593430D01*
X73016900Y-123593430D02*
X73064519Y-123688668D01*
X73064519Y-123688668D02*
X73064519Y-123783906D01*
X73064519Y-123783906D02*
X73016900Y-123879144D01*
X73016900Y-123879144D02*
X72969280Y-123926763D01*
X72969280Y-123926763D02*
X72874042Y-123974382D01*
X72874042Y-123974382D02*
X72683566Y-124022001D01*
X72683566Y-124022001D02*
X72445471Y-124022001D01*
X72445471Y-124022001D02*
X72254995Y-123974382D01*
X72254995Y-123974382D02*
X72159757Y-123926763D01*
X72159757Y-123926763D02*
X72112138Y-123879144D01*
X72112138Y-123879144D02*
X72064519Y-123783906D01*
X186571905Y-141167319D02*
X186571905Y-140167319D01*
X186571905Y-140167319D02*
X186810000Y-140167319D01*
X186810000Y-140167319D02*
X186952857Y-140214938D01*
X186952857Y-140214938D02*
X187048095Y-140310176D01*
X187048095Y-140310176D02*
X187095714Y-140405414D01*
X187095714Y-140405414D02*
X187143333Y-140595890D01*
X187143333Y-140595890D02*
X187143333Y-140738747D01*
X187143333Y-140738747D02*
X187095714Y-140929223D01*
X187095714Y-140929223D02*
X187048095Y-141024461D01*
X187048095Y-141024461D02*
X186952857Y-141119700D01*
X186952857Y-141119700D02*
X186810000Y-141167319D01*
X186810000Y-141167319D02*
X186571905Y-141167319D01*
X187524286Y-140262557D02*
X187571905Y-140214938D01*
X187571905Y-140214938D02*
X187667143Y-140167319D01*
X187667143Y-140167319D02*
X187905238Y-140167319D01*
X187905238Y-140167319D02*
X188000476Y-140214938D01*
X188000476Y-140214938D02*
X188048095Y-140262557D01*
X188048095Y-140262557D02*
X188095714Y-140357795D01*
X188095714Y-140357795D02*
X188095714Y-140453033D01*
X188095714Y-140453033D02*
X188048095Y-140595890D01*
X188048095Y-140595890D02*
X187476667Y-141167319D01*
X187476667Y-141167319D02*
X188095714Y-141167319D01*
X192548095Y-141167319D02*
X192548095Y-140167319D01*
X193119523Y-141167319D02*
X192690952Y-140595890D01*
X193119523Y-140167319D02*
X192548095Y-140738747D01*
X108977142Y-97237319D02*
X108643809Y-96761128D01*
X108405714Y-97237319D02*
X108405714Y-96237319D01*
X108405714Y-96237319D02*
X108786666Y-96237319D01*
X108786666Y-96237319D02*
X108881904Y-96284938D01*
X108881904Y-96284938D02*
X108929523Y-96332557D01*
X108929523Y-96332557D02*
X108977142Y-96427795D01*
X108977142Y-96427795D02*
X108977142Y-96570652D01*
X108977142Y-96570652D02*
X108929523Y-96665890D01*
X108929523Y-96665890D02*
X108881904Y-96713509D01*
X108881904Y-96713509D02*
X108786666Y-96761128D01*
X108786666Y-96761128D02*
X108405714Y-96761128D01*
X109929523Y-97237319D02*
X109358095Y-97237319D01*
X109643809Y-97237319D02*
X109643809Y-96237319D01*
X109643809Y-96237319D02*
X109548571Y-96380176D01*
X109548571Y-96380176D02*
X109453333Y-96475414D01*
X109453333Y-96475414D02*
X109358095Y-96523033D01*
X110262857Y-96237319D02*
X110929523Y-96237319D01*
X110929523Y-96237319D02*
X110500952Y-97237319D01*
X187551785Y-89259598D02*
X188361308Y-89259598D01*
X188361308Y-89259598D02*
X188456546Y-89211979D01*
X188456546Y-89211979D02*
X188504166Y-89164360D01*
X188504166Y-89164360D02*
X188551785Y-89069122D01*
X188551785Y-89069122D02*
X188551785Y-88878646D01*
X188551785Y-88878646D02*
X188504166Y-88783408D01*
X188504166Y-88783408D02*
X188456546Y-88735789D01*
X188456546Y-88735789D02*
X188361308Y-88688170D01*
X188361308Y-88688170D02*
X187551785Y-88688170D01*
X188551785Y-87688170D02*
X188551785Y-88259598D01*
X188551785Y-87973884D02*
X187551785Y-87973884D01*
X187551785Y-87973884D02*
X187694642Y-88069122D01*
X187694642Y-88069122D02*
X187789880Y-88164360D01*
X187789880Y-88164360D02*
X187837499Y-88259598D01*
X187551785Y-87354836D02*
X187551785Y-86735789D01*
X187551785Y-86735789D02*
X187932737Y-87069122D01*
X187932737Y-87069122D02*
X187932737Y-86926265D01*
X187932737Y-86926265D02*
X187980356Y-86831027D01*
X187980356Y-86831027D02*
X188027975Y-86783408D01*
X188027975Y-86783408D02*
X188123213Y-86735789D01*
X188123213Y-86735789D02*
X188361308Y-86735789D01*
X188361308Y-86735789D02*
X188456546Y-86783408D01*
X188456546Y-86783408D02*
X188504166Y-86831027D01*
X188504166Y-86831027D02*
X188551785Y-86926265D01*
X188551785Y-86926265D02*
X188551785Y-87211979D01*
X188551785Y-87211979D02*
X188504166Y-87307217D01*
X188504166Y-87307217D02*
X188456546Y-87354836D01*
X213551009Y-58093452D02*
X213598628Y-57950595D01*
X213598628Y-57950595D02*
X213646247Y-57902976D01*
X213646247Y-57902976D02*
X213741485Y-57855357D01*
X213741485Y-57855357D02*
X213884342Y-57855357D01*
X213884342Y-57855357D02*
X213979580Y-57902976D01*
X213979580Y-57902976D02*
X214027200Y-57950595D01*
X214027200Y-57950595D02*
X214074819Y-58045833D01*
X214074819Y-58045833D02*
X214074819Y-58426785D01*
X214074819Y-58426785D02*
X213074819Y-58426785D01*
X213074819Y-58426785D02*
X213074819Y-58093452D01*
X213074819Y-58093452D02*
X213122438Y-57998214D01*
X213122438Y-57998214D02*
X213170057Y-57950595D01*
X213170057Y-57950595D02*
X213265295Y-57902976D01*
X213265295Y-57902976D02*
X213360533Y-57902976D01*
X213360533Y-57902976D02*
X213455771Y-57950595D01*
X213455771Y-57950595D02*
X213503390Y-57998214D01*
X213503390Y-57998214D02*
X213551009Y-58093452D01*
X213551009Y-58093452D02*
X213551009Y-58426785D01*
X213074819Y-57522023D02*
X213074819Y-56855357D01*
X213074819Y-56855357D02*
X214074819Y-57522023D01*
X214074819Y-57522023D02*
X214074819Y-56855357D01*
X214074819Y-55950595D02*
X214074819Y-56522023D01*
X214074819Y-56236309D02*
X213074819Y-56236309D01*
X213074819Y-56236309D02*
X213217676Y-56331547D01*
X213217676Y-56331547D02*
X213312914Y-56426785D01*
X213312914Y-56426785D02*
X213360533Y-56522023D01*
X75564519Y-124379144D02*
X75088328Y-124712477D01*
X75564519Y-124950572D02*
X74564519Y-124950572D01*
X74564519Y-124950572D02*
X74564519Y-124569620D01*
X74564519Y-124569620D02*
X74612138Y-124474382D01*
X74612138Y-124474382D02*
X74659757Y-124426763D01*
X74659757Y-124426763D02*
X74754995Y-124379144D01*
X74754995Y-124379144D02*
X74897852Y-124379144D01*
X74897852Y-124379144D02*
X74993090Y-124426763D01*
X74993090Y-124426763D02*
X75040709Y-124474382D01*
X75040709Y-124474382D02*
X75088328Y-124569620D01*
X75088328Y-124569620D02*
X75088328Y-124950572D01*
X74993090Y-123807715D02*
X74945471Y-123902953D01*
X74945471Y-123902953D02*
X74897852Y-123950572D01*
X74897852Y-123950572D02*
X74802614Y-123998191D01*
X74802614Y-123998191D02*
X74754995Y-123998191D01*
X74754995Y-123998191D02*
X74659757Y-123950572D01*
X74659757Y-123950572D02*
X74612138Y-123902953D01*
X74612138Y-123902953D02*
X74564519Y-123807715D01*
X74564519Y-123807715D02*
X74564519Y-123617239D01*
X74564519Y-123617239D02*
X74612138Y-123522001D01*
X74612138Y-123522001D02*
X74659757Y-123474382D01*
X74659757Y-123474382D02*
X74754995Y-123426763D01*
X74754995Y-123426763D02*
X74802614Y-123426763D01*
X74802614Y-123426763D02*
X74897852Y-123474382D01*
X74897852Y-123474382D02*
X74945471Y-123522001D01*
X74945471Y-123522001D02*
X74993090Y-123617239D01*
X74993090Y-123617239D02*
X74993090Y-123807715D01*
X74993090Y-123807715D02*
X75040709Y-123902953D01*
X75040709Y-123902953D02*
X75088328Y-123950572D01*
X75088328Y-123950572D02*
X75183566Y-123998191D01*
X75183566Y-123998191D02*
X75374042Y-123998191D01*
X75374042Y-123998191D02*
X75469280Y-123950572D01*
X75469280Y-123950572D02*
X75516900Y-123902953D01*
X75516900Y-123902953D02*
X75564519Y-123807715D01*
X75564519Y-123807715D02*
X75564519Y-123617239D01*
X75564519Y-123617239D02*
X75516900Y-123522001D01*
X75516900Y-123522001D02*
X75469280Y-123474382D01*
X75469280Y-123474382D02*
X75374042Y-123426763D01*
X75374042Y-123426763D02*
X75183566Y-123426763D01*
X75183566Y-123426763D02*
X75088328Y-123474382D01*
X75088328Y-123474382D02*
X75040709Y-123522001D01*
X75040709Y-123522001D02*
X74993090Y-123617239D01*
X59107563Y-119544975D02*
X59155183Y-119592594D01*
X59155183Y-119592594D02*
X59202802Y-119735451D01*
X59202802Y-119735451D02*
X59202802Y-119830689D01*
X59202802Y-119830689D02*
X59155183Y-119973546D01*
X59155183Y-119973546D02*
X59059944Y-120068784D01*
X59059944Y-120068784D02*
X58964706Y-120116403D01*
X58964706Y-120116403D02*
X58774230Y-120164022D01*
X58774230Y-120164022D02*
X58631373Y-120164022D01*
X58631373Y-120164022D02*
X58440897Y-120116403D01*
X58440897Y-120116403D02*
X58345659Y-120068784D01*
X58345659Y-120068784D02*
X58250421Y-119973546D01*
X58250421Y-119973546D02*
X58202802Y-119830689D01*
X58202802Y-119830689D02*
X58202802Y-119735451D01*
X58202802Y-119735451D02*
X58250421Y-119592594D01*
X58250421Y-119592594D02*
X58298040Y-119544975D01*
X59202802Y-118592594D02*
X59202802Y-119164022D01*
X59202802Y-118878308D02*
X58202802Y-118878308D01*
X58202802Y-118878308D02*
X58345659Y-118973546D01*
X58345659Y-118973546D02*
X58440897Y-119068784D01*
X58440897Y-119068784D02*
X58488516Y-119164022D01*
X146286667Y-105819700D02*
X146429524Y-105867319D01*
X146429524Y-105867319D02*
X146667619Y-105867319D01*
X146667619Y-105867319D02*
X146762857Y-105819700D01*
X146762857Y-105819700D02*
X146810476Y-105772080D01*
X146810476Y-105772080D02*
X146858095Y-105676842D01*
X146858095Y-105676842D02*
X146858095Y-105581604D01*
X146858095Y-105581604D02*
X146810476Y-105486366D01*
X146810476Y-105486366D02*
X146762857Y-105438747D01*
X146762857Y-105438747D02*
X146667619Y-105391128D01*
X146667619Y-105391128D02*
X146477143Y-105343509D01*
X146477143Y-105343509D02*
X146381905Y-105295890D01*
X146381905Y-105295890D02*
X146334286Y-105248271D01*
X146334286Y-105248271D02*
X146286667Y-105153033D01*
X146286667Y-105153033D02*
X146286667Y-105057795D01*
X146286667Y-105057795D02*
X146334286Y-104962557D01*
X146334286Y-104962557D02*
X146381905Y-104914938D01*
X146381905Y-104914938D02*
X146477143Y-104867319D01*
X146477143Y-104867319D02*
X146715238Y-104867319D01*
X146715238Y-104867319D02*
X146858095Y-104914938D01*
X147191429Y-104867319D02*
X147429524Y-105867319D01*
X147429524Y-105867319D02*
X147620000Y-105153033D01*
X147620000Y-105153033D02*
X147810476Y-105867319D01*
X147810476Y-105867319D02*
X148048572Y-104867319D01*
X148381905Y-104962557D02*
X148429524Y-104914938D01*
X148429524Y-104914938D02*
X148524762Y-104867319D01*
X148524762Y-104867319D02*
X148762857Y-104867319D01*
X148762857Y-104867319D02*
X148858095Y-104914938D01*
X148858095Y-104914938D02*
X148905714Y-104962557D01*
X148905714Y-104962557D02*
X148953333Y-105057795D01*
X148953333Y-105057795D02*
X148953333Y-105153033D01*
X148953333Y-105153033D02*
X148905714Y-105295890D01*
X148905714Y-105295890D02*
X148334286Y-105867319D01*
X148334286Y-105867319D02*
X148953333Y-105867319D01*
X82477142Y-97292319D02*
X82143809Y-96816128D01*
X81905714Y-97292319D02*
X81905714Y-96292319D01*
X81905714Y-96292319D02*
X82286666Y-96292319D01*
X82286666Y-96292319D02*
X82381904Y-96339938D01*
X82381904Y-96339938D02*
X82429523Y-96387557D01*
X82429523Y-96387557D02*
X82477142Y-96482795D01*
X82477142Y-96482795D02*
X82477142Y-96625652D01*
X82477142Y-96625652D02*
X82429523Y-96720890D01*
X82429523Y-96720890D02*
X82381904Y-96768509D01*
X82381904Y-96768509D02*
X82286666Y-96816128D01*
X82286666Y-96816128D02*
X81905714Y-96816128D01*
X82858095Y-96387557D02*
X82905714Y-96339938D01*
X82905714Y-96339938D02*
X83000952Y-96292319D01*
X83000952Y-96292319D02*
X83239047Y-96292319D01*
X83239047Y-96292319D02*
X83334285Y-96339938D01*
X83334285Y-96339938D02*
X83381904Y-96387557D01*
X83381904Y-96387557D02*
X83429523Y-96482795D01*
X83429523Y-96482795D02*
X83429523Y-96578033D01*
X83429523Y-96578033D02*
X83381904Y-96720890D01*
X83381904Y-96720890D02*
X82810476Y-97292319D01*
X82810476Y-97292319D02*
X83429523Y-97292319D01*
X84381904Y-97292319D02*
X83810476Y-97292319D01*
X84096190Y-97292319D02*
X84096190Y-96292319D01*
X84096190Y-96292319D02*
X84000952Y-96435176D01*
X84000952Y-96435176D02*
X83905714Y-96530414D01*
X83905714Y-96530414D02*
X83810476Y-96578033D01*
X45564642Y-74444219D02*
X45231309Y-73968028D01*
X44993214Y-74444219D02*
X44993214Y-73444219D01*
X44993214Y-73444219D02*
X45374166Y-73444219D01*
X45374166Y-73444219D02*
X45469404Y-73491838D01*
X45469404Y-73491838D02*
X45517023Y-73539457D01*
X45517023Y-73539457D02*
X45564642Y-73634695D01*
X45564642Y-73634695D02*
X45564642Y-73777552D01*
X45564642Y-73777552D02*
X45517023Y-73872790D01*
X45517023Y-73872790D02*
X45469404Y-73920409D01*
X45469404Y-73920409D02*
X45374166Y-73968028D01*
X45374166Y-73968028D02*
X44993214Y-73968028D01*
X45945595Y-73539457D02*
X45993214Y-73491838D01*
X45993214Y-73491838D02*
X46088452Y-73444219D01*
X46088452Y-73444219D02*
X46326547Y-73444219D01*
X46326547Y-73444219D02*
X46421785Y-73491838D01*
X46421785Y-73491838D02*
X46469404Y-73539457D01*
X46469404Y-73539457D02*
X46517023Y-73634695D01*
X46517023Y-73634695D02*
X46517023Y-73729933D01*
X46517023Y-73729933D02*
X46469404Y-73872790D01*
X46469404Y-73872790D02*
X45897976Y-74444219D01*
X45897976Y-74444219D02*
X46517023Y-74444219D01*
X47088452Y-73872790D02*
X46993214Y-73825171D01*
X46993214Y-73825171D02*
X46945595Y-73777552D01*
X46945595Y-73777552D02*
X46897976Y-73682314D01*
X46897976Y-73682314D02*
X46897976Y-73634695D01*
X46897976Y-73634695D02*
X46945595Y-73539457D01*
X46945595Y-73539457D02*
X46993214Y-73491838D01*
X46993214Y-73491838D02*
X47088452Y-73444219D01*
X47088452Y-73444219D02*
X47278928Y-73444219D01*
X47278928Y-73444219D02*
X47374166Y-73491838D01*
X47374166Y-73491838D02*
X47421785Y-73539457D01*
X47421785Y-73539457D02*
X47469404Y-73634695D01*
X47469404Y-73634695D02*
X47469404Y-73682314D01*
X47469404Y-73682314D02*
X47421785Y-73777552D01*
X47421785Y-73777552D02*
X47374166Y-73825171D01*
X47374166Y-73825171D02*
X47278928Y-73872790D01*
X47278928Y-73872790D02*
X47088452Y-73872790D01*
X47088452Y-73872790D02*
X46993214Y-73920409D01*
X46993214Y-73920409D02*
X46945595Y-73968028D01*
X46945595Y-73968028D02*
X46897976Y-74063266D01*
X46897976Y-74063266D02*
X46897976Y-74253742D01*
X46897976Y-74253742D02*
X46945595Y-74348980D01*
X46945595Y-74348980D02*
X46993214Y-74396600D01*
X46993214Y-74396600D02*
X47088452Y-74444219D01*
X47088452Y-74444219D02*
X47278928Y-74444219D01*
X47278928Y-74444219D02*
X47374166Y-74396600D01*
X47374166Y-74396600D02*
X47421785Y-74348980D01*
X47421785Y-74348980D02*
X47469404Y-74253742D01*
X47469404Y-74253742D02*
X47469404Y-74063266D01*
X47469404Y-74063266D02*
X47421785Y-73968028D01*
X47421785Y-73968028D02*
X47374166Y-73920409D01*
X47374166Y-73920409D02*
X47278928Y-73872790D01*
X50210057Y-93862738D02*
X50162438Y-93957976D01*
X50162438Y-93957976D02*
X50067200Y-94053214D01*
X50067200Y-94053214D02*
X49924342Y-94196071D01*
X49924342Y-94196071D02*
X49876723Y-94291309D01*
X49876723Y-94291309D02*
X49876723Y-94386547D01*
X50114819Y-94338928D02*
X50067200Y-94434166D01*
X50067200Y-94434166D02*
X49971961Y-94529404D01*
X49971961Y-94529404D02*
X49781485Y-94577023D01*
X49781485Y-94577023D02*
X49448152Y-94577023D01*
X49448152Y-94577023D02*
X49257676Y-94529404D01*
X49257676Y-94529404D02*
X49162438Y-94434166D01*
X49162438Y-94434166D02*
X49114819Y-94338928D01*
X49114819Y-94338928D02*
X49114819Y-94148452D01*
X49114819Y-94148452D02*
X49162438Y-94053214D01*
X49162438Y-94053214D02*
X49257676Y-93957976D01*
X49257676Y-93957976D02*
X49448152Y-93910357D01*
X49448152Y-93910357D02*
X49781485Y-93910357D01*
X49781485Y-93910357D02*
X49971961Y-93957976D01*
X49971961Y-93957976D02*
X50067200Y-94053214D01*
X50067200Y-94053214D02*
X50114819Y-94148452D01*
X50114819Y-94148452D02*
X50114819Y-94338928D01*
X49543390Y-93338928D02*
X49495771Y-93434166D01*
X49495771Y-93434166D02*
X49448152Y-93481785D01*
X49448152Y-93481785D02*
X49352914Y-93529404D01*
X49352914Y-93529404D02*
X49305295Y-93529404D01*
X49305295Y-93529404D02*
X49210057Y-93481785D01*
X49210057Y-93481785D02*
X49162438Y-93434166D01*
X49162438Y-93434166D02*
X49114819Y-93338928D01*
X49114819Y-93338928D02*
X49114819Y-93148452D01*
X49114819Y-93148452D02*
X49162438Y-93053214D01*
X49162438Y-93053214D02*
X49210057Y-93005595D01*
X49210057Y-93005595D02*
X49305295Y-92957976D01*
X49305295Y-92957976D02*
X49352914Y-92957976D01*
X49352914Y-92957976D02*
X49448152Y-93005595D01*
X49448152Y-93005595D02*
X49495771Y-93053214D01*
X49495771Y-93053214D02*
X49543390Y-93148452D01*
X49543390Y-93148452D02*
X49543390Y-93338928D01*
X49543390Y-93338928D02*
X49591009Y-93434166D01*
X49591009Y-93434166D02*
X49638628Y-93481785D01*
X49638628Y-93481785D02*
X49733866Y-93529404D01*
X49733866Y-93529404D02*
X49924342Y-93529404D01*
X49924342Y-93529404D02*
X50019580Y-93481785D01*
X50019580Y-93481785D02*
X50067200Y-93434166D01*
X50067200Y-93434166D02*
X50114819Y-93338928D01*
X50114819Y-93338928D02*
X50114819Y-93148452D01*
X50114819Y-93148452D02*
X50067200Y-93053214D01*
X50067200Y-93053214D02*
X50019580Y-93005595D01*
X50019580Y-93005595D02*
X49924342Y-92957976D01*
X49924342Y-92957976D02*
X49733866Y-92957976D01*
X49733866Y-92957976D02*
X49638628Y-93005595D01*
X49638628Y-93005595D02*
X49591009Y-93053214D01*
X49591009Y-93053214D02*
X49543390Y-93148452D01*
X145074819Y-106642857D02*
X144598628Y-106976190D01*
X145074819Y-107214285D02*
X144074819Y-107214285D01*
X144074819Y-107214285D02*
X144074819Y-106833333D01*
X144074819Y-106833333D02*
X144122438Y-106738095D01*
X144122438Y-106738095D02*
X144170057Y-106690476D01*
X144170057Y-106690476D02*
X144265295Y-106642857D01*
X144265295Y-106642857D02*
X144408152Y-106642857D01*
X144408152Y-106642857D02*
X144503390Y-106690476D01*
X144503390Y-106690476D02*
X144551009Y-106738095D01*
X144551009Y-106738095D02*
X144598628Y-106833333D01*
X144598628Y-106833333D02*
X144598628Y-107214285D01*
X144074819Y-106309523D02*
X144074819Y-105690476D01*
X144074819Y-105690476D02*
X144455771Y-106023809D01*
X144455771Y-106023809D02*
X144455771Y-105880952D01*
X144455771Y-105880952D02*
X144503390Y-105785714D01*
X144503390Y-105785714D02*
X144551009Y-105738095D01*
X144551009Y-105738095D02*
X144646247Y-105690476D01*
X144646247Y-105690476D02*
X144884342Y-105690476D01*
X144884342Y-105690476D02*
X144979580Y-105738095D01*
X144979580Y-105738095D02*
X145027200Y-105785714D01*
X145027200Y-105785714D02*
X145074819Y-105880952D01*
X145074819Y-105880952D02*
X145074819Y-106166666D01*
X145074819Y-106166666D02*
X145027200Y-106261904D01*
X145027200Y-106261904D02*
X144979580Y-106309523D01*
X144074819Y-105357142D02*
X144074819Y-104738095D01*
X144074819Y-104738095D02*
X144455771Y-105071428D01*
X144455771Y-105071428D02*
X144455771Y-104928571D01*
X144455771Y-104928571D02*
X144503390Y-104833333D01*
X144503390Y-104833333D02*
X144551009Y-104785714D01*
X144551009Y-104785714D02*
X144646247Y-104738095D01*
X144646247Y-104738095D02*
X144884342Y-104738095D01*
X144884342Y-104738095D02*
X144979580Y-104785714D01*
X144979580Y-104785714D02*
X145027200Y-104833333D01*
X145027200Y-104833333D02*
X145074819Y-104928571D01*
X145074819Y-104928571D02*
X145074819Y-105214285D01*
X145074819Y-105214285D02*
X145027200Y-105309523D01*
X145027200Y-105309523D02*
X144979580Y-105357142D01*
X139394916Y-129862589D02*
X139442536Y-129910208D01*
X139442536Y-129910208D02*
X139490155Y-130053065D01*
X139490155Y-130053065D02*
X139490155Y-130148303D01*
X139490155Y-130148303D02*
X139442536Y-130291160D01*
X139442536Y-130291160D02*
X139347297Y-130386398D01*
X139347297Y-130386398D02*
X139252059Y-130434017D01*
X139252059Y-130434017D02*
X139061583Y-130481636D01*
X139061583Y-130481636D02*
X138918726Y-130481636D01*
X138918726Y-130481636D02*
X138728250Y-130434017D01*
X138728250Y-130434017D02*
X138633012Y-130386398D01*
X138633012Y-130386398D02*
X138537774Y-130291160D01*
X138537774Y-130291160D02*
X138490155Y-130148303D01*
X138490155Y-130148303D02*
X138490155Y-130053065D01*
X138490155Y-130053065D02*
X138537774Y-129910208D01*
X138537774Y-129910208D02*
X138585393Y-129862589D01*
X139490155Y-128910208D02*
X139490155Y-129481636D01*
X139490155Y-129195922D02*
X138490155Y-129195922D01*
X138490155Y-129195922D02*
X138633012Y-129291160D01*
X138633012Y-129291160D02*
X138728250Y-129386398D01*
X138728250Y-129386398D02*
X138775869Y-129481636D01*
X138490155Y-128053065D02*
X138490155Y-128243541D01*
X138490155Y-128243541D02*
X138537774Y-128338779D01*
X138537774Y-128338779D02*
X138585393Y-128386398D01*
X138585393Y-128386398D02*
X138728250Y-128481636D01*
X138728250Y-128481636D02*
X138918726Y-128529255D01*
X138918726Y-128529255D02*
X139299678Y-128529255D01*
X139299678Y-128529255D02*
X139394916Y-128481636D01*
X139394916Y-128481636D02*
X139442536Y-128434017D01*
X139442536Y-128434017D02*
X139490155Y-128338779D01*
X139490155Y-128338779D02*
X139490155Y-128148303D01*
X139490155Y-128148303D02*
X139442536Y-128053065D01*
X139442536Y-128053065D02*
X139394916Y-128005446D01*
X139394916Y-128005446D02*
X139299678Y-127957827D01*
X139299678Y-127957827D02*
X139061583Y-127957827D01*
X139061583Y-127957827D02*
X138966345Y-128005446D01*
X138966345Y-128005446D02*
X138918726Y-128053065D01*
X138918726Y-128053065D02*
X138871107Y-128148303D01*
X138871107Y-128148303D02*
X138871107Y-128338779D01*
X138871107Y-128338779D02*
X138918726Y-128434017D01*
X138918726Y-128434017D02*
X138966345Y-128481636D01*
X138966345Y-128481636D02*
X139061583Y-128529255D01*
X151074819Y-106642857D02*
X150598628Y-106976190D01*
X151074819Y-107214285D02*
X150074819Y-107214285D01*
X150074819Y-107214285D02*
X150074819Y-106833333D01*
X150074819Y-106833333D02*
X150122438Y-106738095D01*
X150122438Y-106738095D02*
X150170057Y-106690476D01*
X150170057Y-106690476D02*
X150265295Y-106642857D01*
X150265295Y-106642857D02*
X150408152Y-106642857D01*
X150408152Y-106642857D02*
X150503390Y-106690476D01*
X150503390Y-106690476D02*
X150551009Y-106738095D01*
X150551009Y-106738095D02*
X150598628Y-106833333D01*
X150598628Y-106833333D02*
X150598628Y-107214285D01*
X150074819Y-106309523D02*
X150074819Y-105690476D01*
X150074819Y-105690476D02*
X150455771Y-106023809D01*
X150455771Y-106023809D02*
X150455771Y-105880952D01*
X150455771Y-105880952D02*
X150503390Y-105785714D01*
X150503390Y-105785714D02*
X150551009Y-105738095D01*
X150551009Y-105738095D02*
X150646247Y-105690476D01*
X150646247Y-105690476D02*
X150884342Y-105690476D01*
X150884342Y-105690476D02*
X150979580Y-105738095D01*
X150979580Y-105738095D02*
X151027200Y-105785714D01*
X151027200Y-105785714D02*
X151074819Y-105880952D01*
X151074819Y-105880952D02*
X151074819Y-106166666D01*
X151074819Y-106166666D02*
X151027200Y-106261904D01*
X151027200Y-106261904D02*
X150979580Y-106309523D01*
X150170057Y-105309523D02*
X150122438Y-105261904D01*
X150122438Y-105261904D02*
X150074819Y-105166666D01*
X150074819Y-105166666D02*
X150074819Y-104928571D01*
X150074819Y-104928571D02*
X150122438Y-104833333D01*
X150122438Y-104833333D02*
X150170057Y-104785714D01*
X150170057Y-104785714D02*
X150265295Y-104738095D01*
X150265295Y-104738095D02*
X150360533Y-104738095D01*
X150360533Y-104738095D02*
X150503390Y-104785714D01*
X150503390Y-104785714D02*
X151074819Y-105357142D01*
X151074819Y-105357142D02*
X151074819Y-104738095D01*
X190279595Y-77667319D02*
X190279595Y-78476842D01*
X190279595Y-78476842D02*
X190327214Y-78572080D01*
X190327214Y-78572080D02*
X190374833Y-78619700D01*
X190374833Y-78619700D02*
X190470071Y-78667319D01*
X190470071Y-78667319D02*
X190660547Y-78667319D01*
X190660547Y-78667319D02*
X190755785Y-78619700D01*
X190755785Y-78619700D02*
X190803404Y-78572080D01*
X190803404Y-78572080D02*
X190851023Y-78476842D01*
X190851023Y-78476842D02*
X190851023Y-77667319D01*
X191279595Y-77762557D02*
X191327214Y-77714938D01*
X191327214Y-77714938D02*
X191422452Y-77667319D01*
X191422452Y-77667319D02*
X191660547Y-77667319D01*
X191660547Y-77667319D02*
X191755785Y-77714938D01*
X191755785Y-77714938D02*
X191803404Y-77762557D01*
X191803404Y-77762557D02*
X191851023Y-77857795D01*
X191851023Y-77857795D02*
X191851023Y-77953033D01*
X191851023Y-77953033D02*
X191803404Y-78095890D01*
X191803404Y-78095890D02*
X191231976Y-78667319D01*
X191231976Y-78667319D02*
X191851023Y-78667319D01*
X186406000Y-74797119D02*
X186406000Y-75035214D01*
X186167905Y-74939976D02*
X186406000Y-75035214D01*
X186406000Y-75035214D02*
X186644095Y-74939976D01*
X186263143Y-75225690D02*
X186406000Y-75035214D01*
X186406000Y-75035214D02*
X186548857Y-75225690D01*
X186406000Y-74797119D02*
X186406000Y-75035214D01*
X186167905Y-74939976D02*
X186406000Y-75035214D01*
X186406000Y-75035214D02*
X186644095Y-74939976D01*
X186263143Y-75225690D02*
X186406000Y-75035214D01*
X186406000Y-75035214D02*
X186548857Y-75225690D01*
X199104819Y-57550594D02*
X198104819Y-57550594D01*
X198104819Y-57550594D02*
X198104819Y-57312499D01*
X198104819Y-57312499D02*
X198152438Y-57169642D01*
X198152438Y-57169642D02*
X198247676Y-57074404D01*
X198247676Y-57074404D02*
X198342914Y-57026785D01*
X198342914Y-57026785D02*
X198533390Y-56979166D01*
X198533390Y-56979166D02*
X198676247Y-56979166D01*
X198676247Y-56979166D02*
X198866723Y-57026785D01*
X198866723Y-57026785D02*
X198961961Y-57074404D01*
X198961961Y-57074404D02*
X199057200Y-57169642D01*
X199057200Y-57169642D02*
X199104819Y-57312499D01*
X199104819Y-57312499D02*
X199104819Y-57550594D01*
X198104819Y-56645832D02*
X198104819Y-56026785D01*
X198104819Y-56026785D02*
X198485771Y-56360118D01*
X198485771Y-56360118D02*
X198485771Y-56217261D01*
X198485771Y-56217261D02*
X198533390Y-56122023D01*
X198533390Y-56122023D02*
X198581009Y-56074404D01*
X198581009Y-56074404D02*
X198676247Y-56026785D01*
X198676247Y-56026785D02*
X198914342Y-56026785D01*
X198914342Y-56026785D02*
X199009580Y-56074404D01*
X199009580Y-56074404D02*
X199057200Y-56122023D01*
X199057200Y-56122023D02*
X199104819Y-56217261D01*
X199104819Y-56217261D02*
X199104819Y-56502975D01*
X199104819Y-56502975D02*
X199057200Y-56598213D01*
X199057200Y-56598213D02*
X199009580Y-56645832D01*
X199474819Y-62154404D02*
X198474819Y-62154404D01*
X199474819Y-61582976D02*
X198903390Y-62011547D01*
X198474819Y-61582976D02*
X199046247Y-62154404D01*
X76453303Y-131572094D02*
X76405684Y-131619714D01*
X76405684Y-131619714D02*
X76262827Y-131667333D01*
X76262827Y-131667333D02*
X76167589Y-131667333D01*
X76167589Y-131667333D02*
X76024732Y-131619714D01*
X76024732Y-131619714D02*
X75929494Y-131524475D01*
X75929494Y-131524475D02*
X75881875Y-131429237D01*
X75881875Y-131429237D02*
X75834256Y-131238761D01*
X75834256Y-131238761D02*
X75834256Y-131095904D01*
X75834256Y-131095904D02*
X75881875Y-130905428D01*
X75881875Y-130905428D02*
X75929494Y-130810190D01*
X75929494Y-130810190D02*
X76024732Y-130714952D01*
X76024732Y-130714952D02*
X76167589Y-130667333D01*
X76167589Y-130667333D02*
X76262827Y-130667333D01*
X76262827Y-130667333D02*
X76405684Y-130714952D01*
X76405684Y-130714952D02*
X76453303Y-130762571D01*
X76786637Y-130667333D02*
X77453303Y-130667333D01*
X77453303Y-130667333D02*
X77024732Y-131667333D01*
X186198080Y-89602066D02*
X186245700Y-89649685D01*
X186245700Y-89649685D02*
X186293319Y-89792542D01*
X186293319Y-89792542D02*
X186293319Y-89887780D01*
X186293319Y-89887780D02*
X186245700Y-90030637D01*
X186245700Y-90030637D02*
X186150461Y-90125875D01*
X186150461Y-90125875D02*
X186055223Y-90173494D01*
X186055223Y-90173494D02*
X185864747Y-90221113D01*
X185864747Y-90221113D02*
X185721890Y-90221113D01*
X185721890Y-90221113D02*
X185531414Y-90173494D01*
X185531414Y-90173494D02*
X185436176Y-90125875D01*
X185436176Y-90125875D02*
X185340938Y-90030637D01*
X185340938Y-90030637D02*
X185293319Y-89887780D01*
X185293319Y-89887780D02*
X185293319Y-89792542D01*
X185293319Y-89792542D02*
X185340938Y-89649685D01*
X185340938Y-89649685D02*
X185388557Y-89602066D01*
X185293319Y-88744923D02*
X185293319Y-88935399D01*
X185293319Y-88935399D02*
X185340938Y-89030637D01*
X185340938Y-89030637D02*
X185388557Y-89078256D01*
X185388557Y-89078256D02*
X185531414Y-89173494D01*
X185531414Y-89173494D02*
X185721890Y-89221113D01*
X185721890Y-89221113D02*
X186102842Y-89221113D01*
X186102842Y-89221113D02*
X186198080Y-89173494D01*
X186198080Y-89173494D02*
X186245700Y-89125875D01*
X186245700Y-89125875D02*
X186293319Y-89030637D01*
X186293319Y-89030637D02*
X186293319Y-88840161D01*
X186293319Y-88840161D02*
X186245700Y-88744923D01*
X186245700Y-88744923D02*
X186198080Y-88697304D01*
X186198080Y-88697304D02*
X186102842Y-88649685D01*
X186102842Y-88649685D02*
X185864747Y-88649685D01*
X185864747Y-88649685D02*
X185769509Y-88697304D01*
X185769509Y-88697304D02*
X185721890Y-88744923D01*
X185721890Y-88744923D02*
X185674271Y-88840161D01*
X185674271Y-88840161D02*
X185674271Y-89030637D01*
X185674271Y-89030637D02*
X185721890Y-89125875D01*
X185721890Y-89125875D02*
X185769509Y-89173494D01*
X185769509Y-89173494D02*
X185864747Y-89221113D01*
X149479580Y-128080357D02*
X149527200Y-128127976D01*
X149527200Y-128127976D02*
X149574819Y-128270833D01*
X149574819Y-128270833D02*
X149574819Y-128366071D01*
X149574819Y-128366071D02*
X149527200Y-128508928D01*
X149527200Y-128508928D02*
X149431961Y-128604166D01*
X149431961Y-128604166D02*
X149336723Y-128651785D01*
X149336723Y-128651785D02*
X149146247Y-128699404D01*
X149146247Y-128699404D02*
X149003390Y-128699404D01*
X149003390Y-128699404D02*
X148812914Y-128651785D01*
X148812914Y-128651785D02*
X148717676Y-128604166D01*
X148717676Y-128604166D02*
X148622438Y-128508928D01*
X148622438Y-128508928D02*
X148574819Y-128366071D01*
X148574819Y-128366071D02*
X148574819Y-128270833D01*
X148574819Y-128270833D02*
X148622438Y-128127976D01*
X148622438Y-128127976D02*
X148670057Y-128080357D01*
X149574819Y-127127976D02*
X149574819Y-127699404D01*
X149574819Y-127413690D02*
X148574819Y-127413690D01*
X148574819Y-127413690D02*
X148717676Y-127508928D01*
X148717676Y-127508928D02*
X148812914Y-127604166D01*
X148812914Y-127604166D02*
X148860533Y-127699404D01*
X148908152Y-126270833D02*
X149574819Y-126270833D01*
X148527200Y-126508928D02*
X149241485Y-126747023D01*
X149241485Y-126747023D02*
X149241485Y-126127976D01*
X57287914Y-120130357D02*
X57335534Y-120177976D01*
X57335534Y-120177976D02*
X57383153Y-120320833D01*
X57383153Y-120320833D02*
X57383153Y-120416071D01*
X57383153Y-120416071D02*
X57335534Y-120558928D01*
X57335534Y-120558928D02*
X57240295Y-120654166D01*
X57240295Y-120654166D02*
X57145057Y-120701785D01*
X57145057Y-120701785D02*
X56954581Y-120749404D01*
X56954581Y-120749404D02*
X56811724Y-120749404D01*
X56811724Y-120749404D02*
X56621248Y-120701785D01*
X56621248Y-120701785D02*
X56526010Y-120654166D01*
X56526010Y-120654166D02*
X56430772Y-120558928D01*
X56430772Y-120558928D02*
X56383153Y-120416071D01*
X56383153Y-120416071D02*
X56383153Y-120320833D01*
X56383153Y-120320833D02*
X56430772Y-120177976D01*
X56430772Y-120177976D02*
X56478391Y-120130357D01*
X56478391Y-119749404D02*
X56430772Y-119701785D01*
X56430772Y-119701785D02*
X56383153Y-119606547D01*
X56383153Y-119606547D02*
X56383153Y-119368452D01*
X56383153Y-119368452D02*
X56430772Y-119273214D01*
X56430772Y-119273214D02*
X56478391Y-119225595D01*
X56478391Y-119225595D02*
X56573629Y-119177976D01*
X56573629Y-119177976D02*
X56668867Y-119177976D01*
X56668867Y-119177976D02*
X56811724Y-119225595D01*
X56811724Y-119225595D02*
X57383153Y-119797023D01*
X57383153Y-119797023D02*
X57383153Y-119177976D01*
X57383153Y-118225595D02*
X57383153Y-118797023D01*
X57383153Y-118511309D02*
X56383153Y-118511309D01*
X56383153Y-118511309D02*
X56526010Y-118606547D01*
X56526010Y-118606547D02*
X56621248Y-118701785D01*
X56621248Y-118701785D02*
X56668867Y-118797023D01*
X191907033Y-137720119D02*
X191573700Y-137243928D01*
X191335605Y-137720119D02*
X191335605Y-136720119D01*
X191335605Y-136720119D02*
X191716557Y-136720119D01*
X191716557Y-136720119D02*
X191811795Y-136767738D01*
X191811795Y-136767738D02*
X191859414Y-136815357D01*
X191859414Y-136815357D02*
X191907033Y-136910595D01*
X191907033Y-136910595D02*
X191907033Y-137053452D01*
X191907033Y-137053452D02*
X191859414Y-137148690D01*
X191859414Y-137148690D02*
X191811795Y-137196309D01*
X191811795Y-137196309D02*
X191716557Y-137243928D01*
X191716557Y-137243928D02*
X191335605Y-137243928D01*
X192764176Y-137053452D02*
X192764176Y-137720119D01*
X192526081Y-136672500D02*
X192287986Y-137386785D01*
X192287986Y-137386785D02*
X192907033Y-137386785D01*
X183410961Y-133675657D02*
X183315723Y-133628038D01*
X183315723Y-133628038D02*
X183220485Y-133532800D01*
X183220485Y-133532800D02*
X183077628Y-133389942D01*
X183077628Y-133389942D02*
X182982390Y-133342323D01*
X182982390Y-133342323D02*
X182887152Y-133342323D01*
X182934771Y-133580419D02*
X182839533Y-133532800D01*
X182839533Y-133532800D02*
X182744295Y-133437561D01*
X182744295Y-133437561D02*
X182696676Y-133247085D01*
X182696676Y-133247085D02*
X182696676Y-132913752D01*
X182696676Y-132913752D02*
X182744295Y-132723276D01*
X182744295Y-132723276D02*
X182839533Y-132628038D01*
X182839533Y-132628038D02*
X182934771Y-132580419D01*
X182934771Y-132580419D02*
X183125247Y-132580419D01*
X183125247Y-132580419D02*
X183220485Y-132628038D01*
X183220485Y-132628038D02*
X183315723Y-132723276D01*
X183315723Y-132723276D02*
X183363342Y-132913752D01*
X183363342Y-132913752D02*
X183363342Y-133247085D01*
X183363342Y-133247085D02*
X183315723Y-133437561D01*
X183315723Y-133437561D02*
X183220485Y-133532800D01*
X183220485Y-133532800D02*
X183125247Y-133580419D01*
X183125247Y-133580419D02*
X182934771Y-133580419D01*
X184315723Y-133580419D02*
X183744295Y-133580419D01*
X184030009Y-133580419D02*
X184030009Y-132580419D01*
X184030009Y-132580419D02*
X183934771Y-132723276D01*
X183934771Y-132723276D02*
X183839533Y-132818514D01*
X183839533Y-132818514D02*
X183744295Y-132866133D01*
X205434880Y-144414957D02*
X205482500Y-144462576D01*
X205482500Y-144462576D02*
X205530119Y-144605433D01*
X205530119Y-144605433D02*
X205530119Y-144700671D01*
X205530119Y-144700671D02*
X205482500Y-144843528D01*
X205482500Y-144843528D02*
X205387261Y-144938766D01*
X205387261Y-144938766D02*
X205292023Y-144986385D01*
X205292023Y-144986385D02*
X205101547Y-145034004D01*
X205101547Y-145034004D02*
X204958690Y-145034004D01*
X204958690Y-145034004D02*
X204768214Y-144986385D01*
X204768214Y-144986385D02*
X204672976Y-144938766D01*
X204672976Y-144938766D02*
X204577738Y-144843528D01*
X204577738Y-144843528D02*
X204530119Y-144700671D01*
X204530119Y-144700671D02*
X204530119Y-144605433D01*
X204530119Y-144605433D02*
X204577738Y-144462576D01*
X204577738Y-144462576D02*
X204625357Y-144414957D01*
X205530119Y-143462576D02*
X205530119Y-144034004D01*
X205530119Y-143748290D02*
X204530119Y-143748290D01*
X204530119Y-143748290D02*
X204672976Y-143843528D01*
X204672976Y-143843528D02*
X204768214Y-143938766D01*
X204768214Y-143938766D02*
X204815833Y-144034004D01*
X205530119Y-142510195D02*
X205530119Y-143081623D01*
X205530119Y-142795909D02*
X204530119Y-142795909D01*
X204530119Y-142795909D02*
X204672976Y-142891147D01*
X204672976Y-142891147D02*
X204768214Y-142986385D01*
X204768214Y-142986385D02*
X204815833Y-143081623D01*
X45564642Y-69880819D02*
X45231309Y-69404628D01*
X44993214Y-69880819D02*
X44993214Y-68880819D01*
X44993214Y-68880819D02*
X45374166Y-68880819D01*
X45374166Y-68880819D02*
X45469404Y-68928438D01*
X45469404Y-68928438D02*
X45517023Y-68976057D01*
X45517023Y-68976057D02*
X45564642Y-69071295D01*
X45564642Y-69071295D02*
X45564642Y-69214152D01*
X45564642Y-69214152D02*
X45517023Y-69309390D01*
X45517023Y-69309390D02*
X45469404Y-69357009D01*
X45469404Y-69357009D02*
X45374166Y-69404628D01*
X45374166Y-69404628D02*
X44993214Y-69404628D01*
X45945595Y-68976057D02*
X45993214Y-68928438D01*
X45993214Y-68928438D02*
X46088452Y-68880819D01*
X46088452Y-68880819D02*
X46326547Y-68880819D01*
X46326547Y-68880819D02*
X46421785Y-68928438D01*
X46421785Y-68928438D02*
X46469404Y-68976057D01*
X46469404Y-68976057D02*
X46517023Y-69071295D01*
X46517023Y-69071295D02*
X46517023Y-69166533D01*
X46517023Y-69166533D02*
X46469404Y-69309390D01*
X46469404Y-69309390D02*
X45897976Y-69880819D01*
X45897976Y-69880819D02*
X46517023Y-69880819D01*
X47374166Y-68880819D02*
X47183690Y-68880819D01*
X47183690Y-68880819D02*
X47088452Y-68928438D01*
X47088452Y-68928438D02*
X47040833Y-68976057D01*
X47040833Y-68976057D02*
X46945595Y-69118914D01*
X46945595Y-69118914D02*
X46897976Y-69309390D01*
X46897976Y-69309390D02*
X46897976Y-69690342D01*
X46897976Y-69690342D02*
X46945595Y-69785580D01*
X46945595Y-69785580D02*
X46993214Y-69833200D01*
X46993214Y-69833200D02*
X47088452Y-69880819D01*
X47088452Y-69880819D02*
X47278928Y-69880819D01*
X47278928Y-69880819D02*
X47374166Y-69833200D01*
X47374166Y-69833200D02*
X47421785Y-69785580D01*
X47421785Y-69785580D02*
X47469404Y-69690342D01*
X47469404Y-69690342D02*
X47469404Y-69452247D01*
X47469404Y-69452247D02*
X47421785Y-69357009D01*
X47421785Y-69357009D02*
X47374166Y-69309390D01*
X47374166Y-69309390D02*
X47278928Y-69261771D01*
X47278928Y-69261771D02*
X47088452Y-69261771D01*
X47088452Y-69261771D02*
X46993214Y-69309390D01*
X46993214Y-69309390D02*
X46945595Y-69357009D01*
X46945595Y-69357009D02*
X46897976Y-69452247D01*
X67124819Y-129109104D02*
X67934342Y-129109104D01*
X67934342Y-129109104D02*
X68029580Y-129061485D01*
X68029580Y-129061485D02*
X68077200Y-129013866D01*
X68077200Y-129013866D02*
X68124819Y-128918628D01*
X68124819Y-128918628D02*
X68124819Y-128728152D01*
X68124819Y-128728152D02*
X68077200Y-128632914D01*
X68077200Y-128632914D02*
X68029580Y-128585295D01*
X68029580Y-128585295D02*
X67934342Y-128537676D01*
X67934342Y-128537676D02*
X67124819Y-128537676D01*
X67124819Y-128156723D02*
X67124819Y-127490057D01*
X67124819Y-127490057D02*
X68124819Y-127918628D01*
X64523819Y-129966449D02*
X64761914Y-129966449D01*
X64666676Y-130204544D02*
X64761914Y-129966449D01*
X64761914Y-129966449D02*
X64666676Y-129728354D01*
X64952390Y-130109306D02*
X64761914Y-129966449D01*
X64761914Y-129966449D02*
X64952390Y-129823592D01*
X64523819Y-129966449D02*
X64761914Y-129966449D01*
X64666676Y-130204544D02*
X64761914Y-129966449D01*
X64761914Y-129966449D02*
X64666676Y-129728354D01*
X64952390Y-130109306D02*
X64761914Y-129966449D01*
X64761914Y-129966449D02*
X64952390Y-129823592D01*
X78892619Y-117311557D02*
X78416428Y-117644890D01*
X78892619Y-117882985D02*
X77892619Y-117882985D01*
X77892619Y-117882985D02*
X77892619Y-117502033D01*
X77892619Y-117502033D02*
X77940238Y-117406795D01*
X77940238Y-117406795D02*
X77987857Y-117359176D01*
X77987857Y-117359176D02*
X78083095Y-117311557D01*
X78083095Y-117311557D02*
X78225952Y-117311557D01*
X78225952Y-117311557D02*
X78321190Y-117359176D01*
X78321190Y-117359176D02*
X78368809Y-117406795D01*
X78368809Y-117406795D02*
X78416428Y-117502033D01*
X78416428Y-117502033D02*
X78416428Y-117882985D01*
X77987857Y-116930604D02*
X77940238Y-116882985D01*
X77940238Y-116882985D02*
X77892619Y-116787747D01*
X77892619Y-116787747D02*
X77892619Y-116549652D01*
X77892619Y-116549652D02*
X77940238Y-116454414D01*
X77940238Y-116454414D02*
X77987857Y-116406795D01*
X77987857Y-116406795D02*
X78083095Y-116359176D01*
X78083095Y-116359176D02*
X78178333Y-116359176D01*
X78178333Y-116359176D02*
X78321190Y-116406795D01*
X78321190Y-116406795D02*
X78892619Y-116978223D01*
X78892619Y-116978223D02*
X78892619Y-116359176D01*
X78892619Y-115882985D02*
X78892619Y-115692509D01*
X78892619Y-115692509D02*
X78845000Y-115597271D01*
X78845000Y-115597271D02*
X78797380Y-115549652D01*
X78797380Y-115549652D02*
X78654523Y-115454414D01*
X78654523Y-115454414D02*
X78464047Y-115406795D01*
X78464047Y-115406795D02*
X78083095Y-115406795D01*
X78083095Y-115406795D02*
X77987857Y-115454414D01*
X77987857Y-115454414D02*
X77940238Y-115502033D01*
X77940238Y-115502033D02*
X77892619Y-115597271D01*
X77892619Y-115597271D02*
X77892619Y-115787747D01*
X77892619Y-115787747D02*
X77940238Y-115882985D01*
X77940238Y-115882985D02*
X77987857Y-115930604D01*
X77987857Y-115930604D02*
X78083095Y-115978223D01*
X78083095Y-115978223D02*
X78321190Y-115978223D01*
X78321190Y-115978223D02*
X78416428Y-115930604D01*
X78416428Y-115930604D02*
X78464047Y-115882985D01*
X78464047Y-115882985D02*
X78511666Y-115787747D01*
X78511666Y-115787747D02*
X78511666Y-115597271D01*
X78511666Y-115597271D02*
X78464047Y-115502033D01*
X78464047Y-115502033D02*
X78416428Y-115454414D01*
X78416428Y-115454414D02*
X78321190Y-115406795D01*
X126979580Y-112052706D02*
X127027200Y-112100325D01*
X127027200Y-112100325D02*
X127074819Y-112243182D01*
X127074819Y-112243182D02*
X127074819Y-112338420D01*
X127074819Y-112338420D02*
X127027200Y-112481277D01*
X127027200Y-112481277D02*
X126931961Y-112576515D01*
X126931961Y-112576515D02*
X126836723Y-112624134D01*
X126836723Y-112624134D02*
X126646247Y-112671753D01*
X126646247Y-112671753D02*
X126503390Y-112671753D01*
X126503390Y-112671753D02*
X126312914Y-112624134D01*
X126312914Y-112624134D02*
X126217676Y-112576515D01*
X126217676Y-112576515D02*
X126122438Y-112481277D01*
X126122438Y-112481277D02*
X126074819Y-112338420D01*
X126074819Y-112338420D02*
X126074819Y-112243182D01*
X126074819Y-112243182D02*
X126122438Y-112100325D01*
X126122438Y-112100325D02*
X126170057Y-112052706D01*
X127074819Y-111100325D02*
X127074819Y-111671753D01*
X127074819Y-111386039D02*
X126074819Y-111386039D01*
X126074819Y-111386039D02*
X126217676Y-111481277D01*
X126217676Y-111481277D02*
X126312914Y-111576515D01*
X126312914Y-111576515D02*
X126360533Y-111671753D01*
X126074819Y-110195563D02*
X126074819Y-110671753D01*
X126074819Y-110671753D02*
X126551009Y-110719372D01*
X126551009Y-110719372D02*
X126503390Y-110671753D01*
X126503390Y-110671753D02*
X126455771Y-110576515D01*
X126455771Y-110576515D02*
X126455771Y-110338420D01*
X126455771Y-110338420D02*
X126503390Y-110243182D01*
X126503390Y-110243182D02*
X126551009Y-110195563D01*
X126551009Y-110195563D02*
X126646247Y-110147944D01*
X126646247Y-110147944D02*
X126884342Y-110147944D01*
X126884342Y-110147944D02*
X126979580Y-110195563D01*
X126979580Y-110195563D02*
X127027200Y-110243182D01*
X127027200Y-110243182D02*
X127074819Y-110338420D01*
X127074819Y-110338420D02*
X127074819Y-110576515D01*
X127074819Y-110576515D02*
X127027200Y-110671753D01*
X127027200Y-110671753D02*
X126979580Y-110719372D01*
X133799167Y-129717000D02*
X133942024Y-129764619D01*
X133942024Y-129764619D02*
X134180119Y-129764619D01*
X134180119Y-129764619D02*
X134275357Y-129717000D01*
X134275357Y-129717000D02*
X134322976Y-129669380D01*
X134322976Y-129669380D02*
X134370595Y-129574142D01*
X134370595Y-129574142D02*
X134370595Y-129478904D01*
X134370595Y-129478904D02*
X134322976Y-129383666D01*
X134322976Y-129383666D02*
X134275357Y-129336047D01*
X134275357Y-129336047D02*
X134180119Y-129288428D01*
X134180119Y-129288428D02*
X133989643Y-129240809D01*
X133989643Y-129240809D02*
X133894405Y-129193190D01*
X133894405Y-129193190D02*
X133846786Y-129145571D01*
X133846786Y-129145571D02*
X133799167Y-129050333D01*
X133799167Y-129050333D02*
X133799167Y-128955095D01*
X133799167Y-128955095D02*
X133846786Y-128859857D01*
X133846786Y-128859857D02*
X133894405Y-128812238D01*
X133894405Y-128812238D02*
X133989643Y-128764619D01*
X133989643Y-128764619D02*
X134227738Y-128764619D01*
X134227738Y-128764619D02*
X134370595Y-128812238D01*
X134703929Y-128764619D02*
X134942024Y-129764619D01*
X134942024Y-129764619D02*
X135132500Y-129050333D01*
X135132500Y-129050333D02*
X135322976Y-129764619D01*
X135322976Y-129764619D02*
X135561072Y-128764619D01*
X136465833Y-129764619D02*
X135894405Y-129764619D01*
X136180119Y-129764619D02*
X136180119Y-128764619D01*
X136180119Y-128764619D02*
X136084881Y-128907476D01*
X136084881Y-128907476D02*
X135989643Y-129002714D01*
X135989643Y-129002714D02*
X135894405Y-129050333D01*
X175011905Y-82577319D02*
X175011905Y-83386842D01*
X175011905Y-83386842D02*
X175059524Y-83482080D01*
X175059524Y-83482080D02*
X175107143Y-83529700D01*
X175107143Y-83529700D02*
X175202381Y-83577319D01*
X175202381Y-83577319D02*
X175392857Y-83577319D01*
X175392857Y-83577319D02*
X175488095Y-83529700D01*
X175488095Y-83529700D02*
X175535714Y-83482080D01*
X175535714Y-83482080D02*
X175583333Y-83386842D01*
X175583333Y-83386842D02*
X175583333Y-82577319D01*
X176583333Y-83577319D02*
X176011905Y-83577319D01*
X176297619Y-83577319D02*
X176297619Y-82577319D01*
X176297619Y-82577319D02*
X176202381Y-82720176D01*
X176202381Y-82720176D02*
X176107143Y-82815414D01*
X176107143Y-82815414D02*
X176011905Y-82863033D01*
X177535714Y-83577319D02*
X176964286Y-83577319D01*
X177250000Y-83577319D02*
X177250000Y-82577319D01*
X177250000Y-82577319D02*
X177154762Y-82720176D01*
X177154762Y-82720176D02*
X177059524Y-82815414D01*
X177059524Y-82815414D02*
X176964286Y-82863033D01*
X151479580Y-128080357D02*
X151527200Y-128127976D01*
X151527200Y-128127976D02*
X151574819Y-128270833D01*
X151574819Y-128270833D02*
X151574819Y-128366071D01*
X151574819Y-128366071D02*
X151527200Y-128508928D01*
X151527200Y-128508928D02*
X151431961Y-128604166D01*
X151431961Y-128604166D02*
X151336723Y-128651785D01*
X151336723Y-128651785D02*
X151146247Y-128699404D01*
X151146247Y-128699404D02*
X151003390Y-128699404D01*
X151003390Y-128699404D02*
X150812914Y-128651785D01*
X150812914Y-128651785D02*
X150717676Y-128604166D01*
X150717676Y-128604166D02*
X150622438Y-128508928D01*
X150622438Y-128508928D02*
X150574819Y-128366071D01*
X150574819Y-128366071D02*
X150574819Y-128270833D01*
X150574819Y-128270833D02*
X150622438Y-128127976D01*
X150622438Y-128127976D02*
X150670057Y-128080357D01*
X151574819Y-127127976D02*
X151574819Y-127699404D01*
X151574819Y-127413690D02*
X150574819Y-127413690D01*
X150574819Y-127413690D02*
X150717676Y-127508928D01*
X150717676Y-127508928D02*
X150812914Y-127604166D01*
X150812914Y-127604166D02*
X150860533Y-127699404D01*
X150670057Y-126747023D02*
X150622438Y-126699404D01*
X150622438Y-126699404D02*
X150574819Y-126604166D01*
X150574819Y-126604166D02*
X150574819Y-126366071D01*
X150574819Y-126366071D02*
X150622438Y-126270833D01*
X150622438Y-126270833D02*
X150670057Y-126223214D01*
X150670057Y-126223214D02*
X150765295Y-126175595D01*
X150765295Y-126175595D02*
X150860533Y-126175595D01*
X150860533Y-126175595D02*
X151003390Y-126223214D01*
X151003390Y-126223214D02*
X151574819Y-126794642D01*
X151574819Y-126794642D02*
X151574819Y-126175595D01*
X201114819Y-89164404D02*
X201924342Y-89164404D01*
X201924342Y-89164404D02*
X202019580Y-89116785D01*
X202019580Y-89116785D02*
X202067200Y-89069166D01*
X202067200Y-89069166D02*
X202114819Y-88973928D01*
X202114819Y-88973928D02*
X202114819Y-88783452D01*
X202114819Y-88783452D02*
X202067200Y-88688214D01*
X202067200Y-88688214D02*
X202019580Y-88640595D01*
X202019580Y-88640595D02*
X201924342Y-88592976D01*
X201924342Y-88592976D02*
X201114819Y-88592976D01*
X201114819Y-88212023D02*
X201114819Y-87592976D01*
X201114819Y-87592976D02*
X201495771Y-87926309D01*
X201495771Y-87926309D02*
X201495771Y-87783452D01*
X201495771Y-87783452D02*
X201543390Y-87688214D01*
X201543390Y-87688214D02*
X201591009Y-87640595D01*
X201591009Y-87640595D02*
X201686247Y-87592976D01*
X201686247Y-87592976D02*
X201924342Y-87592976D01*
X201924342Y-87592976D02*
X202019580Y-87640595D01*
X202019580Y-87640595D02*
X202067200Y-87688214D01*
X202067200Y-87688214D02*
X202114819Y-87783452D01*
X202114819Y-87783452D02*
X202114819Y-88069166D01*
X202114819Y-88069166D02*
X202067200Y-88164404D01*
X202067200Y-88164404D02*
X202019580Y-88212023D01*
X95477142Y-97237319D02*
X95143809Y-96761128D01*
X94905714Y-97237319D02*
X94905714Y-96237319D01*
X94905714Y-96237319D02*
X95286666Y-96237319D01*
X95286666Y-96237319D02*
X95381904Y-96284938D01*
X95381904Y-96284938D02*
X95429523Y-96332557D01*
X95429523Y-96332557D02*
X95477142Y-96427795D01*
X95477142Y-96427795D02*
X95477142Y-96570652D01*
X95477142Y-96570652D02*
X95429523Y-96665890D01*
X95429523Y-96665890D02*
X95381904Y-96713509D01*
X95381904Y-96713509D02*
X95286666Y-96761128D01*
X95286666Y-96761128D02*
X94905714Y-96761128D01*
X96429523Y-97237319D02*
X95858095Y-97237319D01*
X96143809Y-97237319D02*
X96143809Y-96237319D01*
X96143809Y-96237319D02*
X96048571Y-96380176D01*
X96048571Y-96380176D02*
X95953333Y-96475414D01*
X95953333Y-96475414D02*
X95858095Y-96523033D01*
X96905714Y-97237319D02*
X97096190Y-97237319D01*
X97096190Y-97237319D02*
X97191428Y-97189700D01*
X97191428Y-97189700D02*
X97239047Y-97142080D01*
X97239047Y-97142080D02*
X97334285Y-96999223D01*
X97334285Y-96999223D02*
X97381904Y-96808747D01*
X97381904Y-96808747D02*
X97381904Y-96427795D01*
X97381904Y-96427795D02*
X97334285Y-96332557D01*
X97334285Y-96332557D02*
X97286666Y-96284938D01*
X97286666Y-96284938D02*
X97191428Y-96237319D01*
X97191428Y-96237319D02*
X97000952Y-96237319D01*
X97000952Y-96237319D02*
X96905714Y-96284938D01*
X96905714Y-96284938D02*
X96858095Y-96332557D01*
X96858095Y-96332557D02*
X96810476Y-96427795D01*
X96810476Y-96427795D02*
X96810476Y-96665890D01*
X96810476Y-96665890D02*
X96858095Y-96761128D01*
X96858095Y-96761128D02*
X96905714Y-96808747D01*
X96905714Y-96808747D02*
X97000952Y-96856366D01*
X97000952Y-96856366D02*
X97191428Y-96856366D01*
X97191428Y-96856366D02*
X97286666Y-96808747D01*
X97286666Y-96808747D02*
X97334285Y-96761128D01*
X97334285Y-96761128D02*
X97381904Y-96665890D01*
X152514819Y-115545833D02*
X153229104Y-115545833D01*
X153229104Y-115545833D02*
X153371961Y-115593452D01*
X153371961Y-115593452D02*
X153467200Y-115688690D01*
X153467200Y-115688690D02*
X153514819Y-115831547D01*
X153514819Y-115831547D02*
X153514819Y-115926785D01*
X152610057Y-115117261D02*
X152562438Y-115069642D01*
X152562438Y-115069642D02*
X152514819Y-114974404D01*
X152514819Y-114974404D02*
X152514819Y-114736309D01*
X152514819Y-114736309D02*
X152562438Y-114641071D01*
X152562438Y-114641071D02*
X152610057Y-114593452D01*
X152610057Y-114593452D02*
X152705295Y-114545833D01*
X152705295Y-114545833D02*
X152800533Y-114545833D01*
X152800533Y-114545833D02*
X152943390Y-114593452D01*
X152943390Y-114593452D02*
X153514819Y-115164880D01*
X153514819Y-115164880D02*
X153514819Y-114545833D01*
X122477142Y-97237319D02*
X122143809Y-96761128D01*
X121905714Y-97237319D02*
X121905714Y-96237319D01*
X121905714Y-96237319D02*
X122286666Y-96237319D01*
X122286666Y-96237319D02*
X122381904Y-96284938D01*
X122381904Y-96284938D02*
X122429523Y-96332557D01*
X122429523Y-96332557D02*
X122477142Y-96427795D01*
X122477142Y-96427795D02*
X122477142Y-96570652D01*
X122477142Y-96570652D02*
X122429523Y-96665890D01*
X122429523Y-96665890D02*
X122381904Y-96713509D01*
X122381904Y-96713509D02*
X122286666Y-96761128D01*
X122286666Y-96761128D02*
X121905714Y-96761128D01*
X123429523Y-97237319D02*
X122858095Y-97237319D01*
X123143809Y-97237319D02*
X123143809Y-96237319D01*
X123143809Y-96237319D02*
X123048571Y-96380176D01*
X123048571Y-96380176D02*
X122953333Y-96475414D01*
X122953333Y-96475414D02*
X122858095Y-96523033D01*
X124334285Y-96237319D02*
X123858095Y-96237319D01*
X123858095Y-96237319D02*
X123810476Y-96713509D01*
X123810476Y-96713509D02*
X123858095Y-96665890D01*
X123858095Y-96665890D02*
X123953333Y-96618271D01*
X123953333Y-96618271D02*
X124191428Y-96618271D01*
X124191428Y-96618271D02*
X124286666Y-96665890D01*
X124286666Y-96665890D02*
X124334285Y-96713509D01*
X124334285Y-96713509D02*
X124381904Y-96808747D01*
X124381904Y-96808747D02*
X124381904Y-97046842D01*
X124381904Y-97046842D02*
X124334285Y-97142080D01*
X124334285Y-97142080D02*
X124286666Y-97189700D01*
X124286666Y-97189700D02*
X124191428Y-97237319D01*
X124191428Y-97237319D02*
X123953333Y-97237319D01*
X123953333Y-97237319D02*
X123858095Y-97189700D01*
X123858095Y-97189700D02*
X123810476Y-97142080D01*
X103210057Y-93862738D02*
X103162438Y-93957976D01*
X103162438Y-93957976D02*
X103067200Y-94053214D01*
X103067200Y-94053214D02*
X102924342Y-94196071D01*
X102924342Y-94196071D02*
X102876723Y-94291309D01*
X102876723Y-94291309D02*
X102876723Y-94386547D01*
X103114819Y-94338928D02*
X103067200Y-94434166D01*
X103067200Y-94434166D02*
X102971961Y-94529404D01*
X102971961Y-94529404D02*
X102781485Y-94577023D01*
X102781485Y-94577023D02*
X102448152Y-94577023D01*
X102448152Y-94577023D02*
X102257676Y-94529404D01*
X102257676Y-94529404D02*
X102162438Y-94434166D01*
X102162438Y-94434166D02*
X102114819Y-94338928D01*
X102114819Y-94338928D02*
X102114819Y-94148452D01*
X102114819Y-94148452D02*
X102162438Y-94053214D01*
X102162438Y-94053214D02*
X102257676Y-93957976D01*
X102257676Y-93957976D02*
X102448152Y-93910357D01*
X102448152Y-93910357D02*
X102781485Y-93910357D01*
X102781485Y-93910357D02*
X102971961Y-93957976D01*
X102971961Y-93957976D02*
X103067200Y-94053214D01*
X103067200Y-94053214D02*
X103114819Y-94148452D01*
X103114819Y-94148452D02*
X103114819Y-94338928D01*
X102448152Y-93053214D02*
X103114819Y-93053214D01*
X102067200Y-93291309D02*
X102781485Y-93529404D01*
X102781485Y-93529404D02*
X102781485Y-92910357D01*
X45564642Y-55750419D02*
X45231309Y-55274228D01*
X44993214Y-55750419D02*
X44993214Y-54750419D01*
X44993214Y-54750419D02*
X45374166Y-54750419D01*
X45374166Y-54750419D02*
X45469404Y-54798038D01*
X45469404Y-54798038D02*
X45517023Y-54845657D01*
X45517023Y-54845657D02*
X45564642Y-54940895D01*
X45564642Y-54940895D02*
X45564642Y-55083752D01*
X45564642Y-55083752D02*
X45517023Y-55178990D01*
X45517023Y-55178990D02*
X45469404Y-55226609D01*
X45469404Y-55226609D02*
X45374166Y-55274228D01*
X45374166Y-55274228D02*
X44993214Y-55274228D01*
X45945595Y-54845657D02*
X45993214Y-54798038D01*
X45993214Y-54798038D02*
X46088452Y-54750419D01*
X46088452Y-54750419D02*
X46326547Y-54750419D01*
X46326547Y-54750419D02*
X46421785Y-54798038D01*
X46421785Y-54798038D02*
X46469404Y-54845657D01*
X46469404Y-54845657D02*
X46517023Y-54940895D01*
X46517023Y-54940895D02*
X46517023Y-55036133D01*
X46517023Y-55036133D02*
X46469404Y-55178990D01*
X46469404Y-55178990D02*
X45897976Y-55750419D01*
X45897976Y-55750419D02*
X46517023Y-55750419D01*
X47136071Y-54750419D02*
X47231309Y-54750419D01*
X47231309Y-54750419D02*
X47326547Y-54798038D01*
X47326547Y-54798038D02*
X47374166Y-54845657D01*
X47374166Y-54845657D02*
X47421785Y-54940895D01*
X47421785Y-54940895D02*
X47469404Y-55131371D01*
X47469404Y-55131371D02*
X47469404Y-55369466D01*
X47469404Y-55369466D02*
X47421785Y-55559942D01*
X47421785Y-55559942D02*
X47374166Y-55655180D01*
X47374166Y-55655180D02*
X47326547Y-55702800D01*
X47326547Y-55702800D02*
X47231309Y-55750419D01*
X47231309Y-55750419D02*
X47136071Y-55750419D01*
X47136071Y-55750419D02*
X47040833Y-55702800D01*
X47040833Y-55702800D02*
X46993214Y-55655180D01*
X46993214Y-55655180D02*
X46945595Y-55559942D01*
X46945595Y-55559942D02*
X46897976Y-55369466D01*
X46897976Y-55369466D02*
X46897976Y-55131371D01*
X46897976Y-55131371D02*
X46945595Y-54940895D01*
X46945595Y-54940895D02*
X46993214Y-54845657D01*
X46993214Y-54845657D02*
X47040833Y-54798038D01*
X47040833Y-54798038D02*
X47136071Y-54750419D01*
X136643809Y-113691128D02*
X136643809Y-114167319D01*
X136310476Y-113167319D02*
X136643809Y-113691128D01*
X136643809Y-113691128D02*
X136977142Y-113167319D01*
X137834285Y-114167319D02*
X137262857Y-114167319D01*
X137548571Y-114167319D02*
X137548571Y-113167319D01*
X137548571Y-113167319D02*
X137453333Y-113310176D01*
X137453333Y-113310176D02*
X137358095Y-113405414D01*
X137358095Y-113405414D02*
X137262857Y-113453033D01*
X77250057Y-93862738D02*
X77202438Y-93957976D01*
X77202438Y-93957976D02*
X77107200Y-94053214D01*
X77107200Y-94053214D02*
X76964342Y-94196071D01*
X76964342Y-94196071D02*
X76916723Y-94291309D01*
X76916723Y-94291309D02*
X76916723Y-94386547D01*
X77154819Y-94338928D02*
X77107200Y-94434166D01*
X77107200Y-94434166D02*
X77011961Y-94529404D01*
X77011961Y-94529404D02*
X76821485Y-94577023D01*
X76821485Y-94577023D02*
X76488152Y-94577023D01*
X76488152Y-94577023D02*
X76297676Y-94529404D01*
X76297676Y-94529404D02*
X76202438Y-94434166D01*
X76202438Y-94434166D02*
X76154819Y-94338928D01*
X76154819Y-94338928D02*
X76154819Y-94148452D01*
X76154819Y-94148452D02*
X76202438Y-94053214D01*
X76202438Y-94053214D02*
X76297676Y-93957976D01*
X76297676Y-93957976D02*
X76488152Y-93910357D01*
X76488152Y-93910357D02*
X76821485Y-93910357D01*
X76821485Y-93910357D02*
X77011961Y-93957976D01*
X77011961Y-93957976D02*
X77107200Y-94053214D01*
X77107200Y-94053214D02*
X77154819Y-94148452D01*
X77154819Y-94148452D02*
X77154819Y-94338928D01*
X76154819Y-93053214D02*
X76154819Y-93243690D01*
X76154819Y-93243690D02*
X76202438Y-93338928D01*
X76202438Y-93338928D02*
X76250057Y-93386547D01*
X76250057Y-93386547D02*
X76392914Y-93481785D01*
X76392914Y-93481785D02*
X76583390Y-93529404D01*
X76583390Y-93529404D02*
X76964342Y-93529404D01*
X76964342Y-93529404D02*
X77059580Y-93481785D01*
X77059580Y-93481785D02*
X77107200Y-93434166D01*
X77107200Y-93434166D02*
X77154819Y-93338928D01*
X77154819Y-93338928D02*
X77154819Y-93148452D01*
X77154819Y-93148452D02*
X77107200Y-93053214D01*
X77107200Y-93053214D02*
X77059580Y-93005595D01*
X77059580Y-93005595D02*
X76964342Y-92957976D01*
X76964342Y-92957976D02*
X76726247Y-92957976D01*
X76726247Y-92957976D02*
X76631009Y-93005595D01*
X76631009Y-93005595D02*
X76583390Y-93053214D01*
X76583390Y-93053214D02*
X76535771Y-93148452D01*
X76535771Y-93148452D02*
X76535771Y-93338928D01*
X76535771Y-93338928D02*
X76583390Y-93434166D01*
X76583390Y-93434166D02*
X76631009Y-93481785D01*
X76631009Y-93481785D02*
X76726247Y-93529404D01*
X155479580Y-127104166D02*
X155527200Y-127151785D01*
X155527200Y-127151785D02*
X155574819Y-127294642D01*
X155574819Y-127294642D02*
X155574819Y-127389880D01*
X155574819Y-127389880D02*
X155527200Y-127532737D01*
X155527200Y-127532737D02*
X155431961Y-127627975D01*
X155431961Y-127627975D02*
X155336723Y-127675594D01*
X155336723Y-127675594D02*
X155146247Y-127723213D01*
X155146247Y-127723213D02*
X155003390Y-127723213D01*
X155003390Y-127723213D02*
X154812914Y-127675594D01*
X154812914Y-127675594D02*
X154717676Y-127627975D01*
X154717676Y-127627975D02*
X154622438Y-127532737D01*
X154622438Y-127532737D02*
X154574819Y-127389880D01*
X154574819Y-127389880D02*
X154574819Y-127294642D01*
X154574819Y-127294642D02*
X154622438Y-127151785D01*
X154622438Y-127151785D02*
X154670057Y-127104166D01*
X154670057Y-126723213D02*
X154622438Y-126675594D01*
X154622438Y-126675594D02*
X154574819Y-126580356D01*
X154574819Y-126580356D02*
X154574819Y-126342261D01*
X154574819Y-126342261D02*
X154622438Y-126247023D01*
X154622438Y-126247023D02*
X154670057Y-126199404D01*
X154670057Y-126199404D02*
X154765295Y-126151785D01*
X154765295Y-126151785D02*
X154860533Y-126151785D01*
X154860533Y-126151785D02*
X155003390Y-126199404D01*
X155003390Y-126199404D02*
X155574819Y-126770832D01*
X155574819Y-126770832D02*
X155574819Y-126151785D01*
X76510019Y-116047257D02*
X76033828Y-116380590D01*
X76510019Y-116618685D02*
X75510019Y-116618685D01*
X75510019Y-116618685D02*
X75510019Y-116237733D01*
X75510019Y-116237733D02*
X75557638Y-116142495D01*
X75557638Y-116142495D02*
X75605257Y-116094876D01*
X75605257Y-116094876D02*
X75700495Y-116047257D01*
X75700495Y-116047257D02*
X75843352Y-116047257D01*
X75843352Y-116047257D02*
X75938590Y-116094876D01*
X75938590Y-116094876D02*
X75986209Y-116142495D01*
X75986209Y-116142495D02*
X76033828Y-116237733D01*
X76033828Y-116237733D02*
X76033828Y-116618685D01*
X75510019Y-115713923D02*
X75510019Y-115094876D01*
X75510019Y-115094876D02*
X75890971Y-115428209D01*
X75890971Y-115428209D02*
X75890971Y-115285352D01*
X75890971Y-115285352D02*
X75938590Y-115190114D01*
X75938590Y-115190114D02*
X75986209Y-115142495D01*
X75986209Y-115142495D02*
X76081447Y-115094876D01*
X76081447Y-115094876D02*
X76319542Y-115094876D01*
X76319542Y-115094876D02*
X76414780Y-115142495D01*
X76414780Y-115142495D02*
X76462400Y-115190114D01*
X76462400Y-115190114D02*
X76510019Y-115285352D01*
X76510019Y-115285352D02*
X76510019Y-115571066D01*
X76510019Y-115571066D02*
X76462400Y-115666304D01*
X76462400Y-115666304D02*
X76414780Y-115713923D01*
X75510019Y-114475828D02*
X75510019Y-114380590D01*
X75510019Y-114380590D02*
X75557638Y-114285352D01*
X75557638Y-114285352D02*
X75605257Y-114237733D01*
X75605257Y-114237733D02*
X75700495Y-114190114D01*
X75700495Y-114190114D02*
X75890971Y-114142495D01*
X75890971Y-114142495D02*
X76129066Y-114142495D01*
X76129066Y-114142495D02*
X76319542Y-114190114D01*
X76319542Y-114190114D02*
X76414780Y-114237733D01*
X76414780Y-114237733D02*
X76462400Y-114285352D01*
X76462400Y-114285352D02*
X76510019Y-114380590D01*
X76510019Y-114380590D02*
X76510019Y-114475828D01*
X76510019Y-114475828D02*
X76462400Y-114571066D01*
X76462400Y-114571066D02*
X76414780Y-114618685D01*
X76414780Y-114618685D02*
X76319542Y-114666304D01*
X76319542Y-114666304D02*
X76129066Y-114713923D01*
X76129066Y-114713923D02*
X75890971Y-114713923D01*
X75890971Y-114713923D02*
X75700495Y-114666304D01*
X75700495Y-114666304D02*
X75605257Y-114618685D01*
X75605257Y-114618685D02*
X75557638Y-114571066D01*
X75557638Y-114571066D02*
X75510019Y-114475828D01*
X153479580Y-128080357D02*
X153527200Y-128127976D01*
X153527200Y-128127976D02*
X153574819Y-128270833D01*
X153574819Y-128270833D02*
X153574819Y-128366071D01*
X153574819Y-128366071D02*
X153527200Y-128508928D01*
X153527200Y-128508928D02*
X153431961Y-128604166D01*
X153431961Y-128604166D02*
X153336723Y-128651785D01*
X153336723Y-128651785D02*
X153146247Y-128699404D01*
X153146247Y-128699404D02*
X153003390Y-128699404D01*
X153003390Y-128699404D02*
X152812914Y-128651785D01*
X152812914Y-128651785D02*
X152717676Y-128604166D01*
X152717676Y-128604166D02*
X152622438Y-128508928D01*
X152622438Y-128508928D02*
X152574819Y-128366071D01*
X152574819Y-128366071D02*
X152574819Y-128270833D01*
X152574819Y-128270833D02*
X152622438Y-128127976D01*
X152622438Y-128127976D02*
X152670057Y-128080357D01*
X153574819Y-127127976D02*
X153574819Y-127699404D01*
X153574819Y-127413690D02*
X152574819Y-127413690D01*
X152574819Y-127413690D02*
X152717676Y-127508928D01*
X152717676Y-127508928D02*
X152812914Y-127604166D01*
X152812914Y-127604166D02*
X152860533Y-127699404D01*
X152574819Y-126794642D02*
X152574819Y-126175595D01*
X152574819Y-126175595D02*
X152955771Y-126508928D01*
X152955771Y-126508928D02*
X152955771Y-126366071D01*
X152955771Y-126366071D02*
X153003390Y-126270833D01*
X153003390Y-126270833D02*
X153051009Y-126223214D01*
X153051009Y-126223214D02*
X153146247Y-126175595D01*
X153146247Y-126175595D02*
X153384342Y-126175595D01*
X153384342Y-126175595D02*
X153479580Y-126223214D01*
X153479580Y-126223214D02*
X153527200Y-126270833D01*
X153527200Y-126270833D02*
X153574819Y-126366071D01*
X153574819Y-126366071D02*
X153574819Y-126651785D01*
X153574819Y-126651785D02*
X153527200Y-126747023D01*
X153527200Y-126747023D02*
X153479580Y-126794642D01*
D11*
%TO.C,L2*%
X185060000Y-143652500D02*
X185060000Y-145772500D01*
X187120000Y-143652500D02*
X185060000Y-143652500D01*
X187120000Y-143652500D02*
X187120000Y-145772500D01*
X187120000Y-145772500D02*
X185060000Y-145772500D01*
X188120000Y-143652500D02*
X189180000Y-143652500D01*
X189180000Y-143652500D02*
X189180000Y-144712500D01*
%TO.C,R11*%
X146097500Y-142045276D02*
X146097500Y-142554724D01*
X147142500Y-142045276D02*
X147142500Y-142554724D01*
%TO.C,R1*%
X57234200Y-126512776D02*
X57234200Y-127022224D01*
X58279200Y-126512776D02*
X58279200Y-127022224D01*
%TO.C,Q9*%
X118000000Y-96037500D02*
X118000000Y-91396500D01*
X121269000Y-96037500D02*
X121269000Y-94527500D01*
X124970000Y-96037500D02*
X124970000Y-94527500D01*
X128240000Y-91396500D02*
X118000000Y-91396500D01*
X128240000Y-94527500D02*
X118000000Y-94527500D01*
X128240000Y-96037500D02*
X118000000Y-96037500D01*
X128240000Y-96037500D02*
X128240000Y-91396500D01*
%TO.C,C10*%
X202565300Y-140406520D02*
X202565300Y-140687680D01*
X203585300Y-140406520D02*
X203585300Y-140687680D01*
%TO.C,R34*%
X201865276Y-64290000D02*
X202374724Y-64290000D01*
X201865276Y-65335000D02*
X202374724Y-65335000D01*
%TO.C,Q7*%
X52040000Y-96037500D02*
X52040000Y-91396500D01*
X55309000Y-96037500D02*
X55309000Y-94527500D01*
X59010000Y-96037500D02*
X59010000Y-94527500D01*
X62280000Y-91396500D02*
X52040000Y-91396500D01*
X62280000Y-94527500D02*
X52040000Y-94527500D01*
X62280000Y-96037500D02*
X52040000Y-96037500D01*
X62280000Y-96037500D02*
X62280000Y-91396500D01*
%TO.C,C5*%
X59428300Y-127078080D02*
X59428300Y-126796920D01*
X60448300Y-127078080D02*
X60448300Y-126796920D01*
%TO.C,R13*%
X136365276Y-97690000D02*
X136874724Y-97690000D01*
X136365276Y-98735000D02*
X136874724Y-98735000D01*
%TO.C,Q3*%
X104500000Y-96037500D02*
X104500000Y-91396500D01*
X107769000Y-96037500D02*
X107769000Y-94527500D01*
X111470000Y-96037500D02*
X111470000Y-94527500D01*
X114740000Y-91396500D02*
X104500000Y-91396500D01*
X114740000Y-94527500D02*
X104500000Y-94527500D01*
X114740000Y-96037500D02*
X104500000Y-96037500D01*
X114740000Y-96037500D02*
X114740000Y-91396500D01*
%TO.C,Q5*%
X78040000Y-96037500D02*
X78040000Y-91396500D01*
X81309000Y-96037500D02*
X81309000Y-94527500D01*
X85010000Y-96037500D02*
X85010000Y-94527500D01*
X88280000Y-91396500D02*
X78040000Y-91396500D01*
X88280000Y-94527500D02*
X78040000Y-94527500D01*
X88280000Y-96037500D02*
X78040000Y-96037500D01*
X88280000Y-96037500D02*
X88280000Y-91396500D01*
%TO.C,C19*%
X132985580Y-117702500D02*
X132704420Y-117702500D01*
X132985580Y-118722500D02*
X132704420Y-118722500D01*
%TO.C,R3*%
X188777776Y-134690000D02*
X189287224Y-134690000D01*
X188777776Y-135735000D02*
X189287224Y-135735000D01*
%TO.C,R16*%
X46462224Y-43996100D02*
X45952776Y-43996100D01*
X46462224Y-45041100D02*
X45952776Y-45041100D01*
%TO.C,C8*%
X77610000Y-128232180D02*
X77610000Y-127951020D01*
X78630000Y-128232180D02*
X78630000Y-127951020D01*
%TO.C,R22*%
X46462224Y-58016500D02*
X45952776Y-58016500D01*
X46462224Y-59061500D02*
X45952776Y-59061500D01*
%TO.C,M1*%
X207560000Y-136712500D02*
X207560000Y-134652500D01*
X209680000Y-134652500D02*
X207560000Y-134652500D01*
X209680000Y-136712500D02*
X207560000Y-136712500D01*
X209680000Y-136712500D02*
X209680000Y-134652500D01*
X209680000Y-137712500D02*
X209680000Y-138772500D01*
X209680000Y-138772500D02*
X208620000Y-138772500D01*
%TO.C,C9*%
X198645300Y-138150520D02*
X198645300Y-138431680D01*
X199665300Y-138150520D02*
X199665300Y-138431680D01*
%TO.C,R31*%
X137597500Y-109545276D02*
X137597500Y-110054724D01*
X138642500Y-109545276D02*
X138642500Y-110054724D01*
%TO.C,C17*%
X140622500Y-125796920D02*
X140622500Y-126078080D01*
X141642500Y-125796920D02*
X141642500Y-126078080D01*
%TO.C,L1*%
X53610000Y-126549721D02*
X53610000Y-126875279D01*
X54630000Y-126549721D02*
X54630000Y-126875279D01*
%TO.C,C4*%
X61610000Y-127078080D02*
X61610000Y-126796920D01*
X62630000Y-127078080D02*
X62630000Y-126796920D01*
%TO.C,C18*%
X132985580Y-115199800D02*
X132704420Y-115199800D01*
X132985580Y-116219800D02*
X132704420Y-116219800D01*
D12*
%TO.C,D4*%
X139040300Y-112528200D02*
G75*
G02*
X138940300Y-112528200I-50000J0D01*
G01*
X138940300Y-112528200D02*
G75*
G02*
X139040300Y-112528200I50000J0D01*
G01*
D11*
%TO.C,RV1*%
X203430000Y-40477500D02*
X203430000Y-42937500D01*
X203430000Y-44607500D02*
X203430000Y-47067500D01*
X206484000Y-40477500D02*
X203430000Y-40477500D01*
X206484000Y-47067500D02*
X203430000Y-47067500D01*
X207990000Y-42067500D02*
X207990000Y-45477500D01*
%TO.C,U4*%
X203120000Y-135572500D02*
X201120000Y-135572500D01*
X203130000Y-137852500D02*
X201130000Y-137852500D01*
X203490000Y-138062500D02*
X203490000Y-137782500D01*
X203770000Y-137782500D01*
X203490000Y-138062500D01*
G36*
X203490000Y-138062500D02*
G01*
X203490000Y-137782500D01*
X203770000Y-137782500D01*
X203490000Y-138062500D01*
G37*
%TO.C,J1*%
X44560000Y-143272500D02*
X44560000Y-142212500D01*
X45620000Y-143272500D02*
X44560000Y-143272500D01*
X46620000Y-141152500D02*
X48680000Y-141152500D01*
X46620000Y-143272500D02*
X46620000Y-141152500D01*
X46620000Y-143272500D02*
X48680000Y-143272500D01*
X48680000Y-143272500D02*
X48680000Y-141152500D01*
D12*
%TO.C,D5*%
X139670000Y-113727500D02*
G75*
G02*
X139570000Y-113727500I-50000J0D01*
G01*
X139570000Y-113727500D02*
G75*
G02*
X139670000Y-113727500I50000J0D01*
G01*
D11*
%TO.C,C3*%
X53610000Y-122571920D02*
X53610000Y-122853080D01*
X54630000Y-122571920D02*
X54630000Y-122853080D01*
%TO.C,SW3*%
X35720000Y-134112500D02*
X38020000Y-134112500D01*
X35720000Y-135312500D02*
X35720000Y-134112500D01*
X35720000Y-137112500D02*
X35720000Y-137812500D01*
X35720000Y-139612500D02*
X35720000Y-140312500D01*
X35720000Y-143312500D02*
X35720000Y-142112500D01*
X38020000Y-143312500D02*
X35720000Y-143312500D01*
%TO.C,R5*%
X204677500Y-96554724D02*
X204677500Y-96045276D01*
X205722500Y-96554724D02*
X205722500Y-96045276D01*
%TO.C,SW4*%
X148970000Y-141812500D02*
X152270000Y-141812500D01*
X148970000Y-142112500D02*
X148970000Y-141812500D01*
X148970000Y-144312500D02*
X148970000Y-144612500D01*
X148970000Y-144612500D02*
X152270000Y-144612500D01*
X152270000Y-141812500D02*
X152270000Y-142112500D01*
X152270000Y-144612500D02*
X152270000Y-144312500D01*
%TO.C,U1*%
X140885000Y-114924800D02*
X140885000Y-114689800D01*
X140885000Y-121669800D02*
X140885000Y-121194800D01*
X141360000Y-114449800D02*
X141185000Y-114449800D01*
X141360000Y-121669800D02*
X140885000Y-121669800D01*
X147630000Y-114449800D02*
X148105000Y-114449800D01*
X147630000Y-121669800D02*
X148105000Y-121669800D01*
X148105000Y-114449800D02*
X148105000Y-114924800D01*
X148105000Y-121669800D02*
X148105000Y-121194800D01*
X140885000Y-114449800D02*
X140645000Y-114119800D01*
X141125000Y-114119800D01*
X140885000Y-114449800D01*
G36*
X140885000Y-114449800D02*
G01*
X140645000Y-114119800D01*
X141125000Y-114119800D01*
X140885000Y-114449800D01*
G37*
%TO.C,R14*%
X46462224Y-39322700D02*
X45952776Y-39322700D01*
X46462224Y-40367700D02*
X45952776Y-40367700D01*
%TO.C,R2*%
X57244400Y-130187076D02*
X57244400Y-130696524D01*
X58289400Y-130187076D02*
X58289400Y-130696524D01*
%TO.C,C20*%
X136535580Y-120202500D02*
X136254420Y-120202500D01*
X136535580Y-121222500D02*
X136254420Y-121222500D01*
D13*
%TO.C,U5*%
X85034800Y-103899700D02*
X85034800Y-104128300D01*
X85034800Y-114186700D02*
X85034800Y-114415300D01*
X85034800Y-114415300D02*
X88540000Y-114415300D01*
X88540000Y-114415300D02*
X89149600Y-114415300D01*
X89149600Y-114415300D02*
X92654800Y-114415300D01*
X92654800Y-103899700D02*
X85034800Y-103899700D01*
X92654800Y-104128300D02*
X92654800Y-103899700D01*
X92654800Y-114415300D02*
X92654800Y-114186700D01*
X88540000Y-114415300D02*
G75*
G02*
X89149600Y-114415300I304800J0D01*
G01*
D11*
%TO.C,D1*%
X60460000Y-122102500D02*
X60460000Y-124322500D01*
X60460000Y-124322500D02*
X64870000Y-124322500D01*
X64870000Y-122102500D02*
X60460000Y-122102500D01*
%TO.C,R12*%
X155874724Y-142690000D02*
X155365276Y-142690000D01*
X155874724Y-143735000D02*
X155365276Y-143735000D01*
%TO.C,R25*%
X56865276Y-97690000D02*
X57374724Y-97690000D01*
X56865276Y-98735000D02*
X57374724Y-98735000D01*
%TO.C,R6*%
X182993000Y-80142576D02*
X182993000Y-80652024D01*
X184038000Y-80142576D02*
X184038000Y-80652024D01*
%TO.C,L3*%
X142622500Y-126162779D02*
X142622500Y-125837221D01*
X143642500Y-126162779D02*
X143642500Y-125837221D01*
%TO.C,R7*%
X193637500Y-87545276D02*
X193637500Y-88054724D01*
X194682500Y-87545276D02*
X194682500Y-88054724D01*
%TO.C,Q2*%
X131500000Y-96037500D02*
X131500000Y-91396500D01*
X134769000Y-96037500D02*
X134769000Y-94527500D01*
X138470000Y-96037500D02*
X138470000Y-94527500D01*
X141740000Y-91396500D02*
X131500000Y-91396500D01*
X141740000Y-94527500D02*
X131500000Y-94527500D01*
X141740000Y-96037500D02*
X131500000Y-96037500D01*
X141740000Y-96037500D02*
X141740000Y-91396500D01*
%TO.C,R23*%
X70365276Y-97690000D02*
X70874724Y-97690000D01*
X70365276Y-98735000D02*
X70874724Y-98735000D01*
%TO.C,U10*%
X43020000Y-120237500D02*
X44520000Y-120237500D01*
X43020000Y-130637500D02*
X44520000Y-130637500D01*
X44520000Y-120237500D02*
X44520000Y-121187500D01*
X44520000Y-130637500D02*
X44520000Y-129687500D01*
X47322500Y-130017500D02*
X46842500Y-130017500D01*
X47082500Y-129687500D01*
X47322500Y-130017500D01*
G36*
X47322500Y-130017500D02*
G01*
X46842500Y-130017500D01*
X47082500Y-129687500D01*
X47322500Y-130017500D01*
G37*
%TO.C,R18*%
X46462224Y-48669600D02*
X45952776Y-48669600D01*
X46462224Y-49714600D02*
X45952776Y-49714600D01*
%TO.C,R27*%
X43365276Y-97690000D02*
X43874724Y-97690000D01*
X43365276Y-98735000D02*
X43874724Y-98735000D01*
%TO.C,R24*%
X46462224Y-62690000D02*
X45952776Y-62690000D01*
X46462224Y-63735000D02*
X45952776Y-63735000D01*
%TO.C,R10*%
X72087200Y-127637576D02*
X72087200Y-128147024D01*
X73132200Y-127637576D02*
X73132200Y-128147024D01*
%TO.C,D2*%
X184540000Y-140712500D02*
X185190000Y-140712500D01*
X185190000Y-139592500D02*
X185190000Y-141832500D01*
X185190000Y-141832500D02*
X189430000Y-141832500D01*
X188590000Y-141832500D02*
X188590000Y-139592500D01*
X188710000Y-141832500D02*
X188710000Y-139592500D01*
X188830000Y-141832500D02*
X188830000Y-139592500D01*
X189430000Y-139592500D02*
X185190000Y-139592500D01*
X189430000Y-141832500D02*
X189430000Y-139592500D01*
X190080000Y-140712500D02*
X189430000Y-140712500D01*
%TO.C,R17*%
X109365276Y-97690000D02*
X109874724Y-97690000D01*
X109365276Y-98735000D02*
X109874724Y-98735000D01*
%TO.C,U13*%
X189350000Y-88032500D02*
X189350000Y-86532500D01*
X189350000Y-88032500D02*
X189350000Y-89532500D01*
X192570000Y-88032500D02*
X192570000Y-86532500D01*
X192570000Y-88032500D02*
X192570000Y-89532500D01*
X192775000Y-86060000D02*
X192445000Y-85820000D01*
X192775000Y-85580000D01*
X192775000Y-86060000D01*
G36*
X192775000Y-86060000D02*
G01*
X192445000Y-85820000D01*
X192775000Y-85580000D01*
X192775000Y-86060000D01*
G37*
%TO.C,BZ1*%
X203520000Y-51612500D02*
X206770000Y-51612500D01*
X203520000Y-62812500D02*
X203520000Y-51612500D01*
X206770000Y-62812500D02*
X203520000Y-62812500D01*
X209470000Y-51612500D02*
X212720000Y-51612500D01*
X212720000Y-51612500D02*
X212720000Y-62812500D01*
X212720000Y-62812500D02*
X209470000Y-62812500D01*
%TO.C,R8*%
X74587200Y-128147024D02*
X74587200Y-127637576D01*
X75632200Y-128147024D02*
X75632200Y-127637576D01*
%TO.C,C1*%
X58610000Y-122571920D02*
X58610000Y-122853080D01*
X59630000Y-122571920D02*
X59630000Y-122853080D01*
%TO.C,SW2*%
X146220000Y-107062500D02*
X146220000Y-110362500D01*
X146220000Y-110362500D02*
X146520000Y-110362500D01*
X146520000Y-107062500D02*
X146220000Y-107062500D01*
X148720000Y-107062500D02*
X149020000Y-107062500D01*
X149020000Y-107062500D02*
X149020000Y-110362500D01*
X149020000Y-110362500D02*
X148720000Y-110362500D01*
%TO.C,R21*%
X82865276Y-97745000D02*
X83374724Y-97745000D01*
X82865276Y-98790000D02*
X83374724Y-98790000D01*
%TO.C,R28*%
X46462224Y-72036900D02*
X45952776Y-72036900D01*
X46462224Y-73081900D02*
X45952776Y-73081900D01*
%TO.C,Q8*%
X38500000Y-96037500D02*
X38500000Y-91396500D01*
X41769000Y-96037500D02*
X41769000Y-94527500D01*
X45470000Y-96037500D02*
X45470000Y-94527500D01*
X48740000Y-91396500D02*
X38500000Y-91396500D01*
X48740000Y-94527500D02*
X38500000Y-94527500D01*
X48740000Y-96037500D02*
X38500000Y-96037500D01*
X48740000Y-96037500D02*
X48740000Y-91396500D01*
%TO.C,R33*%
X144097500Y-109157776D02*
X144097500Y-109667224D01*
X145142500Y-109157776D02*
X145142500Y-109667224D01*
%TO.C,C16*%
X138622500Y-125846920D02*
X138622500Y-126128080D01*
X139642500Y-125846920D02*
X139642500Y-126128080D01*
%TO.C,R32*%
X150097500Y-109667224D02*
X150097500Y-109157776D01*
X151142500Y-109667224D02*
X151142500Y-109157776D01*
D13*
%TO.C,U2*%
X187841100Y-75710600D02*
X187841100Y-76533203D01*
X187841100Y-77351797D02*
X187841100Y-77803203D01*
X187841100Y-78621797D02*
X187841100Y-79073203D01*
X187841100Y-79891797D02*
X187841100Y-80714400D01*
X187841100Y-80714400D02*
X194241900Y-80714400D01*
D14*
X191041500Y-78212500D02*
X191041500Y-78212500D01*
D13*
X194241900Y-75710600D02*
X187841100Y-75710600D01*
X194241900Y-76533203D02*
X194241900Y-75710600D01*
X194241900Y-77803203D02*
X194241900Y-77351797D01*
X194241900Y-79073203D02*
X194241900Y-78621797D01*
X194241900Y-80714400D02*
X194241900Y-79891797D01*
D11*
%TO.C,D3*%
X199650000Y-54092500D02*
X199650000Y-59532500D01*
X199650000Y-58512500D02*
X202590000Y-58512500D01*
X199650000Y-58632500D02*
X202590000Y-58632500D01*
X199650000Y-58752500D02*
X202590000Y-58752500D01*
X199650000Y-59532500D02*
X202590000Y-59532500D01*
X201120000Y-53072500D02*
X201120000Y-54092500D01*
X201120000Y-60552500D02*
X201120000Y-59532500D01*
X202590000Y-54092500D02*
X199650000Y-54092500D01*
X202590000Y-59532500D02*
X202590000Y-54092500D01*
%TO.C,C7*%
X73747920Y-130477300D02*
X74029080Y-130477300D01*
X73747920Y-131497300D02*
X74029080Y-131497300D01*
%TO.C,C6*%
X185328500Y-86569820D02*
X185328500Y-86850980D01*
X186348500Y-86569820D02*
X186348500Y-86850980D01*
%TO.C,C14*%
X148610000Y-124071920D02*
X148610000Y-124353080D01*
X149630000Y-124071920D02*
X149630000Y-124353080D01*
%TO.C,C21*%
X56610000Y-122571920D02*
X56610000Y-122853080D01*
X57630000Y-122571920D02*
X57630000Y-122853080D01*
%TO.C,R4*%
X188731476Y-136742800D02*
X189240924Y-136742800D01*
X188731476Y-137787800D02*
X189240924Y-137787800D01*
%TO.C,Q1*%
X181946200Y-136188100D02*
X181946200Y-135538100D01*
X181946200Y-136188100D02*
X181946200Y-136838100D01*
X185066200Y-136188100D02*
X185066200Y-135538100D01*
X185066200Y-136188100D02*
X185066200Y-136838100D01*
X185346200Y-135265600D02*
X185016200Y-135025600D01*
X185346200Y-134785600D01*
X185346200Y-135265600D01*
G36*
X185346200Y-135265600D02*
G01*
X185016200Y-135025600D01*
X185346200Y-134785600D01*
X185346200Y-135265600D01*
G37*
%TO.C,C11*%
X204565300Y-140406520D02*
X204565300Y-140687680D01*
X205585300Y-140406520D02*
X205585300Y-140687680D01*
%TO.C,R26*%
X46462224Y-67363500D02*
X45952776Y-67363500D01*
X46462224Y-68408500D02*
X45952776Y-68408500D01*
D13*
%TO.C,U7*%
X66019000Y-127343900D02*
X66019000Y-129350500D01*
X68033261Y-127343900D02*
X67306739Y-127343900D01*
X69321000Y-129350500D02*
X69321000Y-127343900D01*
D11*
%TO.C,R29*%
X77915300Y-113510924D02*
X77915300Y-113001476D01*
X78960300Y-113510924D02*
X78960300Y-113001476D01*
%TO.C,C15*%
X128040000Y-109232500D02*
X136200000Y-109232500D01*
X128040000Y-109272500D02*
X136200000Y-109272500D01*
X128040000Y-109312500D02*
X136200000Y-109312500D01*
X128041000Y-109192500D02*
X136199000Y-109192500D01*
X128043000Y-109152500D02*
X136197000Y-109152500D01*
X128044000Y-109112500D02*
X136196000Y-109112500D01*
X128046000Y-109072500D02*
X136194000Y-109072500D01*
X128049000Y-109032500D02*
X136191000Y-109032500D01*
X128052000Y-108992500D02*
X136188000Y-108992500D01*
X128055000Y-108952500D02*
X136185000Y-108952500D01*
X128059000Y-108912500D02*
X136181000Y-108912500D01*
X128063000Y-108872500D02*
X136177000Y-108872500D01*
X128068000Y-108832500D02*
X136172000Y-108832500D01*
X128072000Y-108792500D02*
X136168000Y-108792500D01*
X128078000Y-108752500D02*
X136162000Y-108752500D01*
X128083000Y-108712500D02*
X136157000Y-108712500D01*
X128090000Y-108672500D02*
X136150000Y-108672500D01*
X128096000Y-108632500D02*
X136144000Y-108632500D01*
X128103000Y-108591500D02*
X136137000Y-108591500D01*
X128110000Y-108551500D02*
X136130000Y-108551500D01*
X128118000Y-108511500D02*
X136122000Y-108511500D01*
X128126000Y-108471500D02*
X136114000Y-108471500D01*
X128135000Y-108431500D02*
X131080000Y-108431500D01*
X128144000Y-108391500D02*
X131080000Y-108391500D01*
X128153000Y-108351500D02*
X131080000Y-108351500D01*
X128163000Y-108311500D02*
X131080000Y-108311500D01*
X128173000Y-108271500D02*
X131080000Y-108271500D01*
X128184000Y-108231500D02*
X131080000Y-108231500D01*
X128195000Y-108191500D02*
X131080000Y-108191500D01*
X128206000Y-108151500D02*
X131080000Y-108151500D01*
X128218000Y-108111500D02*
X131080000Y-108111500D01*
X128231000Y-108071500D02*
X131080000Y-108071500D01*
X128243000Y-108031500D02*
X131080000Y-108031500D01*
X128257000Y-107991500D02*
X131080000Y-107991500D01*
X128270000Y-107951500D02*
X131080000Y-107951500D01*
X128285000Y-107911500D02*
X131080000Y-107911500D01*
X128299000Y-107871500D02*
X131080000Y-107871500D01*
X128315000Y-107831500D02*
X131080000Y-107831500D01*
X128330000Y-107791500D02*
X131080000Y-107791500D01*
X128346000Y-107751500D02*
X131080000Y-107751500D01*
X128363000Y-107711500D02*
X131080000Y-107711500D01*
X128380000Y-107671500D02*
X131080000Y-107671500D01*
X128398000Y-107631500D02*
X131080000Y-107631500D01*
X128416000Y-107591500D02*
X131080000Y-107591500D01*
X128434000Y-107551500D02*
X131080000Y-107551500D01*
X128454000Y-107511500D02*
X131080000Y-107511500D01*
X128473000Y-107471500D02*
X131080000Y-107471500D01*
X128493000Y-107431500D02*
X131080000Y-107431500D01*
X128514000Y-107391500D02*
X131080000Y-107391500D01*
X128536000Y-107351500D02*
X131080000Y-107351500D01*
X128558000Y-107311500D02*
X131080000Y-107311500D01*
X128580000Y-107271500D02*
X131080000Y-107271500D01*
X128603000Y-107231500D02*
X131080000Y-107231500D01*
X128627000Y-107191500D02*
X131080000Y-107191500D01*
X128651000Y-107151500D02*
X131080000Y-107151500D01*
X128676000Y-107111500D02*
X131080000Y-107111500D01*
X128702000Y-107071500D02*
X131080000Y-107071500D01*
X128728000Y-107031500D02*
X131080000Y-107031500D01*
X128755000Y-106991500D02*
X131080000Y-106991500D01*
X128782000Y-106951500D02*
X131080000Y-106951500D01*
X128811000Y-106911500D02*
X131080000Y-106911500D01*
X128840000Y-106871500D02*
X131080000Y-106871500D01*
X128870000Y-106831500D02*
X131080000Y-106831500D01*
X128900000Y-106791500D02*
X131080000Y-106791500D01*
X128931000Y-106751500D02*
X131080000Y-106751500D01*
X128964000Y-106711500D02*
X131080000Y-106711500D01*
X128996000Y-106671500D02*
X131080000Y-106671500D01*
X129030000Y-106631500D02*
X131080000Y-106631500D01*
X129065000Y-106591500D02*
X131080000Y-106591500D01*
X129101000Y-106551500D02*
X131080000Y-106551500D01*
X129137000Y-106511500D02*
X131080000Y-106511500D01*
X129175000Y-106471500D02*
X131080000Y-106471500D01*
X129213000Y-106431500D02*
X131080000Y-106431500D01*
X129253000Y-106391500D02*
X131080000Y-106391500D01*
X129294000Y-106351500D02*
X134946000Y-106351500D01*
X129336000Y-106311500D02*
X134904000Y-106311500D01*
X129379000Y-106271500D02*
X134861000Y-106271500D01*
X129405000Y-113322198D02*
X130205000Y-113322198D01*
X129423000Y-106231500D02*
X134817000Y-106231500D01*
X129469000Y-106191500D02*
X134771000Y-106191500D01*
X129516000Y-106151500D02*
X134724000Y-106151500D01*
X129564000Y-106111500D02*
X134676000Y-106111500D01*
X129615000Y-106071500D02*
X134625000Y-106071500D01*
X129666000Y-106031500D02*
X134574000Y-106031500D01*
X129720000Y-105991500D02*
X134520000Y-105991500D01*
X129775000Y-105951500D02*
X134465000Y-105951500D01*
X129805000Y-113722198D02*
X129805000Y-112922198D01*
X129833000Y-105911500D02*
X134407000Y-105911500D01*
X129892000Y-105871500D02*
X134348000Y-105871500D01*
X129954000Y-105831500D02*
X134286000Y-105831500D01*
X130018000Y-105791500D02*
X134222000Y-105791500D01*
X130086000Y-105751500D02*
X134154000Y-105751500D01*
X130156000Y-105711500D02*
X134084000Y-105711500D01*
X130230000Y-105671500D02*
X134010000Y-105671500D01*
X130307000Y-105631500D02*
X133933000Y-105631500D01*
X130389000Y-105591500D02*
X133851000Y-105591500D01*
X130475000Y-105551500D02*
X133765000Y-105551500D01*
X130568000Y-105511500D02*
X133672000Y-105511500D01*
X130667000Y-105471500D02*
X133573000Y-105471500D01*
X130774000Y-105431500D02*
X133466000Y-105431500D01*
X130891000Y-105391500D02*
X133349000Y-105391500D01*
X131022000Y-105351500D02*
X133218000Y-105351500D01*
X131172000Y-105311500D02*
X133068000Y-105311500D01*
X131352000Y-105271500D02*
X132888000Y-105271500D01*
X131587000Y-105231500D02*
X132653000Y-105231500D01*
X133160000Y-106391500D02*
X134987000Y-106391500D01*
X133160000Y-106431500D02*
X135027000Y-106431500D01*
X133160000Y-106471500D02*
X135065000Y-106471500D01*
X133160000Y-106511500D02*
X135103000Y-106511500D01*
X133160000Y-106551500D02*
X135139000Y-106551500D01*
X133160000Y-106591500D02*
X135175000Y-106591500D01*
X133160000Y-106631500D02*
X135210000Y-106631500D01*
X133160000Y-106671500D02*
X135244000Y-106671500D01*
X133160000Y-106711500D02*
X135276000Y-106711500D01*
X133160000Y-106751500D02*
X135309000Y-106751500D01*
X133160000Y-106791500D02*
X135340000Y-106791500D01*
X133160000Y-106831500D02*
X135370000Y-106831500D01*
X133160000Y-106871500D02*
X135400000Y-106871500D01*
X133160000Y-106911500D02*
X135429000Y-106911500D01*
X133160000Y-106951500D02*
X135458000Y-106951500D01*
X133160000Y-106991500D02*
X135485000Y-106991500D01*
X133160000Y-107031500D02*
X135512000Y-107031500D01*
X133160000Y-107071500D02*
X135538000Y-107071500D01*
X133160000Y-107111500D02*
X135564000Y-107111500D01*
X133160000Y-107151500D02*
X135589000Y-107151500D01*
X133160000Y-107191500D02*
X135613000Y-107191500D01*
X133160000Y-107231500D02*
X135637000Y-107231500D01*
X133160000Y-107271500D02*
X135660000Y-107271500D01*
X133160000Y-107311500D02*
X135682000Y-107311500D01*
X133160000Y-107351500D02*
X135704000Y-107351500D01*
X133160000Y-107391500D02*
X135726000Y-107391500D01*
X133160000Y-107431500D02*
X135747000Y-107431500D01*
X133160000Y-107471500D02*
X135767000Y-107471500D01*
X133160000Y-107511500D02*
X135786000Y-107511500D01*
X133160000Y-107551500D02*
X135806000Y-107551500D01*
X133160000Y-107591500D02*
X135824000Y-107591500D01*
X133160000Y-107631500D02*
X135842000Y-107631500D01*
X133160000Y-107671500D02*
X135860000Y-107671500D01*
X133160000Y-107711500D02*
X135877000Y-107711500D01*
X133160000Y-107751500D02*
X135894000Y-107751500D01*
X133160000Y-107791500D02*
X135910000Y-107791500D01*
X133160000Y-107831500D02*
X135925000Y-107831500D01*
X133160000Y-107871500D02*
X135941000Y-107871500D01*
X133160000Y-107911500D02*
X135955000Y-107911500D01*
X133160000Y-107951500D02*
X135970000Y-107951500D01*
X133160000Y-107991500D02*
X135983000Y-107991500D01*
X133160000Y-108031500D02*
X135997000Y-108031500D01*
X133160000Y-108071500D02*
X136009000Y-108071500D01*
X133160000Y-108111500D02*
X136022000Y-108111500D01*
X133160000Y-108151500D02*
X136034000Y-108151500D01*
X133160000Y-108191500D02*
X136045000Y-108191500D01*
X133160000Y-108231500D02*
X136056000Y-108231500D01*
X133160000Y-108271500D02*
X136067000Y-108271500D01*
X133160000Y-108311500D02*
X136077000Y-108311500D01*
X133160000Y-108351500D02*
X136087000Y-108351500D01*
X133160000Y-108391500D02*
X136096000Y-108391500D01*
X133160000Y-108431500D02*
X136105000Y-108431500D01*
X136240000Y-109312500D02*
G75*
G02*
X128000000Y-109312500I-4120000J0D01*
G01*
X128000000Y-109312500D02*
G75*
G02*
X136240000Y-109312500I4120000J0D01*
G01*
%TO.C,SW1*%
X133482500Y-125409800D02*
X133482500Y-125709800D01*
X133482500Y-128209800D02*
X133482500Y-127909800D01*
X136782500Y-125409800D02*
X133482500Y-125409800D01*
X136782500Y-125709800D02*
X136782500Y-125409800D01*
X136782500Y-127909800D02*
X136782500Y-128209800D01*
X136782500Y-128209800D02*
X133482500Y-128209800D01*
%TO.C,U11*%
X55900000Y-82352500D02*
X55900000Y-38072500D01*
X55900000Y-82352500D02*
X178180000Y-82352500D01*
D10*
X64353000Y-41231500D02*
X64353000Y-74759500D01*
X64353000Y-41231500D02*
X65115000Y-41231500D01*
X65115000Y-41231500D02*
X65115000Y-40469500D01*
X65115000Y-74759500D02*
X64353000Y-74759500D01*
X65115000Y-75521500D02*
X65115000Y-74759500D01*
X65115000Y-75521500D02*
X169255000Y-75521500D01*
X66131000Y-41739500D02*
X66385000Y-41993500D01*
X66131000Y-74251500D02*
X66385000Y-73997500D01*
X66385000Y-41485500D02*
X66131000Y-41739500D01*
X66385000Y-41993500D02*
X167985000Y-41993500D01*
X66385000Y-74505500D02*
X66131000Y-74251500D01*
X66385000Y-74505500D02*
X167985000Y-74505500D01*
X67655000Y-46819500D02*
X68417000Y-46057500D01*
X67655000Y-69171500D02*
X67655000Y-46819500D01*
X68417000Y-46057500D02*
X165953000Y-46057500D01*
X68417000Y-69933500D02*
X67655000Y-69171500D01*
D11*
X101040000Y-82712500D02*
X99040000Y-82712500D01*
D10*
X165953000Y-46057500D02*
X166715000Y-46819500D01*
X165953000Y-69933500D02*
X68417000Y-69933500D01*
X166715000Y-46819500D02*
X166715000Y-69171500D01*
X166715000Y-69171500D02*
X165953000Y-69933500D01*
X167985000Y-41485500D02*
X66385000Y-41485500D01*
X167985000Y-41993500D02*
X168239000Y-41739500D01*
X167985000Y-73997500D02*
X66385000Y-73997500D01*
X167985000Y-74505500D02*
X168239000Y-74251500D01*
X168239000Y-41739500D02*
X167985000Y-41485500D01*
X168239000Y-74251500D02*
X167985000Y-73997500D01*
X169255000Y-40469500D02*
X65115000Y-40469500D01*
X169255000Y-40469500D02*
X169255000Y-41231500D01*
X169255000Y-41231500D02*
X170017000Y-41231500D01*
X169255000Y-74759500D02*
X170017000Y-74759500D01*
X169255000Y-75521500D02*
X169255000Y-74759500D01*
X170017000Y-74759500D02*
X170017000Y-41231500D01*
D11*
X178180000Y-38072500D02*
X55900000Y-38072500D01*
X178180000Y-82352500D02*
X178180000Y-38072500D01*
%TO.C,C12*%
X150610000Y-124071920D02*
X150610000Y-124353080D01*
X151630000Y-124071920D02*
X151630000Y-124353080D01*
%TO.C,U3*%
X198750000Y-85752500D02*
X198750000Y-87402500D01*
X198750000Y-89402500D02*
X198750000Y-91052500D01*
X198750000Y-91052500D02*
X209030000Y-91052500D01*
X209030000Y-85752500D02*
X198750000Y-85752500D01*
X209030000Y-91052500D02*
X209030000Y-85752500D01*
X198750000Y-87402500D02*
G75*
G02*
X198750000Y-89402500I0J-1000000D01*
G01*
%TO.C,R19*%
X95865276Y-97690000D02*
X96374724Y-97690000D01*
X95865276Y-98735000D02*
X96374724Y-98735000D01*
%TO.C,J2*%
X154060000Y-116272500D02*
X154060000Y-115212500D01*
X155120000Y-116272500D02*
X154060000Y-116272500D01*
X156120000Y-114152500D02*
X162180000Y-114152500D01*
X156120000Y-116272500D02*
X156120000Y-114152500D01*
X156120000Y-116272500D02*
X162180000Y-116272500D01*
X162180000Y-116272500D02*
X162180000Y-114152500D01*
%TO.C,R15*%
X122865276Y-97690000D02*
X123374724Y-97690000D01*
X122865276Y-98735000D02*
X123374724Y-98735000D01*
%TO.C,Q4*%
X91000000Y-96037500D02*
X91000000Y-91396500D01*
X94269000Y-96037500D02*
X94269000Y-94527500D01*
X97970000Y-96037500D02*
X97970000Y-94527500D01*
X101240000Y-91396500D02*
X91000000Y-91396500D01*
X101240000Y-94527500D02*
X91000000Y-94527500D01*
X101240000Y-96037500D02*
X91000000Y-96037500D01*
X101240000Y-96037500D02*
X101240000Y-91396500D01*
%TO.C,R20*%
X46462224Y-53343100D02*
X45952776Y-53343100D01*
X46462224Y-54388100D02*
X45952776Y-54388100D01*
%TO.C,Y1*%
X135420000Y-114912500D02*
X135420000Y-119112500D01*
X138920000Y-114912500D02*
X135420000Y-114912500D01*
%TO.C,Q6*%
X65540000Y-96037500D02*
X65540000Y-91396500D01*
X68809000Y-96037500D02*
X68809000Y-94527500D01*
X72510000Y-96037500D02*
X72510000Y-94527500D01*
X75780000Y-91396500D02*
X65540000Y-91396500D01*
X75780000Y-94527500D02*
X65540000Y-94527500D01*
X75780000Y-96037500D02*
X65540000Y-96037500D01*
X75780000Y-96037500D02*
X75780000Y-91396500D01*
%TO.C,C2*%
X154610000Y-124071920D02*
X154610000Y-124353080D01*
X155630000Y-124071920D02*
X155630000Y-124353080D01*
%TO.C,R30*%
X75532700Y-112246624D02*
X75532700Y-111737176D01*
X76577700Y-112246624D02*
X76577700Y-111737176D01*
%TO.C,C13*%
X152610000Y-124071920D02*
X152610000Y-124353080D01*
X153630000Y-124071920D02*
X153630000Y-124353080D01*
%TD*%
M02*
