M48
; DRILL file {KiCad 8.0.6-8.0.6-0~ubuntu22.04.1} date 2024-10-30T23:15:21-0300
; FORMAT={-:-/ absolute / inch / decimal}
; #@! TF.CreationDate,2024-10-30T23:15:21-03:00
; #@! TF.GenerationSoftware,Kicad,Pcbnew,8.0.6-8.0.6-0~ubuntu22.04.1
; #@! TF.FileFunction,Plated,1,2,PTH
FMAT,2
INCH
; #@! TA.AperFunction,Plated,PTH,ComponentDrill
T1C0.0098
; #@! TA.AperFunction,Plated,PTH,ViaDrill
T2C0.0118
; #@! TA.AperFunction,Plated,PTH,ComponentDrill
T3C0.0315
; #@! TA.AperFunction,Plated,PTH,ComponentDrill
T4C0.0394
; #@! TA.AperFunction,Plated,PTH,ComponentDrill
T5C0.0433
; #@! TA.AperFunction,Plated,PTH,ComponentDrill
T6C0.1378
%
G90
G05
T1
X7.9575Y-5.3627
X7.9575Y-5.4021
T2
X1.3566Y-5.4162
X1.7533Y-4.8046
X1.8269Y-5.4286
X2.4201Y-1.9758
X2.8589Y-5.1172
X2.8783Y-1.4646
X3.1276Y-1.9447
X3.3654Y-4.3225
X3.6296Y-4.1365
X3.6301Y-4.4053
X3.6886Y-3.2003
X4.2978Y-3.8278
X5.3587Y-1.9453
X5.5556Y-4.2213
X5.7087Y-4.4587
X5.7219Y-4.995
X5.7531Y-4.8205
X5.765Y-4.4665
X5.8524Y-4.5181
X6.0677Y-4.8511
X6.1115Y-4.8174
X6.1934Y-5.6689
X7.4281Y-3.5032
X7.542Y-4.6382
X7.6228Y-5.6973
X7.8864Y-5.4119
X7.9925Y-2.5127
T3
X1.7961Y-5.5989
X1.8748Y-5.5989
X5.2016Y-4.2288
X5.2016Y-4.3784
X6.1071Y-4.5359
X6.1858Y-4.5359
X6.2646Y-4.5359
X6.3433Y-4.5359
X7.2244Y-5.5399
X7.3276Y-5.6973
X7.4063Y-5.6973
X7.5244Y-5.5399
X7.8772Y-3.3304
X7.8772Y-3.6304
X7.9772Y-3.3304
X7.9772Y-3.6304
X8.0772Y-3.3304
X8.0772Y-3.6304
X8.1772Y-3.3304
X8.1772Y-3.6304
X8.2134Y-5.343
X8.2134Y-5.4218
T4
X2.6386Y-3.1383
X2.7386Y-3.1383
X2.8386Y-3.1383
X2.9386Y-3.1383
X3.0386Y-3.1383
X3.1386Y-3.1383
X3.2386Y-3.1383
X3.3386Y-3.1383
X3.4386Y-3.1383
X3.5386Y-3.1383
X3.6386Y-3.1383
X3.7386Y-3.1383
X3.8386Y-3.1383
X3.9386Y-3.1383
X4.0386Y-3.1383
X4.1386Y-3.1383
X6.911Y-1.9966
X6.911Y-2.154
X6.911Y-2.4296
X6.911Y-2.5871
T5
X1.6173Y-3.6523
X1.7173Y-3.6523
X1.8173Y-3.6523
X2.1504Y-3.6523
X2.2504Y-3.6523
X2.3504Y-3.6523
X2.6819Y-3.6523
X2.7819Y-3.6523
X2.8819Y-3.6523
X3.174Y-3.6523
X3.274Y-3.6523
X3.374Y-3.6523
X3.6843Y-3.6523
X3.7843Y-3.6523
X3.8843Y-3.6523
X4.2157Y-3.6523
X4.3157Y-3.6523
X4.4157Y-3.6523
X4.7472Y-3.6523
X4.8472Y-3.6523
X4.9472Y-3.6523
X5.2787Y-3.6523
X5.3787Y-3.6523
X5.4787Y-3.6523
X7.9181Y-2.0367
X7.9181Y-2.4367
T6
X2.3441Y-1.6422
X2.3441Y-3.0989
X6.8717Y-1.6422
X6.8717Y-3.0989
M30
