%TF.GenerationSoftware,KiCad,Pcbnew,8.0.6-8.0.6-0~ubuntu22.04.1*%
%TF.CreationDate,2024-10-30T23:16:00-03:00*%
%TF.ProjectId,Projeto SEMB,50726f6a-6574-46f2-9053-454d422e6b69,rev?*%
%TF.SameCoordinates,Original*%
%TF.FileFunction,Copper,L1,Top*%
%TF.FilePolarity,Positive*%
%FSLAX46Y46*%
G04 Gerber Fmt 4.6, Leading zero omitted, Abs format (unit mm)*
G04 Created by KiCad (PCBNEW 8.0.6-8.0.6-0~ubuntu22.04.1) date 2024-10-30 23:16:00*
%MOMM*%
%LPD*%
G01*
G04 APERTURE LIST*
G04 Aperture macros list*
%AMRoundRect*
0 Rectangle with rounded corners*
0 $1 Rounding radius*
0 $2 $3 $4 $5 $6 $7 $8 $9 X,Y pos of 4 corners*
0 Add a 4 corners polygon primitive as box body*
4,1,4,$2,$3,$4,$5,$6,$7,$8,$9,$2,$3,0*
0 Add four circle primitives for the rounded corners*
1,1,$1+$1,$2,$3*
1,1,$1+$1,$4,$5*
1,1,$1+$1,$6,$7*
1,1,$1+$1,$8,$9*
0 Add four rect primitives between the rounded corners*
20,1,$1+$1,$2,$3,$4,$5,0*
20,1,$1+$1,$4,$5,$6,$7,0*
20,1,$1+$1,$6,$7,$8,$9,0*
20,1,$1+$1,$8,$9,$2,$3,0*%
G04 Aperture macros list end*
%TA.AperFunction,ComponentPad*%
%ADD10R,1.350000X1.350000*%
%TD*%
%TA.AperFunction,ComponentPad*%
%ADD11O,1.350000X1.350000*%
%TD*%
%TA.AperFunction,SMDPad,CuDef*%
%ADD12RoundRect,0.237500X-0.237500X0.250000X-0.237500X-0.250000X0.237500X-0.250000X0.237500X0.250000X0*%
%TD*%
%TA.AperFunction,ComponentPad*%
%ADD13R,1.905000X2.000000*%
%TD*%
%TA.AperFunction,ComponentPad*%
%ADD14O,1.905000X2.000000*%
%TD*%
%TA.AperFunction,SMDPad,CuDef*%
%ADD15RoundRect,0.225000X-0.250000X0.225000X-0.250000X-0.225000X0.250000X-0.225000X0.250000X0.225000X0*%
%TD*%
%TA.AperFunction,SMDPad,CuDef*%
%ADD16RoundRect,0.237500X-0.250000X-0.237500X0.250000X-0.237500X0.250000X0.237500X-0.250000X0.237500X0*%
%TD*%
%TA.AperFunction,SMDPad,CuDef*%
%ADD17RoundRect,0.225000X0.250000X-0.225000X0.250000X0.225000X-0.250000X0.225000X-0.250000X-0.225000X0*%
%TD*%
%TA.AperFunction,SMDPad,CuDef*%
%ADD18RoundRect,0.225000X0.225000X0.250000X-0.225000X0.250000X-0.225000X-0.250000X0.225000X-0.250000X0*%
%TD*%
%TA.AperFunction,SMDPad,CuDef*%
%ADD19RoundRect,0.237500X0.250000X0.237500X-0.250000X0.237500X-0.250000X-0.237500X0.250000X-0.237500X0*%
%TD*%
%TA.AperFunction,SMDPad,CuDef*%
%ADD20RoundRect,0.218750X-0.256250X0.218750X-0.256250X-0.218750X0.256250X-0.218750X0.256250X0.218750X0*%
%TD*%
%TA.AperFunction,SMDPad,CuDef*%
%ADD21RoundRect,0.100000X0.130000X0.100000X-0.130000X0.100000X-0.130000X-0.100000X0.130000X-0.100000X0*%
%TD*%
%TA.AperFunction,SMDPad,CuDef*%
%ADD22R,2.790000X1.190000*%
%TD*%
%TA.AperFunction,SMDPad,CuDef*%
%ADD23RoundRect,0.062500X0.187500X0.062500X-0.187500X0.062500X-0.187500X-0.062500X0.187500X-0.062500X0*%
%TD*%
%TA.AperFunction,ComponentPad*%
%ADD24C,0.600000*%
%TD*%
%TA.AperFunction,SMDPad,CuDef*%
%ADD25R,0.900000X1.600000*%
%TD*%
%TA.AperFunction,SMDPad,CuDef*%
%ADD26RoundRect,0.100000X0.100000X-0.130000X0.100000X0.130000X-0.100000X0.130000X-0.100000X-0.130000X0*%
%TD*%
%TA.AperFunction,SMDPad,CuDef*%
%ADD27RoundRect,0.250000X1.000000X-0.375000X1.000000X0.375000X-1.000000X0.375000X-1.000000X-0.375000X0*%
%TD*%
%TA.AperFunction,SMDPad,CuDef*%
%ADD28RoundRect,0.237500X0.237500X-0.250000X0.237500X0.250000X-0.237500X0.250000X-0.237500X-0.250000X0*%
%TD*%
%TA.AperFunction,SMDPad,CuDef*%
%ADD29R,0.900000X1.700000*%
%TD*%
%TA.AperFunction,SMDPad,CuDef*%
%ADD30RoundRect,0.062500X-0.375000X-0.062500X0.375000X-0.062500X0.375000X0.062500X-0.375000X0.062500X0*%
%TD*%
%TA.AperFunction,SMDPad,CuDef*%
%ADD31RoundRect,0.062500X-0.062500X-0.375000X0.062500X-0.375000X0.062500X0.375000X-0.062500X0.375000X0*%
%TD*%
%TA.AperFunction,HeatsinkPad*%
%ADD32R,5.600000X5.600000*%
%TD*%
%TA.AperFunction,SMDPad,CuDef*%
%ADD33R,1.803400X0.533400*%
%TD*%
%TA.AperFunction,SMDPad,CuDef*%
%ADD34RoundRect,0.250000X-0.400000X-0.600000X0.400000X-0.600000X0.400000X0.600000X-0.400000X0.600000X0*%
%TD*%
%TA.AperFunction,SMDPad,CuDef*%
%ADD35RoundRect,0.218750X0.256250X-0.218750X0.256250X0.218750X-0.256250X0.218750X-0.256250X-0.218750X0*%
%TD*%
%TA.AperFunction,SMDPad,CuDef*%
%ADD36RoundRect,0.250000X2.050000X0.300000X-2.050000X0.300000X-2.050000X-0.300000X2.050000X-0.300000X0*%
%TD*%
%TA.AperFunction,SMDPad,CuDef*%
%ADD37RoundRect,0.250000X2.025000X2.375000X-2.025000X2.375000X-2.025000X-2.375000X2.025000X-2.375000X0*%
%TD*%
%TA.AperFunction,SMDPad,CuDef*%
%ADD38RoundRect,0.250002X4.449998X5.149998X-4.449998X5.149998X-4.449998X-5.149998X4.449998X-5.149998X0*%
%TD*%
%TA.AperFunction,ComponentPad*%
%ADD39R,1.600000X1.600000*%
%TD*%
%TA.AperFunction,ComponentPad*%
%ADD40O,1.600000X1.600000*%
%TD*%
%TA.AperFunction,SMDPad,CuDef*%
%ADD41RoundRect,0.125000X-0.125000X0.687500X-0.125000X-0.687500X0.125000X-0.687500X0.125000X0.687500X0*%
%TD*%
%TA.AperFunction,SMDPad,CuDef*%
%ADD42R,2.200000X2.200000*%
%TD*%
%TA.AperFunction,SMDPad,CuDef*%
%ADD43R,1.700000X0.900000*%
%TD*%
%TA.AperFunction,SMDPad,CuDef*%
%ADD44R,1.803400X0.457200*%
%TD*%
%TA.AperFunction,ComponentPad*%
%ADD45R,2.200000X2.200000*%
%TD*%
%TA.AperFunction,ComponentPad*%
%ADD46O,2.200000X2.200000*%
%TD*%
%TA.AperFunction,SMDPad,CuDef*%
%ADD47RoundRect,0.225000X-0.225000X-0.250000X0.225000X-0.250000X0.225000X0.250000X-0.225000X0.250000X0*%
%TD*%
%TA.AperFunction,SMDPad,CuDef*%
%ADD48RoundRect,0.150000X-0.150000X0.587500X-0.150000X-0.587500X0.150000X-0.587500X0.150000X0.587500X0*%
%TD*%
%TA.AperFunction,SMDPad,CuDef*%
%ADD49R,0.508000X0.977900*%
%TD*%
%TA.AperFunction,ComponentPad*%
%ADD50C,1.600000*%
%TD*%
%TA.AperFunction,ComponentPad*%
%ADD51C,6.500000*%
%TD*%
%TA.AperFunction,ComponentPad*%
%ADD52R,1.500000X3.000000*%
%TD*%
%TA.AperFunction,ComponentPad*%
%ADD53O,1.500000X3.000000*%
%TD*%
%TA.AperFunction,ComponentPad*%
%ADD54R,2.000000X2.000000*%
%TD*%
%TA.AperFunction,SMDPad,CuDef*%
%ADD55R,1.200000X1.400000*%
%TD*%
%TA.AperFunction,ViaPad*%
%ADD56C,0.600000*%
%TD*%
%TA.AperFunction,Conductor*%
%ADD57C,0.200000*%
%TD*%
G04 APERTURE END LIST*
D10*
%TO.P,L2,1,1*%
%TO.N,3.3V*%
X188120000Y-144712500D03*
D11*
%TO.P,L2,2,2*%
%TO.N,Net-(D2-A)*%
X186120000Y-144712500D03*
%TD*%
D12*
%TO.P,R11,1*%
%TO.N,+3.3V*%
X146620000Y-141387500D03*
%TO.P,R11,2*%
%TO.N,Net-(R11-Pad2)*%
X146620000Y-143212500D03*
%TD*%
%TO.P,R1,1*%
%TO.N,+5V*%
X57756700Y-125855000D03*
%TO.P,R1,2*%
%TO.N,Net-(U10-FB)*%
X57756700Y-127680000D03*
%TD*%
D13*
%TO.P,Q9,1,G*%
%TO.N,+3.3V*%
X125660000Y-92767500D03*
D14*
%TO.P,Q9,2,D*%
%TO.N,DB1*%
X123120000Y-92767500D03*
%TO.P,Q9,3,S*%
%TO.N,P1*%
X120580000Y-92767500D03*
%TD*%
D15*
%TO.P,C10,1*%
%TO.N,+12V*%
X203075300Y-139772100D03*
%TO.P,C10,2*%
%TO.N,GND*%
X203075300Y-141322100D03*
%TD*%
D16*
%TO.P,R34,1*%
%TO.N,Net-(BZ1-+)*%
X201207500Y-64812500D03*
%TO.P,R34,2*%
%TO.N,PA10*%
X203032500Y-64812500D03*
%TD*%
D13*
%TO.P,Q7,1,G*%
%TO.N,+3.3V*%
X59700000Y-92767500D03*
D14*
%TO.P,Q7,2,D*%
%TO.N,DB6*%
X57160000Y-92767500D03*
%TO.P,Q7,3,S*%
%TO.N,P6*%
X54620000Y-92767500D03*
%TD*%
D17*
%TO.P,C5,1*%
%TO.N,+5V*%
X59938300Y-127712500D03*
%TO.P,C5,2*%
%TO.N,GND*%
X59938300Y-126162500D03*
%TD*%
D16*
%TO.P,R13,1*%
%TO.N,P0*%
X135707500Y-98212500D03*
%TO.P,R13,2*%
%TO.N,+3.3V*%
X137532500Y-98212500D03*
%TD*%
D13*
%TO.P,Q3,1,G*%
%TO.N,+3.3V*%
X112160000Y-92767500D03*
D14*
%TO.P,Q3,2,D*%
%TO.N,DB2*%
X109620000Y-92767500D03*
%TO.P,Q3,3,S*%
%TO.N,P2*%
X107080000Y-92767500D03*
%TD*%
D13*
%TO.P,Q5,1,G*%
%TO.N,+3.3V*%
X85700000Y-92767500D03*
D14*
%TO.P,Q5,2,D*%
%TO.N,DB4*%
X83160000Y-92767500D03*
%TO.P,Q5,3,S*%
%TO.N,P4*%
X80620000Y-92767500D03*
%TD*%
D18*
%TO.P,C19,1*%
%TO.N,PC15*%
X133620000Y-118212500D03*
%TO.P,C19,2*%
%TO.N,GND*%
X132070000Y-118212500D03*
%TD*%
D16*
%TO.P,R3,1*%
%TO.N,Net-(Q1-G)*%
X188120000Y-135212500D03*
%TO.P,R3,2*%
%TO.N,PB15*%
X189945000Y-135212500D03*
%TD*%
D19*
%TO.P,R16,1*%
%TO.N,DB1*%
X47120000Y-44518600D03*
%TO.P,R16,2*%
%TO.N,+5V*%
X45295000Y-44518600D03*
%TD*%
D17*
%TO.P,C8,1*%
%TO.N,+3.3V*%
X78120000Y-128866600D03*
%TO.P,C8,2*%
%TO.N,GND*%
X78120000Y-127316600D03*
%TD*%
D19*
%TO.P,R22,1*%
%TO.N,DB4*%
X47120000Y-58539000D03*
%TO.P,R22,2*%
%TO.N,+5V*%
X45295000Y-58539000D03*
%TD*%
D10*
%TO.P,M1,1,+*%
%TO.N,Net-(M1-+)*%
X208620000Y-137712500D03*
D11*
%TO.P,M1,2,-*%
%TO.N,Net-(M1--)*%
X208620000Y-135712500D03*
%TD*%
D15*
%TO.P,C9,1*%
%TO.N,+3.3V*%
X199155300Y-137516100D03*
%TO.P,C9,2*%
%TO.N,GND*%
X199155300Y-139066100D03*
%TD*%
D12*
%TO.P,R31,1*%
%TO.N,+3.3V*%
X138120000Y-108887500D03*
%TO.P,R31,2*%
%TO.N,Net-(D4-A)*%
X138120000Y-110712500D03*
%TD*%
D15*
%TO.P,C17,1*%
%TO.N,VDDA*%
X141132500Y-125162500D03*
%TO.P,C17,2*%
%TO.N,GND*%
X141132500Y-126712500D03*
%TD*%
D20*
%TO.P,L1,1,1*%
%TO.N,Net-(D1-K)*%
X54120000Y-125925000D03*
%TO.P,L1,2,2*%
%TO.N,+5V*%
X54120000Y-127500000D03*
%TD*%
D17*
%TO.P,C4,1*%
%TO.N,+5V*%
X62120000Y-127712500D03*
%TO.P,C4,2*%
%TO.N,GND*%
X62120000Y-126162500D03*
%TD*%
D18*
%TO.P,C18,1*%
%TO.N,PC14*%
X133620000Y-115709800D03*
%TO.P,C18,2*%
%TO.N,GND*%
X132070000Y-115709800D03*
%TD*%
D21*
%TO.P,D4,1,K*%
%TO.N,Net-(D4-K)*%
X138450300Y-112528200D03*
%TO.P,D4,2,A*%
%TO.N,Net-(D4-A)*%
X137810300Y-112528200D03*
%TD*%
D22*
%TO.P,RV1,1,1*%
%TO.N,GND*%
X208120000Y-46312500D03*
%TO.P,RV1,2,2*%
%TO.N,Net-(U11-VO)*%
X203290000Y-43772500D03*
%TO.P,RV1,3,3*%
%TO.N,+5V*%
X208120000Y-41232500D03*
%TD*%
D23*
%TO.P,U4,1,VM*%
%TO.N,+12V*%
X203070000Y-137462500D03*
%TO.P,U4,2,OUT1*%
%TO.N,Net-(M1-+)*%
X203070000Y-136962500D03*
%TO.P,U4,3,OUT2*%
%TO.N,Net-(M1--)*%
X203070000Y-136462500D03*
%TO.P,U4,4,GND*%
%TO.N,GND*%
X203070000Y-135962500D03*
%TO.P,U4,5,IN2*%
%TO.N,PA9*%
X201170000Y-135962500D03*
%TO.P,U4,6,IN1*%
%TO.N,PA8*%
X201170000Y-136462500D03*
%TO.P,U4,7,~{SLEEP}*%
%TO.N,+3.3V*%
X201170000Y-136962500D03*
%TO.P,U4,8,VCC*%
X201170000Y-137462500D03*
D24*
%TO.P,U4,9,GND*%
%TO.N,GND*%
X202120000Y-137212500D03*
D25*
X202120000Y-136712500D03*
D24*
X202120000Y-136212500D03*
%TD*%
D10*
%TO.P,J1,1,Pin_1*%
%TO.N,GND*%
X45620000Y-142212500D03*
D11*
%TO.P,J1,2,Pin_2*%
%TO.N,+12V*%
X47620000Y-142212500D03*
%TD*%
D26*
%TO.P,D5,1,K*%
%TO.N,VBAT*%
X139620000Y-113187500D03*
%TO.P,D5,2,A*%
%TO.N,Net-(D4-K)*%
X139620000Y-112547500D03*
%TD*%
D15*
%TO.P,C3,1*%
%TO.N,Net-(SW3-B)*%
X54120000Y-121937500D03*
%TO.P,C3,2*%
%TO.N,Net-(U10-VC)*%
X54120000Y-123487500D03*
%TD*%
D27*
%TO.P,SW3,1,A*%
%TO.N,GND*%
X34870000Y-141212500D03*
%TO.P,SW3,2,B*%
%TO.N,Net-(SW3-B)*%
X34870000Y-138712500D03*
%TO.P,SW3,3,C*%
%TO.N,+12V*%
X34870000Y-136212500D03*
%TD*%
D28*
%TO.P,R5,1*%
%TO.N,+3.3V*%
X205200000Y-97212500D03*
%TO.P,R5,2*%
%TO.N,Net-(U3-+)*%
X205200000Y-95387500D03*
%TD*%
D29*
%TO.P,SW4,1,1*%
%TO.N,Net-(R11-Pad2)*%
X148920000Y-143212500D03*
%TO.P,SW4,2,2*%
%TO.N,PB14*%
X152320000Y-143212500D03*
%TD*%
D30*
%TO.P,U1,1,VBAT*%
%TO.N,VBAT*%
X141057500Y-115309800D03*
%TO.P,U1,2,PC13*%
%TO.N,unconnected-(U1-PC13-Pad2)*%
X141057500Y-115809800D03*
%TO.P,U1,3,PC14*%
%TO.N,PC14*%
X141057500Y-116309800D03*
%TO.P,U1,4,PC15*%
%TO.N,PC15*%
X141057500Y-116809800D03*
%TO.P,U1,5,PH0*%
%TO.N,unconnected-(U1-PH0-Pad5)*%
X141057500Y-117309800D03*
%TO.P,U1,6,PH1*%
%TO.N,unconnected-(U1-PH1-Pad6)*%
X141057500Y-117809800D03*
%TO.P,U1,7,NRST*%
%TO.N,Net-(U1-NRST)*%
X141057500Y-118309800D03*
%TO.P,U1,8,VSSA*%
%TO.N,GND*%
X141057500Y-118809800D03*
%TO.P,U1,9,VDDA*%
%TO.N,VDDA*%
X141057500Y-119309800D03*
%TO.P,U1,10,PA0*%
%TO.N,unconnected-(U1-PA0-Pad10)*%
X141057500Y-119809800D03*
%TO.P,U1,11,PA1*%
%TO.N,unconnected-(U1-PA1-Pad11)*%
X141057500Y-120309800D03*
%TO.P,U1,12,PA2*%
%TO.N,unconnected-(U1-PA2-Pad12)*%
X141057500Y-120809800D03*
D31*
%TO.P,U1,13,PA3*%
%TO.N,PA3*%
X141745000Y-121497300D03*
%TO.P,U1,14,PA4*%
%TO.N,unconnected-(U1-PA4-Pad14)*%
X142245000Y-121497300D03*
%TO.P,U1,15,PA5*%
%TO.N,unconnected-(U1-PA5-Pad15)*%
X142745000Y-121497300D03*
%TO.P,U1,16,PA6*%
%TO.N,unconnected-(U1-PA6-Pad16)*%
X143245000Y-121497300D03*
%TO.P,U1,17,PA7*%
%TO.N,unconnected-(U1-PA7-Pad17)*%
X143745000Y-121497300D03*
%TO.P,U1,18,PB0*%
%TO.N,unconnected-(U1-PB0-Pad18)*%
X144245000Y-121497300D03*
%TO.P,U1,19,PB1*%
%TO.N,unconnected-(U1-PB1-Pad19)*%
X144745000Y-121497300D03*
%TO.P,U1,20,PB2*%
%TO.N,unconnected-(U1-PB2-Pad20)*%
X145245000Y-121497300D03*
%TO.P,U1,21,PB10*%
%TO.N,unconnected-(U1-PB10-Pad21)*%
X145745000Y-121497300D03*
%TO.P,U1,22,VCAP1*%
%TO.N,unconnected-(U1-VCAP1-Pad22)*%
X146245000Y-121497300D03*
%TO.P,U1,23,VSS*%
%TO.N,GND*%
X146745000Y-121497300D03*
%TO.P,U1,24,VDD*%
%TO.N,+3.3V*%
X147245000Y-121497300D03*
D30*
%TO.P,U1,25,PB12*%
%TO.N,unconnected-(U1-PB12-Pad25)*%
X147932500Y-120809800D03*
%TO.P,U1,26,PB13*%
%TO.N,unconnected-(U1-PB13-Pad26)*%
X147932500Y-120309800D03*
%TO.P,U1,27,PB14*%
%TO.N,PB14*%
X147932500Y-119809800D03*
%TO.P,U1,28,PB15*%
%TO.N,PB15*%
X147932500Y-119309800D03*
%TO.P,U1,29,PA8*%
%TO.N,PA8*%
X147932500Y-118809800D03*
%TO.P,U1,30,PA9*%
%TO.N,PA9*%
X147932500Y-118309800D03*
%TO.P,U1,31,PA10*%
%TO.N,PA10*%
X147932500Y-117809800D03*
%TO.P,U1,32,PA11*%
%TO.N,unconnected-(U1-PA11-Pad32)*%
X147932500Y-117309800D03*
%TO.P,U1,33,PA12*%
%TO.N,unconnected-(U1-PA12-Pad33)*%
X147932500Y-116809800D03*
%TO.P,U1,34,PA13*%
%TO.N,PA13*%
X147932500Y-116309800D03*
%TO.P,U1,35,VSS*%
%TO.N,GND*%
X147932500Y-115809800D03*
%TO.P,U1,36,VDD*%
%TO.N,+3.3V*%
X147932500Y-115309800D03*
D31*
%TO.P,U1,37,PA14*%
%TO.N,PA14*%
X147245000Y-114622300D03*
%TO.P,U1,38,PA15*%
%TO.N,unconnected-(U1-PA15-Pad38)*%
X146745000Y-114622300D03*
%TO.P,U1,39,PB3*%
%TO.N,unconnected-(U1-PB3-Pad39)*%
X146245000Y-114622300D03*
%TO.P,U1,40,PB4*%
%TO.N,unconnected-(U1-PB4-Pad40)*%
X145745000Y-114622300D03*
%TO.P,U1,41,PB5*%
%TO.N,PB5*%
X145245000Y-114622300D03*
%TO.P,U1,42,PB6*%
%TO.N,PB6*%
X144745000Y-114622300D03*
%TO.P,U1,43,PB7*%
%TO.N,PB7*%
X144245000Y-114622300D03*
%TO.P,U1,44,BOOT0*%
%TO.N,Net-(U1-BOOT0)*%
X143745000Y-114622300D03*
%TO.P,U1,45,PB8*%
%TO.N,unconnected-(U1-PB8-Pad45)*%
X143245000Y-114622300D03*
%TO.P,U1,46,PB9*%
%TO.N,unconnected-(U1-PB9-Pad46)*%
X142745000Y-114622300D03*
%TO.P,U1,47,VSS*%
%TO.N,GND*%
X142245000Y-114622300D03*
%TO.P,U1,48,VDD*%
%TO.N,+3.3V*%
X141745000Y-114622300D03*
D32*
%TO.P,U1,49,VSS*%
%TO.N,GND*%
X144495000Y-118059800D03*
%TD*%
D19*
%TO.P,R14,1*%
%TO.N,DB0*%
X47120000Y-39845200D03*
%TO.P,R14,2*%
%TO.N,+5V*%
X45295000Y-39845200D03*
%TD*%
D12*
%TO.P,R2,1*%
%TO.N,Net-(U10-FB)*%
X57766900Y-129529300D03*
%TO.P,R2,2*%
%TO.N,GND*%
X57766900Y-131354300D03*
%TD*%
D18*
%TO.P,C20,1*%
%TO.N,Net-(U1-NRST)*%
X137170000Y-120712500D03*
%TO.P,C20,2*%
%TO.N,GND*%
X135620000Y-120712500D03*
%TD*%
D33*
%TO.P,U5,1,A0*%
%TO.N,GND*%
X93620000Y-113602500D03*
%TO.P,U5,2,A1*%
X93620000Y-112332500D03*
%TO.P,U5,3,A2*%
X93620000Y-111062500D03*
%TO.P,U5,4,P0*%
%TO.N,P0*%
X93620000Y-109792500D03*
%TO.P,U5,5,P1*%
%TO.N,P1*%
X93620000Y-108522500D03*
%TO.P,U5,6,P2*%
%TO.N,P2*%
X93620000Y-107252500D03*
%TO.P,U5,7,P3*%
%TO.N,P3*%
X93620000Y-105982500D03*
%TO.P,U5,8,VSS*%
%TO.N,GND*%
X93620000Y-104712500D03*
%TO.P,U5,9,P4*%
%TO.N,P4*%
X84069600Y-104712500D03*
%TO.P,U5,10,P5*%
%TO.N,P5*%
X84069600Y-105982500D03*
%TO.P,U5,11,P6*%
%TO.N,P6*%
X84069600Y-107252500D03*
%TO.P,U5,12,P7*%
%TO.N,P7*%
X84069600Y-108522500D03*
%TO.P,U5,13,~{INT}*%
%TO.N,+5V*%
X84069600Y-109792500D03*
%TO.P,U5,14,SCL*%
%TO.N,PB6*%
X84069600Y-111062500D03*
%TO.P,U5,15,SDA*%
%TO.N,PB7*%
X84069600Y-112332500D03*
%TO.P,U5,16,VDD*%
%TO.N,+3.3V*%
X84069600Y-113602500D03*
%TD*%
D34*
%TO.P,D1,1,K*%
%TO.N,Net-(D1-K)*%
X61370000Y-123212500D03*
%TO.P,D1,2,A*%
%TO.N,GND*%
X64870000Y-123212500D03*
%TD*%
D19*
%TO.P,R12,1*%
%TO.N,GND*%
X156532500Y-143212500D03*
%TO.P,R12,2*%
%TO.N,PB14*%
X154707500Y-143212500D03*
%TD*%
D16*
%TO.P,R25,1*%
%TO.N,P6*%
X56207500Y-98212500D03*
%TO.P,R25,2*%
%TO.N,+3.3V*%
X58032500Y-98212500D03*
%TD*%
D12*
%TO.P,R6,1*%
%TO.N,Net-(U2-GND)*%
X183515500Y-79484800D03*
%TO.P,R6,2*%
%TO.N,GND*%
X183515500Y-81309800D03*
%TD*%
D35*
%TO.P,L3,1,1*%
%TO.N,+3.3V*%
X143132500Y-126787500D03*
%TO.P,L3,2,2*%
%TO.N,VDDA*%
X143132500Y-125212500D03*
%TD*%
D12*
%TO.P,R7,1*%
%TO.N,Net-(R7-Pad1)*%
X194160000Y-86887500D03*
%TO.P,R7,2*%
%TO.N,Net-(R7-Pad2)*%
X194160000Y-88712500D03*
%TD*%
D13*
%TO.P,Q2,1,G*%
%TO.N,+3.3V*%
X139160000Y-92767500D03*
D14*
%TO.P,Q2,2,D*%
%TO.N,DB0*%
X136620000Y-92767500D03*
%TO.P,Q2,3,S*%
%TO.N,P0*%
X134080000Y-92767500D03*
%TD*%
D16*
%TO.P,R23,1*%
%TO.N,P5*%
X69707500Y-98212500D03*
%TO.P,R23,2*%
%TO.N,+3.3V*%
X71532500Y-98212500D03*
%TD*%
D36*
%TO.P,U10,1,GND*%
%TO.N,GND*%
X47345000Y-128837500D03*
%TO.P,U10,2,FB*%
%TO.N,Net-(U10-FB)*%
X47345000Y-127137500D03*
%TO.P,U10,3,SW*%
%TO.N,Net-(D1-K)*%
X47345000Y-125437500D03*
D37*
X40620000Y-128212500D03*
X40620000Y-122662500D03*
D38*
X38195000Y-125437500D03*
D37*
X35770000Y-128212500D03*
X35770000Y-122662500D03*
D36*
%TO.P,U10,4,VC*%
%TO.N,Net-(U10-VC)*%
X47345000Y-123737500D03*
%TO.P,U10,5,VIN*%
%TO.N,Net-(SW3-B)*%
X47345000Y-122037500D03*
%TD*%
D19*
%TO.P,R18,1*%
%TO.N,DB2*%
X47120000Y-49192100D03*
%TO.P,R18,2*%
%TO.N,+5V*%
X45295000Y-49192100D03*
%TD*%
D16*
%TO.P,R27,1*%
%TO.N,P7*%
X42707500Y-98212500D03*
%TO.P,R27,2*%
%TO.N,+3.3V*%
X44532500Y-98212500D03*
%TD*%
D19*
%TO.P,R24,1*%
%TO.N,DB5*%
X47120000Y-63212500D03*
%TO.P,R24,2*%
%TO.N,+5V*%
X45295000Y-63212500D03*
%TD*%
D12*
%TO.P,R10,1*%
%TO.N,Net-(U7-FB)*%
X72609700Y-126979800D03*
%TO.P,R10,2*%
%TO.N,GND*%
X72609700Y-128804800D03*
%TD*%
D39*
%TO.P,D2,1,K*%
%TO.N,3.3V*%
X191120000Y-140712500D03*
D40*
%TO.P,D2,2,A*%
%TO.N,Net-(D2-A)*%
X183500000Y-140712500D03*
%TD*%
D16*
%TO.P,R17,1*%
%TO.N,P2*%
X108707500Y-98212500D03*
%TO.P,R17,2*%
%TO.N,+3.3V*%
X110532500Y-98212500D03*
%TD*%
D41*
%TO.P,U13,1,Rg*%
%TO.N,Net-(R7-Pad1)*%
X191935000Y-85920000D03*
%TO.P,U13,2,-*%
%TO.N,Net-(U13--)*%
X191285000Y-85920000D03*
%TO.P,U13,3,+*%
%TO.N,Net-(U13-+)*%
X190635000Y-85920000D03*
%TO.P,U13,4,V-*%
%TO.N,Net-(U13-V-)*%
X189985000Y-85920000D03*
%TO.P,U13,5,Ref*%
%TO.N,GND*%
X189985000Y-90145000D03*
%TO.P,U13,6*%
%TO.N,PA3*%
X190635000Y-90145000D03*
%TO.P,U13,7,V+*%
%TO.N,+3.3V*%
X191285000Y-90145000D03*
%TO.P,U13,8,Rg*%
%TO.N,Net-(R7-Pad2)*%
X191935000Y-90145000D03*
%TD*%
D42*
%TO.P,BZ1,1,+*%
%TO.N,Net-(BZ1-+)*%
X208120000Y-63812500D03*
%TO.P,BZ1,2,-*%
%TO.N,GND*%
X208120000Y-50612500D03*
%TD*%
D28*
%TO.P,R8,1*%
%TO.N,+3.3V*%
X75109700Y-128804800D03*
%TO.P,R8,2*%
%TO.N,Net-(U7-FB)*%
X75109700Y-126979800D03*
%TD*%
D15*
%TO.P,C1,1*%
%TO.N,Net-(SW3-B)*%
X59120000Y-121937500D03*
%TO.P,C1,2*%
%TO.N,GND*%
X59120000Y-123487500D03*
%TD*%
D43*
%TO.P,SW2,1,1*%
%TO.N,Net-(R32-Pad2)*%
X147620000Y-107012500D03*
%TO.P,SW2,2,2*%
%TO.N,Net-(U1-BOOT0)*%
X147620000Y-110412500D03*
%TD*%
D16*
%TO.P,R21,1*%
%TO.N,P4*%
X82207500Y-98267500D03*
%TO.P,R21,2*%
%TO.N,+3.3V*%
X84032500Y-98267500D03*
%TD*%
D19*
%TO.P,R28,1*%
%TO.N,DB7*%
X47120000Y-72559400D03*
%TO.P,R28,2*%
%TO.N,+5V*%
X45295000Y-72559400D03*
%TD*%
D13*
%TO.P,Q8,1,G*%
%TO.N,+3.3V*%
X46160000Y-92767500D03*
D14*
%TO.P,Q8,2,D*%
%TO.N,DB7*%
X43620000Y-92767500D03*
%TO.P,Q8,3,S*%
%TO.N,P7*%
X41080000Y-92767500D03*
%TD*%
D12*
%TO.P,R33,1*%
%TO.N,GND*%
X144620000Y-108500000D03*
%TO.P,R33,2*%
%TO.N,Net-(U1-BOOT0)*%
X144620000Y-110325000D03*
%TD*%
D15*
%TO.P,C16,1*%
%TO.N,VDDA*%
X139132500Y-125212500D03*
%TO.P,C16,2*%
%TO.N,GND*%
X139132500Y-126762500D03*
%TD*%
D28*
%TO.P,R32,1*%
%TO.N,+3.3V*%
X150620000Y-110325000D03*
%TO.P,R32,2*%
%TO.N,Net-(R32-Pad2)*%
X150620000Y-108500000D03*
%TD*%
D44*
%TO.P,U2,1,VOUT+*%
%TO.N,Net-(U13-+)*%
X186660000Y-76942500D03*
%TO.P,U2,2,NC*%
%TO.N,unconnected-(U2-NC-Pad2)*%
X186660000Y-78212500D03*
%TO.P,U2,3,GND*%
%TO.N,Net-(U2-GND)*%
X186660000Y-79482500D03*
%TO.P,U2,4,VOUT-*%
%TO.N,Net-(U13--)*%
X195423000Y-79482500D03*
%TO.P,U2,5,N-SUB*%
%TO.N,Net-(U2-ICC)*%
X195423000Y-78212500D03*
%TO.P,U2,6,ICC*%
X195423000Y-76942500D03*
%TD*%
D45*
%TO.P,D3,1,K*%
%TO.N,Net-(BZ1-+)*%
X201120000Y-61892500D03*
D46*
%TO.P,D3,2,A*%
%TO.N,GND*%
X201120000Y-51732500D03*
%TD*%
D47*
%TO.P,C7,1*%
%TO.N,+5V*%
X73113500Y-130987300D03*
%TO.P,C7,2*%
%TO.N,GND*%
X74663500Y-130987300D03*
%TD*%
D15*
%TO.P,C6,1*%
%TO.N,Net-(U13-V-)*%
X185838500Y-85935400D03*
%TO.P,C6,2*%
%TO.N,GND*%
X185838500Y-87485400D03*
%TD*%
%TO.P,C14,1*%
%TO.N,+3.3V*%
X149120000Y-123437500D03*
%TO.P,C14,2*%
%TO.N,GND*%
X149120000Y-124987500D03*
%TD*%
%TO.P,C21,1*%
%TO.N,Net-(SW3-B)*%
X57120000Y-121937500D03*
%TO.P,C21,2*%
%TO.N,GND*%
X57120000Y-123487500D03*
%TD*%
D16*
%TO.P,R4,1*%
%TO.N,Net-(Q1-G)*%
X188073700Y-137265300D03*
%TO.P,R4,2*%
%TO.N,GND*%
X189898700Y-137265300D03*
%TD*%
D48*
%TO.P,Q1,1,G*%
%TO.N,Net-(Q1-G)*%
X184456200Y-135250600D03*
%TO.P,Q1,2,S*%
%TO.N,GND*%
X182556200Y-135250600D03*
%TO.P,Q1,3,D*%
%TO.N,Net-(D2-A)*%
X183506200Y-137125600D03*
%TD*%
D15*
%TO.P,C11,1*%
%TO.N,+12V*%
X205075300Y-139772100D03*
%TO.P,C11,2*%
%TO.N,GND*%
X205075300Y-141322100D03*
%TD*%
D19*
%TO.P,R26,1*%
%TO.N,DB6*%
X47120000Y-67886000D03*
%TO.P,R26,2*%
%TO.N,+5V*%
X45295000Y-67886000D03*
%TD*%
D49*
%TO.P,U7,1,IN*%
%TO.N,+5V*%
X66719999Y-129712450D03*
%TO.P,U7,2,GND*%
%TO.N,GND*%
X67670000Y-129712450D03*
%TO.P,U7,3,EN*%
%TO.N,+5V*%
X68620001Y-129712450D03*
%TO.P,U7,4,FB*%
%TO.N,Net-(U7-FB)*%
X68620001Y-126981950D03*
%TO.P,U7,5,OUT*%
%TO.N,+3.3V*%
X66719999Y-126981950D03*
%TD*%
D28*
%TO.P,R29,1*%
%TO.N,+3.3V*%
X78437800Y-114168700D03*
%TO.P,R29,2*%
%TO.N,PB7*%
X78437800Y-112343700D03*
%TD*%
D39*
%TO.P,C15,1*%
%TO.N,Net-(D4-K)*%
X132120000Y-111212500D03*
D50*
%TO.P,C15,2*%
%TO.N,GND*%
X132120000Y-107412500D03*
%TD*%
D29*
%TO.P,SW1,1,1*%
%TO.N,GND*%
X136832500Y-126809800D03*
%TO.P,SW1,2,2*%
%TO.N,Net-(U1-NRST)*%
X133432500Y-126809800D03*
%TD*%
D51*
%TO.P,U11,*%
%TO.N,*%
X174540000Y-78712500D03*
X174540000Y-41712500D03*
X59540000Y-78712500D03*
X59540000Y-41712500D03*
D52*
%TO.P,U11,1,VSS*%
%TO.N,GND*%
X100040000Y-79712500D03*
D53*
%TO.P,U11,2,VDD*%
%TO.N,+5V*%
X97500000Y-79712500D03*
%TO.P,U11,3,VO*%
%TO.N,Net-(U11-VO)*%
X94960000Y-79712500D03*
%TO.P,U11,4,RS*%
%TO.N,GND*%
X92420000Y-79712500D03*
%TO.P,U11,5,R/~{W}*%
X89880000Y-79712500D03*
%TO.P,U11,6,E*%
%TO.N,PB5*%
X87340000Y-79712500D03*
%TO.P,U11,7,DB0*%
%TO.N,DB0*%
X84800000Y-79712500D03*
%TO.P,U11,8,DB1*%
%TO.N,DB1*%
X82260000Y-79712500D03*
%TO.P,U11,9,DB2*%
%TO.N,DB2*%
X79720000Y-79712500D03*
%TO.P,U11,10,DB3*%
%TO.N,DB3*%
X77180000Y-79712500D03*
%TO.P,U11,11,DB4*%
%TO.N,DB4*%
X74640000Y-79712500D03*
%TO.P,U11,12,DB5*%
%TO.N,DB5*%
X72100000Y-79712500D03*
%TO.P,U11,13,DB6*%
%TO.N,DB6*%
X69560000Y-79712500D03*
%TO.P,U11,14,DB7*%
%TO.N,DB7*%
X67020000Y-79712500D03*
%TO.P,U11,15,A/VEE*%
%TO.N,+5V*%
X102580000Y-79712500D03*
%TO.P,U11,16,K*%
%TO.N,GND*%
X105120000Y-79712500D03*
D54*
%TO.P,U11,A1,A1*%
%TO.N,+5V*%
X175540000Y-65712500D03*
%TO.P,U11,A2,A2*%
X175540000Y-54712500D03*
%TO.P,U11,K1,K1*%
%TO.N,GND*%
X175540000Y-61712500D03*
%TO.P,U11,K2,K2*%
X175540000Y-50712500D03*
%TD*%
D15*
%TO.P,C12,1*%
%TO.N,+3.3V*%
X151120000Y-123437500D03*
%TO.P,C12,2*%
%TO.N,GND*%
X151120000Y-124987500D03*
%TD*%
D39*
%TO.P,U3,1,NC*%
%TO.N,unconnected-(U3-NC-Pad1)*%
X200080000Y-92212500D03*
D40*
%TO.P,U3,2,-*%
%TO.N,GND*%
X202620000Y-92212500D03*
%TO.P,U3,3,+*%
%TO.N,Net-(U3-+)*%
X205160000Y-92212500D03*
%TO.P,U3,4,V-*%
%TO.N,GND*%
X207700000Y-92212500D03*
%TO.P,U3,5,NC*%
%TO.N,unconnected-(U3-NC-Pad5)*%
X207700000Y-84592500D03*
%TO.P,U3,6*%
%TO.N,Net-(U2-ICC)*%
X205160000Y-84592500D03*
%TO.P,U3,7,V+*%
%TO.N,+3.3V*%
X202620000Y-84592500D03*
%TO.P,U3,8,NC*%
%TO.N,unconnected-(U3-NC-Pad8)*%
X200080000Y-84592500D03*
%TD*%
D16*
%TO.P,R19,1*%
%TO.N,P3*%
X95207500Y-98212500D03*
%TO.P,R19,2*%
%TO.N,+3.3V*%
X97032500Y-98212500D03*
%TD*%
D10*
%TO.P,J2,1,Pin_1*%
%TO.N,GND*%
X155120000Y-115212500D03*
D11*
%TO.P,J2,2,Pin_2*%
%TO.N,PA14*%
X157120000Y-115212500D03*
%TO.P,J2,3,Pin_3*%
%TO.N,PA13*%
X159120000Y-115212500D03*
%TO.P,J2,4,Pin_4*%
%TO.N,+3.3V*%
X161120000Y-115212500D03*
%TD*%
D16*
%TO.P,R15,1*%
%TO.N,P1*%
X122207500Y-98212500D03*
%TO.P,R15,2*%
%TO.N,+3.3V*%
X124032500Y-98212500D03*
%TD*%
D13*
%TO.P,Q4,1,G*%
%TO.N,+3.3V*%
X98660000Y-92767500D03*
D14*
%TO.P,Q4,2,D*%
%TO.N,DB3*%
X96120000Y-92767500D03*
%TO.P,Q4,3,S*%
%TO.N,P3*%
X93580000Y-92767500D03*
%TD*%
D19*
%TO.P,R20,1*%
%TO.N,DB3*%
X47120000Y-53865600D03*
%TO.P,R20,2*%
%TO.N,+5V*%
X45295000Y-53865600D03*
%TD*%
D55*
%TO.P,Y1,1,1*%
%TO.N,PC14*%
X136220000Y-115812500D03*
%TO.P,Y1,2,2*%
%TO.N,PC15*%
X136220000Y-118212500D03*
%TO.P,Y1,3*%
%TO.N,N/C*%
X138120000Y-118212500D03*
%TO.P,Y1,4*%
X138120000Y-115812500D03*
%TD*%
D13*
%TO.P,Q6,1,G*%
%TO.N,+3.3V*%
X73200000Y-92767500D03*
D14*
%TO.P,Q6,2,D*%
%TO.N,DB5*%
X70660000Y-92767500D03*
%TO.P,Q6,3,S*%
%TO.N,P5*%
X68120000Y-92767500D03*
%TD*%
D15*
%TO.P,C2,1*%
%TO.N,+3.3V*%
X155120000Y-123437500D03*
%TO.P,C2,2*%
%TO.N,GND*%
X155120000Y-124987500D03*
%TD*%
D28*
%TO.P,R30,1*%
%TO.N,+3.3V*%
X76055200Y-112904400D03*
%TO.P,R30,2*%
%TO.N,PB6*%
X76055200Y-111079400D03*
%TD*%
D15*
%TO.P,C13,1*%
%TO.N,+3.3V*%
X153120000Y-123437500D03*
%TO.P,C13,2*%
%TO.N,GND*%
X153120000Y-124987500D03*
%TD*%
D56*
%TO.N,GND*%
X92190600Y-105068000D03*
X92204000Y-111894000D03*
%TO.N,+12V*%
X46402300Y-137886000D03*
X193620000Y-144712000D03*
%TO.N,+3.3V*%
X141111000Y-107222000D03*
X148650000Y-114761000D03*
X200315000Y-137462000D03*
X155231000Y-122362000D03*
X145335000Y-126872000D03*
%TO.N,+5V*%
X72616900Y-129978000D03*
X85480300Y-109792000D03*
%TO.N,PA10*%
X203009000Y-63821400D03*
X191568000Y-117810000D03*
%TO.N,Net-(SW3-B)*%
X44534300Y-122038000D03*
X34458300Y-137572000D03*
%TO.N,PB6*%
X145000000Y-113250000D03*
%TO.N,Net-(U11-VO)*%
X136111000Y-49410800D03*
%TO.N,PB5*%
X146430591Y-113448000D03*
X93690000Y-81286500D03*
%TO.N,PB14*%
X157313000Y-143990000D03*
X154120000Y-123217000D03*
%TO.N,DB0*%
X73108100Y-37200900D03*
%TO.N,DB2*%
X61469600Y-50184700D03*
%TO.N,P2*%
X109164000Y-97225500D03*
%TO.N,PA3*%
X146128000Y-122440000D03*
X188675000Y-88981000D03*
%TO.N,DB1*%
X79440800Y-49396500D03*
%TD*%
D57*
%TO.N,GND*%
X67670000Y-129712000D02*
X67670000Y-128922000D01*
X93018300Y-111062500D02*
X93018300Y-111894000D01*
X78901400Y-129318000D02*
X77232400Y-130987000D01*
X139132500Y-126762500D02*
X139132500Y-126762000D01*
X189738000Y-61712500D02*
X175540000Y-61712500D01*
X153546000Y-115810000D02*
X147932500Y-115810000D01*
X132070000Y-117812000D02*
X132070000Y-115709800D01*
X155120000Y-115212000D02*
X154143000Y-115212000D01*
X72609700Y-128922000D02*
X67670000Y-128922000D01*
X51056700Y-135799000D02*
X51056700Y-132549000D01*
X135620000Y-120712500D02*
X135620000Y-120712000D01*
X34870000Y-141212500D02*
X34870000Y-141212000D01*
X199718000Y-51732500D02*
X189738000Y-61712500D01*
X61921300Y-126162000D02*
X59938300Y-126162000D01*
X148108000Y-126000000D02*
X141845000Y-126000000D01*
X78120000Y-127316600D02*
X78120000Y-127317000D01*
X199155300Y-139066100D02*
X199155300Y-139066000D01*
X60582900Y-122025000D02*
X59120000Y-123488000D01*
X202120000Y-137212500D02*
X202120000Y-138034000D01*
X202120000Y-137212000D02*
X202120000Y-137212500D01*
X92420000Y-79712500D02*
X92420000Y-77910800D01*
X77232400Y-130987000D02*
X74663500Y-130987000D01*
X93620000Y-113602000D02*
X93018300Y-113602000D01*
X132915000Y-106617000D02*
X142737000Y-106617000D01*
X142737000Y-106617000D02*
X144620000Y-108500000D01*
X183516000Y-85162400D02*
X185838000Y-87485400D01*
X154143000Y-115212000D02*
X153546000Y-115810000D01*
X62120000Y-126162000D02*
X61921300Y-126162000D01*
X144495000Y-115810000D02*
X144495000Y-118059800D01*
X128858000Y-111062000D02*
X93018300Y-111062000D01*
X137632000Y-126762000D02*
X137584000Y-126810000D01*
X132070000Y-117901000D02*
X132070000Y-118212000D01*
X202120000Y-136712000D02*
X202120000Y-136212500D01*
X93018300Y-111894000D02*
X93018300Y-112332000D01*
X93018300Y-111062000D02*
X93018300Y-111062500D01*
X164494000Y-135251000D02*
X156532000Y-143212000D01*
X62120000Y-126162000D02*
X64870000Y-123412000D01*
X202370000Y-135962000D02*
X203070000Y-135962000D01*
X93620000Y-112332500D02*
X93620000Y-112332000D01*
X137584000Y-126810000D02*
X137208000Y-126810000D01*
X191700000Y-139066000D02*
X189899000Y-137265000D01*
X132070000Y-117901000D02*
X134881000Y-120712000D01*
X93018300Y-113602000D02*
X79304200Y-127317000D01*
X201518000Y-91594600D02*
X201518000Y-92212500D01*
X155120000Y-125876000D02*
X155120000Y-124988000D01*
X45620000Y-142212500D02*
X45620000Y-142212000D01*
X59120000Y-123488000D02*
X57120000Y-123488000D01*
X142245000Y-114622300D02*
X142245000Y-114622000D01*
X78901400Y-127317000D02*
X78901400Y-129318000D01*
X203075400Y-141322000D02*
X203075300Y-141322100D01*
X132858000Y-127962000D02*
X132681000Y-127785000D01*
X34870000Y-141212000D02*
X35007400Y-141075000D01*
X93620000Y-113602500D02*
X93620000Y-113602000D01*
X146745000Y-121036000D02*
X144519000Y-118810000D01*
X74663500Y-130987000D02*
X73881900Y-131769000D01*
X151120000Y-124987500D02*
X151120000Y-124988000D01*
X144495000Y-118810000D02*
X141058000Y-118810000D01*
X201518000Y-92212500D02*
X202620000Y-92212500D01*
X92416600Y-113602000D02*
X93018300Y-113602000D01*
X62120000Y-126162500D02*
X61921800Y-126162500D01*
X208120000Y-50612500D02*
X207419000Y-50612500D01*
X153120000Y-124987500D02*
X153120000Y-124988000D01*
X132681000Y-127785000D02*
X132681000Y-122913000D01*
X59938300Y-126162500D02*
X59938300Y-126162000D01*
X132119800Y-107412300D02*
X132119800Y-107412200D01*
X134881000Y-120712000D02*
X135620000Y-120712000D01*
X151120000Y-124988000D02*
X149120000Y-124988000D01*
X144495000Y-118059800D02*
X144495000Y-118810000D01*
X201034000Y-91110800D02*
X201518000Y-91594600D01*
X185838000Y-87485400D02*
X188498000Y-90145000D01*
X199155300Y-139066000D02*
X191700000Y-139066000D01*
X142245000Y-115084000D02*
X142245000Y-114622300D01*
X57974200Y-131561500D02*
X57766900Y-131354000D01*
X92416600Y-112934000D02*
X92416600Y-113602000D01*
X203070000Y-135962500D02*
X203070000Y-135962000D01*
X51056700Y-132549000D02*
X47345000Y-128838000D01*
X141057500Y-118809800D02*
X141057800Y-118809800D01*
X202120000Y-136212000D02*
X202370000Y-135962000D01*
X92416600Y-104712000D02*
X92416600Y-104842000D01*
X146745000Y-122612000D02*
X146745000Y-121497300D01*
X146745000Y-121497300D02*
X146745000Y-121036000D01*
X202120000Y-136712500D02*
X202120000Y-136712000D01*
X78901400Y-127317000D02*
X78120000Y-127317000D01*
X132070000Y-118212500D02*
X132070000Y-118212000D01*
X132070000Y-117812000D02*
X132070000Y-117901000D01*
X132070000Y-117812000D02*
X132070000Y-117901000D01*
X201088000Y-139334000D02*
X203075000Y-141322000D01*
X92416600Y-104842000D02*
X92190600Y-105068000D01*
X201088000Y-139066000D02*
X201088000Y-139334000D01*
X153120000Y-124988000D02*
X151120000Y-124988000D01*
X189898700Y-137265300D02*
X189111000Y-138053000D01*
X132070000Y-115709800D02*
X132070000Y-114274000D01*
X195704000Y-91110800D02*
X201034000Y-91110800D01*
X142971000Y-115810000D02*
X142245000Y-115084000D01*
X93620000Y-104712000D02*
X92416600Y-104712000D01*
X141845000Y-126000000D02*
X141132000Y-126712000D01*
X164494000Y-135251000D02*
X155120000Y-125876000D01*
X93018300Y-112332000D02*
X92416600Y-112934000D01*
X58181500Y-131769000D02*
X57974200Y-131561500D01*
X35007400Y-141075000D02*
X43505900Y-141075000D01*
X57766900Y-131354000D02*
X52251600Y-131354000D01*
X206718000Y-50612500D02*
X207419000Y-50612500D01*
X207419000Y-50612500D02*
X208120000Y-49911700D01*
X205598000Y-51732500D02*
X206718000Y-50612500D01*
X59120000Y-123487500D02*
X59120000Y-123488000D01*
X47345000Y-128837500D02*
X47345000Y-128838000D01*
X89880000Y-77910800D02*
X89880000Y-79712500D01*
X136057000Y-127962000D02*
X132858000Y-127962000D01*
X57974100Y-131561500D02*
X57766900Y-131354300D01*
X67036800Y-128288000D02*
X64246000Y-128288000D01*
X205075300Y-141322100D02*
X205075100Y-141322100D01*
X155120000Y-124987500D02*
X155120000Y-124988000D01*
X132119800Y-107412200D02*
X132915000Y-106617000D01*
X141132500Y-126712500D02*
X141132000Y-126712000D01*
X201088000Y-139066000D02*
X199155300Y-139066000D01*
X64870000Y-123412000D02*
X64870000Y-123212500D01*
X208120000Y-49911700D02*
X208120000Y-46312500D01*
X93620000Y-111062500D02*
X93018300Y-111062500D01*
X93620000Y-112332000D02*
X93018300Y-112332000D01*
X93620000Y-104712500D02*
X93620000Y-104712000D01*
X189985000Y-90971600D02*
X190301000Y-91287700D01*
X141082000Y-126762000D02*
X139132500Y-126762000D01*
X72609700Y-128922000D02*
X72609700Y-128805000D01*
X63682100Y-122025000D02*
X60582900Y-122025000D01*
X149120000Y-124987500D02*
X149120000Y-124988000D01*
X128858000Y-111062000D02*
X128858000Y-110674000D01*
X141057800Y-118809800D02*
X141058000Y-118810000D01*
X132070000Y-114274000D02*
X128858000Y-111062000D01*
X57120000Y-123487500D02*
X57120000Y-123488000D01*
X43505900Y-141075000D02*
X44643300Y-142212000D01*
X74663500Y-130987000D02*
X72609700Y-128934000D01*
X44643300Y-142212000D02*
X51056700Y-135799000D01*
X183515500Y-81309800D02*
X183516000Y-81309800D01*
X144495000Y-115810000D02*
X142971000Y-115810000D01*
X202120000Y-136212500D02*
X202120000Y-136212000D01*
X149120000Y-124988000D02*
X146745000Y-122612000D01*
X136832000Y-126810000D02*
X137208000Y-126810000D01*
X205075100Y-141322100D02*
X205075000Y-141322000D01*
X189111000Y-138053000D02*
X185811000Y-138053000D01*
X64246000Y-128288000D02*
X62120000Y-126162000D01*
X57974200Y-131561500D02*
X57974100Y-131561500D01*
X92420000Y-77910800D02*
X89880000Y-77910800D01*
X183008000Y-135251000D02*
X164494000Y-135251000D01*
X185838500Y-87485400D02*
X185838000Y-87485400D01*
X183516000Y-81309800D02*
X183516000Y-85162400D01*
X189899000Y-137265000D02*
X189898700Y-137265300D01*
X73881900Y-131769000D02*
X58181500Y-131769000D01*
X185811000Y-138053000D02*
X183008000Y-135251000D01*
X93018300Y-111894000D02*
X92204000Y-111894000D01*
X201120000Y-51732500D02*
X205598000Y-51732500D01*
X203075400Y-141322000D02*
X205075000Y-141322000D01*
X64870000Y-123212500D02*
X64870000Y-123212000D01*
X195527000Y-91287700D02*
X195704000Y-91110800D01*
X190301000Y-91287700D02*
X195527000Y-91287700D01*
X61921800Y-126162500D02*
X61921300Y-126162000D01*
X203075000Y-141322000D02*
X203075400Y-141322000D01*
X149120000Y-124988000D02*
X148108000Y-126000000D01*
X64870000Y-123212000D02*
X63682100Y-122025000D01*
X132120000Y-107412500D02*
X132119800Y-107412300D01*
X188498000Y-90145000D02*
X189985000Y-90145000D01*
X189985000Y-90145000D02*
X189985000Y-90971600D01*
X156532500Y-143212500D02*
X156532000Y-143212000D01*
X141132000Y-126712000D02*
X141082000Y-126762000D01*
X139132500Y-126762000D02*
X137632000Y-126762000D01*
X137208000Y-126810000D02*
X136057000Y-127962000D01*
X155120000Y-124988000D02*
X153120000Y-124988000D01*
X128858000Y-110674000D02*
X132119800Y-107412200D01*
X72609700Y-128934000D02*
X72609700Y-128922000D01*
X132681000Y-122913000D02*
X134881000Y-120712000D01*
X45620000Y-142212000D02*
X44643300Y-142212000D01*
X201120000Y-51732500D02*
X199718000Y-51732500D01*
X79304200Y-127317000D02*
X78901400Y-127317000D01*
X144519000Y-118810000D02*
X144495000Y-118810000D01*
X147932500Y-115809800D02*
X147932500Y-115810000D01*
X72609700Y-128804800D02*
X72609700Y-128805000D01*
X52251600Y-131354000D02*
X51056700Y-132549000D01*
X147932500Y-115810000D02*
X144495000Y-115810000D01*
X202120000Y-138034000D02*
X201088000Y-139066000D01*
X67670000Y-128922000D02*
X67036800Y-128288000D01*
%TO.N,+12V*%
X203075400Y-139772000D02*
X205075000Y-139772000D01*
X205075300Y-139772100D02*
X205075100Y-139772100D01*
X34870200Y-136212300D02*
X34870200Y-136212000D01*
X205075000Y-139772000D02*
X205075100Y-139772100D01*
X203075000Y-139772000D02*
X203075400Y-139772000D01*
X203070500Y-137462500D02*
X203164000Y-137556000D01*
X205075100Y-139772100D02*
X205899000Y-140596000D01*
X34870000Y-136212500D02*
X34870200Y-136212300D01*
X36543700Y-137886000D02*
X34870200Y-136212000D01*
X46402300Y-137886000D02*
X36543700Y-137886000D01*
X193620000Y-144712000D02*
X192643000Y-145689000D01*
X205899000Y-141721000D02*
X202908000Y-144712000D01*
X205075000Y-139468000D02*
X203164000Y-137556000D01*
X203075400Y-139772000D02*
X203075300Y-139772100D01*
X51096700Y-145689000D02*
X47620200Y-142212000D01*
X202908000Y-144712000D02*
X193620000Y-144712000D01*
X47620000Y-142212500D02*
X47620200Y-142212300D01*
X205899000Y-140596000D02*
X205899000Y-141721000D01*
X47620200Y-142212300D02*
X47620200Y-142212000D01*
X205075000Y-139772000D02*
X205075000Y-139468000D01*
X192643000Y-145689000D02*
X51096700Y-145689000D01*
X203070000Y-137462500D02*
X203070500Y-137462500D01*
%TO.N,+3.3V*%
X138120000Y-108888000D02*
X139786000Y-107222000D01*
X86954200Y-92767500D02*
X86954200Y-91402100D01*
X201170000Y-137462500D02*
X201170000Y-137462000D01*
X192819000Y-97212500D02*
X191285000Y-95678600D01*
X191285000Y-90145000D02*
X191285000Y-89288700D01*
X137532000Y-98212500D02*
X139160000Y-96585000D01*
X202620000Y-84592500D02*
X201518000Y-84592500D01*
X155120000Y-123438000D02*
X154751000Y-123438000D01*
X71192800Y-91465800D02*
X62255900Y-91465800D01*
X149120000Y-123438000D02*
X149120000Y-123437500D01*
X147932400Y-115309700D02*
X147932400Y-115309600D01*
X79004000Y-113602000D02*
X78437800Y-114169000D01*
X85700000Y-92767500D02*
X86954200Y-92767500D01*
X151120000Y-123437500D02*
X151120000Y-123438000D01*
X112160000Y-92767500D02*
X110906000Y-92767500D01*
X97405800Y-92157200D02*
X96650700Y-91402100D01*
X59648900Y-91462200D02*
X60954200Y-92767500D01*
X74077400Y-127772000D02*
X75109600Y-128804900D01*
X192774000Y-87800000D02*
X199803000Y-87800000D01*
X155120000Y-122473000D02*
X155120000Y-123437500D01*
X73200000Y-92767500D02*
X74454200Y-92767500D01*
X199803000Y-87800000D02*
X203890000Y-91886800D01*
X148481000Y-114761000D02*
X147932400Y-115309600D01*
X73200000Y-96545000D02*
X73200000Y-92767500D01*
X110532000Y-94428400D02*
X110516000Y-94411700D01*
X71945800Y-92767500D02*
X71945800Y-92218800D01*
X97405800Y-97839200D02*
X97405800Y-94411700D01*
X76055200Y-112904400D02*
X76055200Y-112904000D01*
X84069600Y-113602000D02*
X79004000Y-113602000D01*
X46160000Y-96585000D02*
X46160000Y-92767500D01*
X139160000Y-95678600D02*
X139160000Y-92767500D01*
X124032500Y-98212500D02*
X124032200Y-98212500D01*
X203890000Y-91886800D02*
X203890000Y-95902500D01*
X146620000Y-128156000D02*
X145335000Y-126872000D01*
X147932400Y-115309600D02*
X147932000Y-115310000D01*
X62255900Y-91465800D02*
X60954200Y-92767500D01*
X203890000Y-95902500D02*
X205200000Y-97212500D01*
X78437800Y-114168700D02*
X78437800Y-114169000D01*
X71945800Y-92218800D02*
X71192800Y-91465800D01*
X66720000Y-127772000D02*
X74077400Y-127772000D01*
X141745000Y-111172000D02*
X149773000Y-111172000D01*
X74454200Y-92767500D02*
X75819600Y-91402100D01*
X110906000Y-94021700D02*
X110516000Y-94411700D01*
X97405800Y-94411700D02*
X97405800Y-92767500D01*
X143216000Y-126872000D02*
X143132000Y-126788000D01*
X84445800Y-97854200D02*
X84445800Y-92767500D01*
X147932500Y-115309800D02*
X147932400Y-115309700D01*
X151120000Y-123438000D02*
X149120000Y-123438000D01*
X141745000Y-114622000D02*
X141745000Y-111172000D01*
X75819600Y-91402100D02*
X86954200Y-91402100D01*
X110516000Y-94411700D02*
X97405800Y-94411700D01*
X146620000Y-141387500D02*
X146620000Y-128156000D01*
X141745000Y-114622300D02*
X141745000Y-114622000D01*
X47414200Y-92767500D02*
X48719500Y-91462200D01*
X84445800Y-92767500D02*
X85700000Y-92767500D01*
X84976800Y-109224000D02*
X85273000Y-108928000D01*
X84032500Y-98267500D02*
X84445800Y-97854200D01*
X75109700Y-128804800D02*
X75109600Y-128804900D01*
X48719500Y-91462200D02*
X59648900Y-91462200D01*
X75270000Y-110589000D02*
X76634600Y-109224000D01*
X85273000Y-108928000D02*
X85273000Y-99508000D01*
X76055200Y-112904000D02*
X75270000Y-112119000D01*
X110532500Y-98212500D02*
X110532000Y-98212500D01*
X154751000Y-123438000D02*
X154369000Y-123819000D01*
X44532500Y-98212500D02*
X46160000Y-96585000D01*
X153120000Y-123437500D02*
X153120000Y-123438000D01*
X153120000Y-123438000D02*
X151120000Y-123438000D01*
X149120000Y-123372000D02*
X148182000Y-122434000D01*
X59700000Y-92767500D02*
X60954200Y-92767500D01*
X199155300Y-137516100D02*
X199155100Y-137515900D01*
X76634600Y-109224000D02*
X84976800Y-109224000D01*
X46160000Y-92767500D02*
X47414200Y-92767500D01*
X153502000Y-123819000D02*
X153120000Y-123438000D01*
X110532000Y-98212500D02*
X110532000Y-94428400D01*
X78120000Y-128866600D02*
X78119800Y-128866800D01*
X78058200Y-128805000D02*
X78119800Y-128867000D01*
X149120000Y-123437500D02*
X149120000Y-123372000D01*
X201170000Y-137462000D02*
X200315000Y-137462000D01*
X201170000Y-136962000D02*
X201170000Y-136962500D01*
X75109600Y-128804900D02*
X75109700Y-128805000D01*
X75270000Y-112119000D02*
X75270000Y-110589000D01*
X137532500Y-98212500D02*
X137532000Y-98212500D01*
X125660000Y-92767500D02*
X125660000Y-96585000D01*
X147245000Y-121497300D02*
X147245300Y-121497300D01*
X139160000Y-96585000D02*
X139160000Y-95678600D01*
X141745000Y-111172000D02*
X139461000Y-108888000D01*
X147245300Y-121497300D02*
X148182000Y-122434000D01*
X98660000Y-92767500D02*
X97405800Y-92767500D01*
X201518000Y-86084900D02*
X199803000Y-87800000D01*
X78119800Y-128866800D02*
X78119800Y-128867000D01*
X75109700Y-128805000D02*
X78058200Y-128805000D01*
X199155100Y-137515900D02*
X199155000Y-137516000D01*
X201518000Y-84592500D02*
X201518000Y-86084900D01*
X125660000Y-96585000D02*
X124032000Y-98212300D01*
X85273000Y-99508000D02*
X84032500Y-98267500D01*
X148650000Y-114761000D02*
X148481000Y-114761000D01*
X110906000Y-92767500D02*
X110906000Y-94021700D01*
X191285000Y-95678600D02*
X139160000Y-95678600D01*
X124032200Y-98212500D02*
X124032000Y-98212300D01*
X73200000Y-92767500D02*
X71945800Y-92767500D01*
X66720000Y-124768000D02*
X77319500Y-114169000D01*
X59700000Y-96545000D02*
X59700000Y-92767500D01*
X201170000Y-136962500D02*
X201170000Y-137462000D01*
X66720000Y-126981900D02*
X66720000Y-127772000D01*
X139461000Y-108888000D02*
X138120000Y-108888000D01*
X191285000Y-89288700D02*
X192774000Y-87800000D01*
X154369000Y-123819000D02*
X153502000Y-123819000D01*
X139786000Y-107222000D02*
X141111000Y-107222000D01*
X155231000Y-122362000D02*
X155120000Y-122473000D01*
X205200000Y-97212500D02*
X192819000Y-97212500D01*
X97405800Y-92767500D02*
X97405800Y-92157200D01*
X149773000Y-111172000D02*
X150620000Y-110325000D01*
X71532500Y-98212500D02*
X73200000Y-96545000D01*
X78437800Y-114169000D02*
X77319500Y-114169000D01*
X66720000Y-126981900D02*
X66720000Y-124768000D01*
X97032500Y-98212500D02*
X97405800Y-97839200D01*
X155120000Y-123437500D02*
X155120000Y-123438000D01*
X145335000Y-126872000D02*
X143216000Y-126872000D01*
X77319500Y-114169000D02*
X76055200Y-112904000D01*
X96650700Y-91402100D02*
X86954200Y-91402100D01*
X146620000Y-141388000D02*
X146620000Y-141387500D01*
X200315000Y-137462000D02*
X199209000Y-137462000D01*
X58032500Y-98212500D02*
X59700000Y-96545000D01*
X199209000Y-137462000D02*
X199155100Y-137515900D01*
%TO.N,+5V*%
X97436700Y-72767500D02*
X97435300Y-72766100D01*
X97434300Y-72765100D02*
X97434600Y-72765400D01*
X66720000Y-130503000D02*
X66720000Y-129712400D01*
X59938300Y-127712000D02*
X59614200Y-127712000D01*
X77731500Y-53062300D02*
X97412000Y-72742800D01*
X45295000Y-72559400D02*
X45295000Y-67886000D01*
X45295000Y-39845200D02*
X45295000Y-44518600D01*
X45295000Y-67886000D02*
X45295000Y-63212500D01*
X62120000Y-127712000D02*
X59938800Y-127712000D01*
X45295000Y-44518600D02*
X45295000Y-49192100D01*
X97439500Y-72770300D02*
X97445000Y-72775800D01*
X97456000Y-72786800D02*
X97500000Y-72830800D01*
X59938600Y-127712000D02*
X59938300Y-127712000D01*
X114778000Y-65712500D02*
X175540000Y-65712500D01*
X62422200Y-128014500D02*
X62422000Y-128014500D01*
X45295000Y-58539000D02*
X45295000Y-53865600D01*
X62422200Y-128014500D02*
X62120000Y-127712000D01*
X195537000Y-54712500D02*
X175540000Y-54712500D01*
X97445000Y-72775800D02*
X97456000Y-72786800D01*
X56111700Y-127500000D02*
X57756700Y-125855000D01*
X45295000Y-53062300D02*
X77731500Y-53062300D01*
X97435300Y-72766100D02*
X97434600Y-72765400D01*
X68620000Y-129712000D02*
X68620000Y-129712400D01*
X97434300Y-72765100D02*
X97434100Y-72764900D01*
X59938300Y-127712300D02*
X59938300Y-127712500D01*
X59938600Y-127712000D02*
X59938300Y-127712300D01*
X62724500Y-128317000D02*
X62120000Y-127712000D01*
X68620000Y-129712400D02*
X68620000Y-130503000D01*
X63329200Y-128922000D02*
X62724500Y-128317000D01*
X68620000Y-130503000D02*
X66720000Y-130503000D01*
X208120000Y-42129200D02*
X195537000Y-54712500D01*
X97412000Y-72742800D02*
X97434000Y-72764800D01*
X66720000Y-128922000D02*
X63329200Y-128922000D01*
X72616900Y-129978000D02*
X72616900Y-130491000D01*
X45295000Y-53062300D02*
X45295000Y-49192100D01*
X208120000Y-41232500D02*
X208120000Y-42129200D01*
X62724500Y-128317000D02*
X62724400Y-128317000D01*
X72616900Y-130491000D02*
X72604600Y-130503000D01*
X59614200Y-127712000D02*
X57756700Y-125855000D01*
X62724400Y-128317000D02*
X62422200Y-128014500D01*
X97434000Y-72764800D02*
X97434100Y-72764900D01*
X45295000Y-63212500D02*
X45295000Y-58539000D01*
X59938600Y-127712000D02*
X59938300Y-127712000D01*
X97439500Y-72770300D02*
X97436700Y-72767500D01*
X97435300Y-72766100D02*
X97436700Y-72767500D01*
X84069600Y-109792000D02*
X85480300Y-109792000D01*
X97434600Y-72765400D02*
X97434300Y-72765100D01*
X102580000Y-79712500D02*
X102580000Y-77910800D01*
X97436700Y-72767500D02*
X97439500Y-72770300D01*
X45295000Y-53865600D02*
X45295000Y-53062300D01*
X97434600Y-72765400D02*
X97435300Y-72766100D01*
X102580000Y-77910800D02*
X114778000Y-65712500D01*
X97445000Y-72775800D02*
X97439500Y-72770300D01*
X72616900Y-130491000D02*
X73113500Y-130987000D01*
X59938800Y-127712000D02*
X59938600Y-127712000D01*
X97434100Y-72764900D02*
X97434300Y-72765100D01*
X66720000Y-129712400D02*
X66720000Y-128922000D01*
X97500000Y-72830800D02*
X102580000Y-77910800D01*
X59938800Y-127712000D02*
X59938600Y-127712000D01*
X97434100Y-72764900D02*
X97434000Y-72764800D01*
X97500000Y-72830800D02*
X97456000Y-72786800D01*
X97456000Y-72786800D02*
X97445000Y-72775800D01*
X62422000Y-128014500D02*
X62120000Y-127712500D01*
X84069600Y-109792500D02*
X84069600Y-109792000D01*
X54120000Y-127500000D02*
X56111700Y-127500000D01*
X72604600Y-130503000D02*
X68620000Y-130503000D01*
X97434000Y-72764800D02*
X97412000Y-72742800D01*
%TO.N,VDDA*%
X141182000Y-125212000D02*
X141132500Y-125162500D01*
X140260000Y-119580000D02*
X140530000Y-119310000D01*
X140616000Y-124644000D02*
X140260000Y-124288000D01*
X141057000Y-119310000D02*
X141057300Y-119310000D01*
X140260000Y-124288000D02*
X140260000Y-119580000D01*
X139133000Y-125212000D02*
X139132500Y-125212500D01*
X140616000Y-124646000D02*
X140049000Y-125212000D01*
X141132500Y-125162500D02*
X140616000Y-124646000D01*
X143132000Y-125212000D02*
X141182000Y-125212000D01*
X140616000Y-124646000D02*
X140616000Y-124644000D01*
X140530000Y-119310000D02*
X141057000Y-119310000D01*
X141057300Y-119310000D02*
X141057500Y-119309800D01*
X140049000Y-125212000D02*
X139133000Y-125212000D01*
%TO.N,Net-(U1-NRST)*%
X137170000Y-120712000D02*
X137488000Y-120712000D01*
X133432500Y-126809500D02*
X133432500Y-126809800D01*
X137488000Y-120712000D02*
X139890000Y-118310000D01*
X137170000Y-120712500D02*
X137170000Y-120712000D01*
X133432500Y-126809500D02*
X137170000Y-123072000D01*
X137170000Y-123072000D02*
X137170000Y-120712500D01*
X139890000Y-118310000D02*
X141057000Y-118310000D01*
X133432000Y-126810000D02*
X133432500Y-126809500D01*
%TO.N,PC15*%
X137122000Y-117424000D02*
X137731000Y-116814000D01*
X141053000Y-116814000D02*
X141056000Y-116812000D01*
X141057500Y-116809800D02*
X141056000Y-116811300D01*
X137731000Y-116814000D02*
X141053000Y-116814000D01*
X141056000Y-116811300D02*
X141056000Y-116812000D01*
X137122000Y-118212000D02*
X137122000Y-117424000D01*
X133620000Y-118212000D02*
X137122000Y-118212000D01*
X133620000Y-118212500D02*
X133620000Y-118212000D01*
%TO.N,PC14*%
X136220000Y-115812000D02*
X135318000Y-115812000D01*
X137125000Y-115081000D02*
X137125000Y-115678000D01*
X135318000Y-115736000D02*
X135292000Y-115710000D01*
X141058000Y-116310000D02*
X141057500Y-116310000D01*
X141057500Y-116309800D02*
X141057500Y-116310000D01*
X138989000Y-114756000D02*
X137450000Y-114756000D01*
X135318000Y-115812000D02*
X135318000Y-115736000D01*
X140543000Y-116310000D02*
X138989000Y-114756000D01*
X137450000Y-114756000D02*
X137125000Y-115081000D01*
X135292000Y-115710000D02*
X133620200Y-115710000D01*
X137125000Y-115678000D02*
X137066000Y-115736000D01*
X133620200Y-115710000D02*
X133620000Y-115710000D01*
X133620200Y-115710000D02*
X133620000Y-115709800D01*
X141057500Y-116310000D02*
X140543000Y-116310000D01*
X137066000Y-115736000D02*
X135318000Y-115736000D01*
%TO.N,Net-(BZ1-+)*%
X204906000Y-65625200D02*
X206718000Y-63812500D01*
X201208000Y-64097100D02*
X201208000Y-64097600D01*
X201208000Y-64097600D02*
X201208000Y-64455000D01*
X201208000Y-64455000D02*
X201208000Y-64812500D01*
X201208000Y-63381700D02*
X201208000Y-64097100D01*
X206718000Y-63812500D02*
X208120000Y-63812500D01*
X201208000Y-64455000D02*
X201208000Y-64812500D01*
X201120000Y-61892500D02*
X201120000Y-63294200D01*
X201208000Y-64097100D02*
X201208000Y-64097600D01*
X202020000Y-65625200D02*
X204906000Y-65625200D01*
X201208000Y-64812500D02*
X202020000Y-65625200D01*
X201208000Y-64097600D02*
X201208000Y-64455000D01*
X201120000Y-63294200D02*
X201208000Y-63381700D01*
%TO.N,PA10*%
X147932500Y-117810000D02*
X147932000Y-117810000D01*
X191568000Y-117810000D02*
X147932500Y-117810000D01*
X203009000Y-64789200D02*
X203009000Y-63821400D01*
X203032500Y-64812500D02*
X203032000Y-64812500D01*
X203032000Y-64812500D02*
X203009000Y-64789200D01*
X147932500Y-117809800D02*
X147932500Y-117810000D01*
%TO.N,Net-(SW3-B)*%
X59120000Y-121937500D02*
X59119500Y-121938000D01*
X54120500Y-121938000D02*
X54120300Y-121938000D01*
X47345500Y-122038000D02*
X47345000Y-122038000D01*
X57120500Y-121938000D02*
X59119500Y-121938000D01*
X34870000Y-138712000D02*
X34870000Y-137984000D01*
X57119500Y-121938000D02*
X57120000Y-121938000D01*
X47345500Y-122038000D02*
X47345000Y-122038000D01*
X54120000Y-121938000D02*
X54020000Y-122038000D01*
X57119500Y-121938000D02*
X54120500Y-121938000D01*
X57119500Y-121938000D02*
X57120000Y-121938000D01*
X57120000Y-121938000D02*
X57120500Y-121938000D01*
X54020000Y-122038000D02*
X47345500Y-122038000D01*
X54120300Y-121938000D02*
X54120000Y-121938000D01*
X54120000Y-121937700D02*
X54120000Y-121937500D01*
X54120300Y-121938000D02*
X54120000Y-121938000D01*
X54120500Y-121938000D02*
X54120300Y-121938000D01*
X54120300Y-121938000D02*
X54120000Y-121937700D01*
X57120500Y-121938000D02*
X57120000Y-121937500D01*
X34870000Y-137984000D02*
X34458300Y-137572000D01*
X47345000Y-122038000D02*
X44534300Y-122038000D01*
%TO.N,Net-(U10-VC)*%
X54120000Y-123488000D02*
X54120000Y-123487500D01*
X47345500Y-123738000D02*
X53870000Y-123738000D01*
X53870000Y-123738000D02*
X54120000Y-123488000D01*
%TO.N,Net-(D2-A)*%
X183506000Y-137126000D02*
X183500000Y-137132000D01*
X183506200Y-137125800D02*
X183506200Y-137125600D01*
X183500000Y-137132000D02*
X183500000Y-140712000D01*
X183506000Y-137126000D02*
X183506200Y-137125800D01*
%TO.N,VBAT*%
X140339000Y-113906500D02*
X141058000Y-114625000D01*
X139620000Y-113188000D02*
X140339000Y-113906500D01*
X140339000Y-113906500D02*
X139620000Y-113187500D01*
X141058000Y-115309300D02*
X141058000Y-114968000D01*
X141058000Y-114625000D02*
X141058000Y-114968000D01*
X141057500Y-115309800D02*
X141058000Y-115309300D01*
%TO.N,Net-(D4-A)*%
X137965000Y-110867000D02*
X137810000Y-111022000D01*
X138043000Y-110789500D02*
X138120000Y-110712500D01*
X137966000Y-110867000D02*
X138043000Y-110789500D01*
X137810000Y-111022000D02*
X137810000Y-111775000D01*
X137965000Y-110867000D02*
X137966000Y-110867000D01*
X138120000Y-110712000D02*
X137965000Y-110867000D01*
X138043000Y-110789500D02*
X138120000Y-110712000D01*
%TO.N,PA13*%
X157412000Y-116310000D02*
X147933000Y-116310000D01*
X147933000Y-116310000D02*
X147932700Y-116310000D01*
X147932700Y-116310000D02*
X147932500Y-116309800D01*
X158143000Y-115212000D02*
X158143000Y-115579000D01*
X158143000Y-115579000D02*
X157412000Y-116310000D01*
X159120000Y-115212000D02*
X158143000Y-115212000D01*
%TO.N,PA14*%
X156143000Y-115212000D02*
X156143000Y-114358000D01*
X155888000Y-114103000D02*
X147764000Y-114103000D01*
X157120000Y-115212000D02*
X156143000Y-115212000D01*
X156143000Y-114358000D02*
X155888000Y-114103000D01*
X147764000Y-114103000D02*
X147245000Y-114622000D01*
X147245000Y-114622000D02*
X147245000Y-114622300D01*
%TO.N,Net-(M1--)*%
X207643000Y-135712000D02*
X206893000Y-136462000D01*
X208619500Y-135712000D02*
X207643000Y-135712000D01*
X206893000Y-136462000D02*
X203070500Y-136462000D01*
X203070500Y-136462000D02*
X203070000Y-136462000D01*
X208620000Y-135712000D02*
X208619500Y-135712000D01*
X208619500Y-135712000D02*
X208620000Y-135712500D01*
X203070500Y-136462000D02*
X203070000Y-136462500D01*
%TO.N,Net-(M1-+)*%
X207643000Y-137712000D02*
X206893000Y-136962000D01*
X208620000Y-137712000D02*
X208619500Y-137712000D01*
X203070500Y-136962000D02*
X203070000Y-136962500D01*
X206893000Y-136962000D02*
X203070500Y-136962000D01*
X208619500Y-137712000D02*
X207643000Y-137712000D01*
X203070500Y-136962000D02*
X203070000Y-136962000D01*
X208619500Y-137712000D02*
X208620000Y-137712500D01*
%TO.N,PB15*%
X189945000Y-135212000D02*
X174042000Y-119310000D01*
X174042000Y-119310000D02*
X147933000Y-119310000D01*
X147932700Y-119310000D02*
X147932500Y-119309800D01*
X147933000Y-119310000D02*
X147932700Y-119310000D01*
X189945000Y-135212000D02*
X189945000Y-135212500D01*
%TO.N,PB6*%
X144745000Y-113505000D02*
X145000000Y-113250000D01*
X76055200Y-111079000D02*
X76072100Y-111062000D01*
X144745000Y-114622300D02*
X144745000Y-113505000D01*
X84069600Y-111062500D02*
X84069600Y-111062000D01*
X76055200Y-111079000D02*
X76055200Y-111079400D01*
X76072100Y-111062000D02*
X84069600Y-111062000D01*
%TO.N,Net-(U7-FB)*%
X75109700Y-126979800D02*
X75109500Y-126980000D01*
X72609700Y-126980000D02*
X72609700Y-126979800D01*
X68620100Y-126982000D02*
X68620000Y-126981900D01*
X72607600Y-126982000D02*
X72609700Y-126980000D01*
X72609700Y-126980000D02*
X75109500Y-126980000D01*
X68620100Y-126982000D02*
X72607600Y-126982000D01*
%TO.N,Net-(U1-BOOT0)*%
X147620000Y-110412000D02*
X148533000Y-109499000D01*
X151078000Y-109499000D02*
X151430000Y-109851000D01*
X144259000Y-112241000D02*
X143745000Y-112755000D01*
X144708000Y-110412000D02*
X147620000Y-110412000D01*
X149970000Y-112241000D02*
X144259000Y-112241000D01*
X151430000Y-109851000D02*
X151430000Y-110782000D01*
X148533000Y-109499000D02*
X151078000Y-109499000D01*
X151430000Y-110782000D02*
X149970000Y-112241000D01*
X144620000Y-110325000D02*
X144708000Y-110412000D01*
X143745000Y-112755000D02*
X143745000Y-114622300D01*
%TO.N,Net-(U3-+)*%
X205160000Y-92212500D02*
X205160000Y-95347500D01*
X205160000Y-95347500D02*
X205200000Y-95387500D01*
%TO.N,Net-(U10-FB)*%
X47345000Y-127138000D02*
X50593400Y-127138000D01*
X57140600Y-128296000D02*
X57756700Y-127680000D01*
X50593400Y-127138000D02*
X51752000Y-128296000D01*
X57140600Y-128903000D02*
X57766900Y-129529000D01*
X57140600Y-128296000D02*
X57140600Y-128903000D01*
X57766900Y-129529300D02*
X57766900Y-129529000D01*
X51752000Y-128296000D02*
X57140600Y-128296000D01*
%TO.N,Net-(U2-GND)*%
X183518000Y-79482500D02*
X183516000Y-79484800D01*
X183515500Y-79484800D02*
X183516000Y-79484800D01*
X186660000Y-79482500D02*
X183518000Y-79482500D01*
%TO.N,PB7*%
X144095000Y-112905000D02*
X144409000Y-112591000D01*
X78446200Y-112335000D02*
X78443400Y-112338000D01*
X144245000Y-114241126D02*
X144095000Y-114091126D01*
X144245000Y-114622300D02*
X144245000Y-114241126D01*
X78446200Y-112335000D02*
X78437800Y-112343400D01*
X150280000Y-112500000D02*
X151879000Y-110901000D01*
X151879000Y-110901000D02*
X151879000Y-108496000D01*
X84069600Y-112332500D02*
X84069600Y-112332000D01*
X78449000Y-112332000D02*
X78446200Y-112335000D01*
X92519100Y-110494000D02*
X90680700Y-112332000D01*
X150205975Y-112500000D02*
X150280000Y-112500000D01*
X84069600Y-112332000D02*
X78449000Y-112332000D01*
X144095000Y-114091126D02*
X144095000Y-112905000D01*
X144409000Y-112591000D02*
X150114975Y-112591000D01*
X150114975Y-112591000D02*
X150205975Y-112500000D01*
X149584000Y-106200000D02*
X131081000Y-106200000D01*
X151879000Y-108496000D02*
X149584000Y-106200000D01*
X131081000Y-106200000D02*
X126787000Y-110494000D01*
X90680700Y-112332000D02*
X84069600Y-112332000D01*
X78437800Y-112343400D02*
X78437800Y-112343700D01*
X126787000Y-110494000D02*
X92519100Y-110494000D01*
%TO.N,Net-(U11-VO)*%
X136111000Y-49410800D02*
X198548000Y-49410800D01*
X203290000Y-44669200D02*
X203290000Y-43772500D01*
X198548000Y-49410800D02*
X203290000Y-44669200D01*
%TO.N,PA8*%
X201169500Y-136462000D02*
X193072000Y-136462000D01*
X193072000Y-136462000D02*
X175419000Y-118810000D01*
X201169500Y-136462000D02*
X201170000Y-136462500D01*
X201170000Y-136462000D02*
X201169500Y-136462000D01*
X147932700Y-118810000D02*
X147932500Y-118809800D01*
X175419000Y-118810000D02*
X147933000Y-118810000D01*
X147933000Y-118810000D02*
X147932700Y-118810000D01*
%TO.N,PB5*%
X87340000Y-81514200D02*
X93462300Y-81514200D01*
X145815200Y-113934800D02*
X145551326Y-113934800D01*
X146302000Y-113448000D02*
X145815200Y-113934800D01*
X87340000Y-79712500D02*
X87340000Y-81514200D01*
X146430591Y-113448000D02*
X146302000Y-113448000D01*
X93462300Y-81514200D02*
X93690000Y-81286500D01*
X145551326Y-113934800D02*
X145245000Y-114241126D01*
X145245000Y-114241126D02*
X145245000Y-114622300D01*
%TO.N,PA9*%
X192343500Y-127136000D02*
X201170000Y-135962500D01*
X192343500Y-127136000D02*
X183517000Y-118310000D01*
X201170000Y-135962000D02*
X192343500Y-127136000D01*
X147933000Y-118310000D02*
X147932700Y-118310000D01*
X147932700Y-118310000D02*
X147932500Y-118309800D01*
X183517000Y-118310000D02*
X147933000Y-118310000D01*
%TO.N,Net-(R11-Pad2)*%
X146620500Y-143212000D02*
X146620000Y-143212500D01*
X148919500Y-143212000D02*
X146620500Y-143212000D01*
X148919500Y-143212000D02*
X148920000Y-143212500D01*
X146620500Y-143212000D02*
X146620000Y-143212000D01*
X148920000Y-143212000D02*
X148919500Y-143212000D01*
%TO.N,PB14*%
X152320500Y-143212000D02*
X154707000Y-143212000D01*
X147932700Y-119810000D02*
X147932500Y-119809800D01*
X150800000Y-119810000D02*
X147933000Y-119810000D01*
X154707500Y-143212000D02*
X154708000Y-143212000D01*
X154707000Y-143212000D02*
X154707500Y-143212000D01*
X154707500Y-143212000D02*
X154708000Y-143212000D01*
X154708000Y-143212000D02*
X155485000Y-143990000D01*
X154707000Y-143212000D02*
X154707500Y-143212000D01*
X152320000Y-143212000D02*
X152320500Y-143212000D01*
X152320500Y-143212000D02*
X152320000Y-143212500D01*
X154120000Y-123130000D02*
X150800000Y-119810000D01*
X155485000Y-143990000D02*
X157313000Y-143990000D01*
X154120000Y-123217000D02*
X154120000Y-123130000D01*
X154707500Y-143212000D02*
X154707500Y-143212500D01*
X147933000Y-119810000D02*
X147932700Y-119810000D01*
%TO.N,Net-(U2-ICC)*%
X196626000Y-76942500D02*
X196626000Y-78212500D01*
X197812000Y-78212500D02*
X204058000Y-84458600D01*
X204058000Y-84592500D02*
X205160000Y-84592500D01*
X204058000Y-84458600D02*
X204058000Y-84592500D01*
X195423000Y-76942500D02*
X196626000Y-76942500D01*
X196626000Y-78212500D02*
X197812000Y-78212500D01*
X195423000Y-78212500D02*
X196626000Y-78212500D01*
%TO.N,P0*%
X122500000Y-109792000D02*
X93620500Y-109792000D01*
X134080000Y-98212500D02*
X134080000Y-92767500D01*
X134080000Y-98212500D02*
X135707500Y-98212500D01*
X134080000Y-98212500D02*
X122500000Y-109792000D01*
X135707500Y-98212500D02*
X135708000Y-98212500D01*
%TO.N,DB0*%
X125081000Y-81915900D02*
X135366000Y-92200300D01*
X84800000Y-79712500D02*
X84800000Y-81514200D01*
X135366000Y-92767500D02*
X136620000Y-92767500D01*
X84800000Y-81514200D02*
X85201700Y-81915900D01*
X49764300Y-37200900D02*
X73108100Y-37200900D01*
X135366000Y-92200300D02*
X135366000Y-92767500D01*
X47120000Y-39845200D02*
X49764300Y-37200900D01*
X85201700Y-81915900D02*
X125081000Y-81915900D01*
%TO.N,DB2*%
X108366000Y-92218800D02*
X100943000Y-84795600D01*
X83001400Y-84795600D02*
X79720000Y-81514200D01*
X47120000Y-49192100D02*
X48112600Y-50184700D01*
X108366000Y-92767500D02*
X108366000Y-92218800D01*
X48112600Y-50184700D02*
X61469600Y-50184700D01*
X100943000Y-84795600D02*
X83001400Y-84795600D01*
X109620000Y-92767500D02*
X108366000Y-92767500D01*
X79720000Y-81514200D02*
X79720000Y-79712500D01*
%TO.N,P2*%
X99667500Y-107252000D02*
X108708000Y-98212500D01*
X108822000Y-98098400D02*
X108708000Y-98212500D01*
X108708000Y-98212500D02*
X108822000Y-98098400D01*
X108936000Y-97984300D02*
X109164000Y-97756100D01*
X93620000Y-107252000D02*
X99667500Y-107252000D01*
X108821600Y-98098400D02*
X108707500Y-98212500D01*
X93620000Y-107252500D02*
X93620000Y-107252000D01*
X109164000Y-97756100D02*
X109164000Y-97225500D01*
X108822000Y-98098400D02*
X108821600Y-98098400D01*
X108822000Y-98098400D02*
X108936000Y-97984300D01*
X108936000Y-97984300D02*
X108822000Y-98098400D01*
%TO.N,DB3*%
X53134800Y-53865600D02*
X47120000Y-53865600D01*
X77180000Y-79712500D02*
X77180000Y-77910800D01*
X77180000Y-77910800D02*
X53134800Y-53865600D01*
%TO.N,P3*%
X93580000Y-96585000D02*
X93580000Y-92767500D01*
X95207500Y-105598000D02*
X94823400Y-105982000D01*
X94823400Y-105982000D02*
X93620500Y-105982000D01*
X95207500Y-98212500D02*
X93580000Y-96585000D01*
X95207500Y-98212500D02*
X95207500Y-105598000D01*
X93620500Y-105982000D02*
X93620000Y-105982500D01*
%TO.N,DB4*%
X74640000Y-77910800D02*
X74640000Y-79712500D01*
X55268200Y-58539000D02*
X74640000Y-77910800D01*
X47120000Y-58539000D02*
X55268200Y-58539000D01*
%TO.N,P4*%
X80620000Y-92767500D02*
X81874200Y-92767500D01*
X81874200Y-92767500D02*
X81874200Y-97934200D01*
X81874200Y-97934200D02*
X82207500Y-98267500D01*
X82207500Y-98267500D02*
X82866200Y-98926200D01*
X82866200Y-104712000D02*
X84069100Y-104712000D01*
X84069100Y-104712000D02*
X84069600Y-104712500D01*
X82866200Y-98926200D02*
X82866200Y-104712000D01*
%TO.N,Net-(U13--)*%
X194220000Y-79482500D02*
X191285000Y-82417100D01*
X191285000Y-82417100D02*
X191285000Y-85920000D01*
X195423000Y-79482500D02*
X194220000Y-79482500D01*
%TO.N,Net-(U13-+)*%
X187863000Y-76942500D02*
X190635000Y-79714100D01*
X186660000Y-76942500D02*
X187863000Y-76942500D01*
X190635000Y-79714100D02*
X190635000Y-85920000D01*
%TO.N,PA3*%
X190635000Y-90145000D02*
X190635000Y-89341600D01*
X190635000Y-89341600D02*
X190274000Y-88981000D01*
X141745000Y-121497300D02*
X141745000Y-121968000D01*
X142216000Y-122440000D02*
X146128000Y-122440000D01*
X141745000Y-121497000D02*
X141745000Y-121497300D01*
X141745000Y-121968000D02*
X142216000Y-122440000D01*
X190274000Y-88981000D02*
X188675000Y-88981000D01*
%TO.N,DB5*%
X72100000Y-77910800D02*
X57401700Y-63212500D01*
X72100000Y-79712500D02*
X72100000Y-77910800D01*
X57401700Y-63212500D02*
X47120000Y-63212500D01*
%TO.N,P5*%
X69374200Y-92767500D02*
X68120000Y-92767500D01*
X69707500Y-98212500D02*
X69374200Y-97879200D01*
X84069100Y-105982000D02*
X84069600Y-105982500D01*
X69707500Y-98212500D02*
X77477500Y-105982000D01*
X69374200Y-97879200D02*
X69374200Y-92767500D01*
X77477500Y-105982000D02*
X84069100Y-105982000D01*
%TO.N,P6*%
X56207500Y-98212500D02*
X65247500Y-107252000D01*
X54620000Y-96625000D02*
X54620000Y-92767500D01*
X84069100Y-107252000D02*
X84069600Y-107252500D01*
X56207500Y-98212500D02*
X54620000Y-96625000D01*
X65247500Y-107252000D02*
X84069100Y-107252000D01*
%TO.N,DB6*%
X69560000Y-79712500D02*
X69560000Y-77910800D01*
X59535200Y-67886000D02*
X47120000Y-67886000D01*
X69560000Y-77910800D02*
X59535200Y-67886000D01*
%TO.N,DB7*%
X67020000Y-77910800D02*
X61668600Y-72559400D01*
X61668600Y-72559400D02*
X47120000Y-72559400D01*
X67020000Y-79712500D02*
X67020000Y-77910800D01*
%TO.N,P7*%
X53017500Y-108522000D02*
X84069100Y-108522000D01*
X42334200Y-97839200D02*
X42334200Y-92767500D01*
X84069100Y-108522000D02*
X84069600Y-108522500D01*
X42707500Y-98212500D02*
X42334200Y-97839200D01*
X42334200Y-92767500D02*
X41080000Y-92767500D01*
X42707500Y-98212500D02*
X53017500Y-108522000D01*
%TO.N,DB1*%
X82260000Y-81514200D02*
X83063400Y-82317600D01*
X79440800Y-49396500D02*
X51997900Y-49396500D01*
X51997900Y-49396500D02*
X47120000Y-44518600D01*
X82260000Y-79712500D02*
X82260000Y-81514200D01*
X83063400Y-82317600D02*
X111981000Y-82317600D01*
X121866000Y-92202200D02*
X121866000Y-92767500D01*
X121866000Y-92767500D02*
X123120000Y-92767500D01*
X111981000Y-82317600D02*
X121866000Y-92202200D01*
%TO.N,P1*%
X120580000Y-98212500D02*
X122207500Y-98212500D01*
X120580000Y-98212500D02*
X110270000Y-108522000D01*
X110270000Y-108522000D02*
X93620500Y-108522000D01*
X120580000Y-98212500D02*
X120580000Y-92767500D01*
X122207500Y-98212500D02*
X122208000Y-98212500D01*
%TO.N,Net-(D4-K)*%
X132120500Y-111212000D02*
X132120000Y-111212500D01*
X139619500Y-112548000D02*
X139620000Y-112548000D01*
X135075000Y-113066000D02*
X133222000Y-111212000D01*
X132120500Y-111212000D02*
X132120000Y-111212000D01*
X138450000Y-112702000D02*
X138087000Y-113066000D01*
X138450000Y-112543000D02*
X138450300Y-112542700D01*
X139619500Y-112548000D02*
X139620000Y-112547500D01*
X138450300Y-112542700D02*
X138450300Y-112528200D01*
X133222000Y-111212000D02*
X132120500Y-111212000D01*
X138450000Y-112543000D02*
X138450000Y-112538000D01*
X138450000Y-112548000D02*
X139619500Y-112548000D01*
X138450000Y-112548000D02*
X138450000Y-112543000D01*
X138087000Y-113066000D02*
X135075000Y-113066000D01*
X138450000Y-112548000D02*
X138450000Y-112702000D01*
%TO.N,Net-(D1-K)*%
X61369800Y-123212300D02*
X61369800Y-123212000D01*
X35770000Y-122662000D02*
X38195000Y-122662000D01*
X38195000Y-125437500D02*
X38195000Y-125438000D01*
X38195000Y-122662000D02*
X38195000Y-125437500D01*
X35770000Y-128212000D02*
X38195000Y-128212000D01*
X54120000Y-125925000D02*
X55215400Y-124830000D01*
X61370000Y-123212500D02*
X61369800Y-123212300D01*
X55215400Y-124830000D02*
X59752900Y-124830000D01*
X59752900Y-124830000D02*
X61369800Y-123212000D01*
X38195000Y-128212000D02*
X40620000Y-128212000D01*
X38195000Y-125438000D02*
X38195000Y-128212000D01*
X53632500Y-125438000D02*
X54120000Y-125925000D01*
X40620000Y-122662500D02*
X40620000Y-122662000D01*
X38195000Y-122662000D02*
X40620000Y-122662000D01*
X38195000Y-125438000D02*
X53632500Y-125438000D01*
%TO.N,Net-(Q1-G)*%
X188120000Y-137219000D02*
X188074000Y-137265000D01*
X188082000Y-135251000D02*
X188120000Y-135212000D01*
X188120000Y-135212500D02*
X188120000Y-137219000D01*
X188120000Y-135212000D02*
X188120000Y-135212500D01*
X184456000Y-135251000D02*
X188082000Y-135251000D01*
%TO.N,Net-(R7-Pad1)*%
X193192000Y-85920000D02*
X194160000Y-86887500D01*
X191935000Y-85920000D02*
X193192000Y-85920000D01*
%TO.N,Net-(R7-Pad2)*%
X192728000Y-90145000D02*
X194160000Y-88712500D01*
X191935000Y-90145000D02*
X192728000Y-90145000D01*
%TO.N,Net-(R32-Pad2)*%
X149132000Y-107012000D02*
X150620000Y-108500000D01*
X147620000Y-107012000D02*
X149132000Y-107012000D01*
%TO.N,Net-(U13-V-)*%
X185854000Y-85920000D02*
X185846000Y-85927700D01*
X185838000Y-85935400D02*
X185846000Y-85927700D01*
X189985000Y-85920000D02*
X185854000Y-85920000D01*
X185846000Y-85927700D02*
X185838000Y-85935200D01*
X185838000Y-85935200D02*
X185838000Y-85935400D01*
%TD*%
M02*
