%TF.GenerationSoftware,KiCad,Pcbnew,8.0.6-8.0.6-0~ubuntu22.04.1*%
%TF.CreationDate,2024-10-30T23:16:00-03:00*%
%TF.ProjectId,Projeto SEMB,50726f6a-6574-46f2-9053-454d422e6b69,rev?*%
%TF.SameCoordinates,Original*%
%TF.FileFunction,Copper,L2,Bot*%
%TF.FilePolarity,Positive*%
%FSLAX46Y46*%
G04 Gerber Fmt 4.6, Leading zero omitted, Abs format (unit mm)*
G04 Created by KiCad (PCBNEW 8.0.6-8.0.6-0~ubuntu22.04.1) date 2024-10-30 23:16:00*
%MOMM*%
%LPD*%
G01*
G04 APERTURE LIST*
%TA.AperFunction,ComponentPad*%
%ADD10R,1.350000X1.350000*%
%TD*%
%TA.AperFunction,ComponentPad*%
%ADD11O,1.350000X1.350000*%
%TD*%
%TA.AperFunction,ComponentPad*%
%ADD12R,1.905000X2.000000*%
%TD*%
%TA.AperFunction,ComponentPad*%
%ADD13O,1.905000X2.000000*%
%TD*%
%TA.AperFunction,ComponentPad*%
%ADD14C,0.600000*%
%TD*%
%TA.AperFunction,SMDPad,CuDef*%
%ADD15R,0.900000X1.600000*%
%TD*%
%TA.AperFunction,ComponentPad*%
%ADD16R,1.600000X1.600000*%
%TD*%
%TA.AperFunction,ComponentPad*%
%ADD17O,1.600000X1.600000*%
%TD*%
%TA.AperFunction,ComponentPad*%
%ADD18R,2.200000X2.200000*%
%TD*%
%TA.AperFunction,ComponentPad*%
%ADD19O,2.200000X2.200000*%
%TD*%
%TA.AperFunction,ComponentPad*%
%ADD20C,1.600000*%
%TD*%
%TA.AperFunction,ComponentPad*%
%ADD21C,6.500000*%
%TD*%
%TA.AperFunction,ComponentPad*%
%ADD22R,1.500000X3.000000*%
%TD*%
%TA.AperFunction,ComponentPad*%
%ADD23O,1.500000X3.000000*%
%TD*%
%TA.AperFunction,ComponentPad*%
%ADD24R,2.000000X2.000000*%
%TD*%
%TA.AperFunction,ViaPad*%
%ADD25C,0.600000*%
%TD*%
%TA.AperFunction,Conductor*%
%ADD26C,0.200000*%
%TD*%
G04 APERTURE END LIST*
D10*
%TO.P,L2,1,1*%
%TO.N,3.3V*%
X188120000Y-144712500D03*
D11*
%TO.P,L2,2,2*%
%TO.N,Net-(D2-A)*%
X186120000Y-144712500D03*
%TD*%
D12*
%TO.P,Q9,1,G*%
%TO.N,+3.3V*%
X125660000Y-92767500D03*
D13*
%TO.P,Q9,2,D*%
%TO.N,DB1*%
X123120000Y-92767500D03*
%TO.P,Q9,3,S*%
%TO.N,P1*%
X120580000Y-92767500D03*
%TD*%
D12*
%TO.P,Q7,1,G*%
%TO.N,+3.3V*%
X59700000Y-92767500D03*
D13*
%TO.P,Q7,2,D*%
%TO.N,DB6*%
X57160000Y-92767500D03*
%TO.P,Q7,3,S*%
%TO.N,P6*%
X54620000Y-92767500D03*
%TD*%
D12*
%TO.P,Q3,1,G*%
%TO.N,+3.3V*%
X112160000Y-92767500D03*
D13*
%TO.P,Q3,2,D*%
%TO.N,DB2*%
X109620000Y-92767500D03*
%TO.P,Q3,3,S*%
%TO.N,P2*%
X107080000Y-92767500D03*
%TD*%
D12*
%TO.P,Q5,1,G*%
%TO.N,+3.3V*%
X85700000Y-92767500D03*
D13*
%TO.P,Q5,2,D*%
%TO.N,DB4*%
X83160000Y-92767500D03*
%TO.P,Q5,3,S*%
%TO.N,P4*%
X80620000Y-92767500D03*
%TD*%
D10*
%TO.P,M1,1,+*%
%TO.N,Net-(M1-+)*%
X208620000Y-137712500D03*
D11*
%TO.P,M1,2,-*%
%TO.N,Net-(M1--)*%
X208620000Y-135712500D03*
%TD*%
D14*
%TO.P,U4,9,GND*%
%TO.N,GND*%
X202120000Y-137212500D03*
D15*
X202120000Y-136712500D03*
D14*
X202120000Y-136212500D03*
%TD*%
D10*
%TO.P,J1,1,Pin_1*%
%TO.N,GND*%
X45620000Y-142212500D03*
D11*
%TO.P,J1,2,Pin_2*%
%TO.N,+12V*%
X47620000Y-142212500D03*
%TD*%
D12*
%TO.P,Q2,1,G*%
%TO.N,+3.3V*%
X139160000Y-92767500D03*
D13*
%TO.P,Q2,2,D*%
%TO.N,DB0*%
X136620000Y-92767500D03*
%TO.P,Q2,3,S*%
%TO.N,P0*%
X134080000Y-92767500D03*
%TD*%
D16*
%TO.P,D2,1,K*%
%TO.N,3.3V*%
X191120000Y-140712500D03*
D17*
%TO.P,D2,2,A*%
%TO.N,Net-(D2-A)*%
X183500000Y-140712500D03*
%TD*%
D12*
%TO.P,Q8,1,G*%
%TO.N,+3.3V*%
X46160000Y-92767500D03*
D13*
%TO.P,Q8,2,D*%
%TO.N,DB7*%
X43620000Y-92767500D03*
%TO.P,Q8,3,S*%
%TO.N,P7*%
X41080000Y-92767500D03*
%TD*%
D18*
%TO.P,D3,1,K*%
%TO.N,Net-(BZ1-+)*%
X201120000Y-61892500D03*
D19*
%TO.P,D3,2,A*%
%TO.N,GND*%
X201120000Y-51732500D03*
%TD*%
D16*
%TO.P,C15,1*%
%TO.N,Net-(D4-K)*%
X132120000Y-111212500D03*
D20*
%TO.P,C15,2*%
%TO.N,GND*%
X132120000Y-107412500D03*
%TD*%
D21*
%TO.P,U11,*%
%TO.N,*%
X174540000Y-78712500D03*
X174540000Y-41712500D03*
X59540000Y-78712500D03*
X59540000Y-41712500D03*
D22*
%TO.P,U11,1,VSS*%
%TO.N,GND*%
X100040000Y-79712500D03*
D23*
%TO.P,U11,2,VDD*%
%TO.N,+5V*%
X97500000Y-79712500D03*
%TO.P,U11,3,VO*%
%TO.N,Net-(U11-VO)*%
X94960000Y-79712500D03*
%TO.P,U11,4,RS*%
%TO.N,GND*%
X92420000Y-79712500D03*
%TO.P,U11,5,R/~{W}*%
X89880000Y-79712500D03*
%TO.P,U11,6,E*%
%TO.N,PB5*%
X87340000Y-79712500D03*
%TO.P,U11,7,DB0*%
%TO.N,DB0*%
X84800000Y-79712500D03*
%TO.P,U11,8,DB1*%
%TO.N,DB1*%
X82260000Y-79712500D03*
%TO.P,U11,9,DB2*%
%TO.N,DB2*%
X79720000Y-79712500D03*
%TO.P,U11,10,DB3*%
%TO.N,DB3*%
X77180000Y-79712500D03*
%TO.P,U11,11,DB4*%
%TO.N,DB4*%
X74640000Y-79712500D03*
%TO.P,U11,12,DB5*%
%TO.N,DB5*%
X72100000Y-79712500D03*
%TO.P,U11,13,DB6*%
%TO.N,DB6*%
X69560000Y-79712500D03*
%TO.P,U11,14,DB7*%
%TO.N,DB7*%
X67020000Y-79712500D03*
%TO.P,U11,15,A/VEE*%
%TO.N,+5V*%
X102580000Y-79712500D03*
%TO.P,U11,16,K*%
%TO.N,GND*%
X105120000Y-79712500D03*
D24*
%TO.P,U11,A1,A1*%
%TO.N,+5V*%
X175540000Y-65712500D03*
%TO.P,U11,A2,A2*%
X175540000Y-54712500D03*
%TO.P,U11,K1,K1*%
%TO.N,GND*%
X175540000Y-61712500D03*
%TO.P,U11,K2,K2*%
X175540000Y-50712500D03*
%TD*%
D16*
%TO.P,U3,1,NC*%
%TO.N,unconnected-(U3-NC-Pad1)*%
X200080000Y-92212500D03*
D17*
%TO.P,U3,2,-*%
%TO.N,GND*%
X202620000Y-92212500D03*
%TO.P,U3,3,+*%
%TO.N,Net-(U3-+)*%
X205160000Y-92212500D03*
%TO.P,U3,4,V-*%
%TO.N,GND*%
X207700000Y-92212500D03*
%TO.P,U3,5,NC*%
%TO.N,unconnected-(U3-NC-Pad5)*%
X207700000Y-84592500D03*
%TO.P,U3,6*%
%TO.N,Net-(U2-ICC)*%
X205160000Y-84592500D03*
%TO.P,U3,7,V+*%
%TO.N,+3.3V*%
X202620000Y-84592500D03*
%TO.P,U3,8,NC*%
%TO.N,unconnected-(U3-NC-Pad8)*%
X200080000Y-84592500D03*
%TD*%
D10*
%TO.P,J2,1,Pin_1*%
%TO.N,GND*%
X155120000Y-115212500D03*
D11*
%TO.P,J2,2,Pin_2*%
%TO.N,PA14*%
X157120000Y-115212500D03*
%TO.P,J2,3,Pin_3*%
%TO.N,PA13*%
X159120000Y-115212500D03*
%TO.P,J2,4,Pin_4*%
%TO.N,+3.3V*%
X161120000Y-115212500D03*
%TD*%
D12*
%TO.P,Q4,1,G*%
%TO.N,+3.3V*%
X98660000Y-92767500D03*
D13*
%TO.P,Q4,2,D*%
%TO.N,DB3*%
X96120000Y-92767500D03*
%TO.P,Q4,3,S*%
%TO.N,P3*%
X93580000Y-92767500D03*
%TD*%
D12*
%TO.P,Q6,1,G*%
%TO.N,+3.3V*%
X73200000Y-92767500D03*
D13*
%TO.P,Q6,2,D*%
%TO.N,DB5*%
X70660000Y-92767500D03*
%TO.P,Q6,3,S*%
%TO.N,P5*%
X68120000Y-92767500D03*
%TD*%
D25*
%TO.N,GND*%
X92190600Y-105068000D03*
X92204000Y-111894000D03*
%TO.N,+12V*%
X46402300Y-137886000D03*
X193620000Y-144712000D03*
%TO.N,+3.3V*%
X141111000Y-107222000D03*
X148650000Y-114761000D03*
X200315000Y-137462000D03*
X155231000Y-122362000D03*
X145335000Y-126872000D03*
%TO.N,+5V*%
X72616900Y-129978000D03*
X85480300Y-109792000D03*
%TO.N,PA10*%
X203009000Y-63821400D03*
X191568000Y-117810000D03*
%TO.N,Net-(SW3-B)*%
X44534300Y-122038000D03*
X34458300Y-137572000D03*
%TO.N,PB6*%
X145000000Y-113250000D03*
%TO.N,Net-(U11-VO)*%
X136111000Y-49410800D03*
%TO.N,PB5*%
X146430591Y-113448000D03*
X93690000Y-81286500D03*
%TO.N,PB14*%
X157313000Y-143990000D03*
X154120000Y-123217000D03*
%TO.N,DB0*%
X73108100Y-37200900D03*
%TO.N,DB2*%
X61469600Y-50184700D03*
%TO.N,P2*%
X109164000Y-97225500D03*
%TO.N,PA3*%
X146128000Y-122440000D03*
X188675000Y-88981000D03*
%TO.N,DB1*%
X79440800Y-49396500D03*
%TD*%
D26*
%TO.N,GND*%
X204620000Y-91085800D02*
X203722000Y-91984200D01*
X207700000Y-92212500D02*
X206598000Y-92212500D01*
X202120000Y-136712500D02*
X202120000Y-137212000D01*
X203768000Y-90233500D02*
X203768000Y-55782000D01*
X92190600Y-105068000D02*
X92190600Y-111880000D01*
X202120000Y-93814200D02*
X202620000Y-93314200D01*
X175540000Y-60410800D02*
X175540000Y-61712500D01*
X176842000Y-59109100D02*
X175540000Y-60410800D01*
X92190600Y-111880000D02*
X92204000Y-111894000D01*
X100040000Y-77910800D02*
X92420000Y-77910800D01*
X202120000Y-136212500D02*
X202120000Y-136712500D01*
X176842000Y-53315900D02*
X176842000Y-59109100D01*
X203768000Y-55782000D02*
X201120000Y-53134200D01*
X175540000Y-52014200D02*
X176842000Y-53315900D01*
X202120000Y-136212500D02*
X202120000Y-93814200D01*
X203722000Y-91984200D02*
X203722000Y-92212500D01*
X175540000Y-50712500D02*
X175540000Y-52014200D01*
X92420000Y-79712500D02*
X92420000Y-81514200D01*
X92420000Y-81514200D02*
X99928400Y-89022600D01*
X201120000Y-53134200D02*
X201120000Y-51732500D01*
X205609000Y-91085800D02*
X204620000Y-91085800D01*
X99928400Y-97329900D02*
X92190600Y-105068000D01*
X105120000Y-79712500D02*
X105120000Y-77910800D01*
X202620000Y-93314200D02*
X202620000Y-92212500D01*
X92420000Y-77910800D02*
X92420000Y-79712500D01*
X105120000Y-77910800D02*
X100040000Y-77910800D01*
X206598000Y-92212500D02*
X206598000Y-92074800D01*
X202120000Y-137212000D02*
X202120000Y-137212500D01*
X99928400Y-89022600D02*
X99928400Y-97329900D01*
X100040000Y-79712500D02*
X100040000Y-77910800D01*
X204620000Y-91085800D02*
X203768000Y-90233500D01*
X206598000Y-92074800D02*
X205609000Y-91085800D01*
X203722000Y-92212500D02*
X202620000Y-92212500D01*
%TO.N,+12V*%
X47620000Y-139104000D02*
X46402300Y-137886000D01*
X47620000Y-142212000D02*
X47620000Y-139104000D01*
X47620000Y-142212000D02*
X47620000Y-142212500D01*
%TO.N,3.3V*%
X191120000Y-141814000D02*
X191120000Y-140712500D01*
X190042000Y-141814000D02*
X191120000Y-141814000D01*
X188120000Y-144712000D02*
X188120000Y-143736000D01*
X188120000Y-144712000D02*
X188120000Y-144712500D01*
X188120000Y-143736000D02*
X190042000Y-141814000D01*
X191120000Y-140712500D02*
X191120000Y-140712000D01*
%TO.N,+3.3V*%
X139160000Y-105271000D02*
X141111000Y-107222000D01*
X145335000Y-122376000D02*
X145335000Y-126872000D01*
X161120000Y-116473000D02*
X155231000Y-122362000D01*
X128232000Y-91450100D02*
X137137000Y-91450100D01*
X148650000Y-114761000D02*
X148650000Y-115781000D01*
X202620000Y-85694200D02*
X202620000Y-84592500D01*
X201208000Y-87105700D02*
X202620000Y-85694200D01*
X114732000Y-91450200D02*
X113414000Y-92767500D01*
X124406000Y-92218800D02*
X123637000Y-91450200D01*
X161120000Y-115212500D02*
X161120000Y-116473000D01*
X150290000Y-117421000D02*
X155231000Y-122362000D01*
X125660000Y-92767500D02*
X124406000Y-92767500D01*
X148650000Y-115781000D02*
X150290000Y-117421000D01*
X200315000Y-137462000D02*
X201208000Y-136569000D01*
X113414000Y-92767500D02*
X112160000Y-92767500D01*
X125660000Y-92767500D02*
X126914000Y-92767500D01*
X139160000Y-92767500D02*
X139160000Y-105271000D01*
X137906000Y-92218800D02*
X137906000Y-92767500D01*
X201208000Y-136569000D02*
X201208000Y-87105700D01*
X141111000Y-107222000D02*
X148650000Y-114761000D01*
X126914000Y-92767500D02*
X128232000Y-91450100D01*
X150290000Y-117421000D02*
X145335000Y-122376000D01*
X137137000Y-91450100D02*
X137906000Y-92218800D01*
X124406000Y-92767500D02*
X124406000Y-92218800D01*
X137906000Y-92767500D02*
X139160000Y-92767500D01*
X123637000Y-91450200D02*
X114732000Y-91450200D01*
X161120000Y-115212000D02*
X161120000Y-115212500D01*
%TO.N,+5V*%
X97500000Y-81514200D02*
X97500000Y-79712500D01*
X72616900Y-122656000D02*
X85480300Y-109792000D01*
X174238000Y-57315900D02*
X175540000Y-56014200D01*
X102580000Y-81514200D02*
X97500000Y-81514200D01*
X72616900Y-129978000D02*
X72616900Y-122656000D01*
X175540000Y-65712500D02*
X175540000Y-64410800D01*
X175540000Y-64410800D02*
X174238000Y-63109100D01*
X102580000Y-79712500D02*
X102580000Y-81514200D01*
X175540000Y-56014200D02*
X175540000Y-54712500D01*
X174238000Y-63109100D02*
X174238000Y-57315900D01*
%TO.N,PA10*%
X203009000Y-63821400D02*
X191568000Y-75262400D01*
X191568000Y-75262400D02*
X191568000Y-117810000D01*
%TO.N,Net-(SW3-B)*%
X34458300Y-137572000D02*
X34458300Y-132114000D01*
X34458300Y-132114000D02*
X44534300Y-122038000D01*
%TO.N,Net-(D2-A)*%
X186120000Y-143736000D02*
X184198000Y-141814000D01*
X184198000Y-141814000D02*
X183500000Y-141814000D01*
X186120000Y-144712000D02*
X186120000Y-143736000D01*
X183500000Y-140712500D02*
X183500000Y-140712000D01*
X183500000Y-141814000D02*
X183500000Y-140712500D01*
%TO.N,PB6*%
X145000000Y-113250000D02*
X122750000Y-135500000D01*
X122750000Y-135500000D02*
X74750000Y-135500000D01*
X74750000Y-135500000D02*
X70000000Y-130750000D01*
%TO.N,Net-(U11-VO)*%
X95365800Y-81920000D02*
X105203000Y-81920000D01*
X94960000Y-79712500D02*
X94960000Y-81514200D01*
X105203000Y-81920000D02*
X136111000Y-51012400D01*
X136111000Y-51012400D02*
X136111000Y-49410800D01*
X94960000Y-81514200D02*
X95365800Y-81920000D01*
%TO.N,PB5*%
X93690000Y-81989500D02*
X93690000Y-81286500D01*
X108132000Y-97045100D02*
X108132000Y-96432000D01*
X123336900Y-112250000D02*
X108132000Y-97045100D01*
X133170000Y-112250000D02*
X133170000Y-112262500D01*
X145644026Y-112250000D02*
X133170000Y-112250000D01*
X131070000Y-112250000D02*
X123336900Y-112250000D01*
X108132000Y-96432000D02*
X93690000Y-81989500D01*
X133170000Y-112262500D02*
X131070000Y-112262500D01*
X146430591Y-113448000D02*
X146430591Y-113036565D01*
X131070000Y-112262500D02*
X131070000Y-112250000D01*
X146430591Y-113036565D02*
X145644026Y-112250000D01*
%TO.N,PB14*%
X154120000Y-140797000D02*
X157313000Y-143990000D01*
X154120000Y-123217000D02*
X154120000Y-140797000D01*
%TO.N,DB0*%
X84800000Y-48892800D02*
X73108100Y-37200900D01*
X84800000Y-79712500D02*
X84800000Y-48892800D01*
%TO.N,DB2*%
X79720000Y-68435100D02*
X79720000Y-79712500D01*
X61469600Y-50184700D02*
X79720000Y-68435100D01*
%TO.N,P2*%
X109164000Y-96808400D02*
X109164000Y-97225500D01*
X108334000Y-95978700D02*
X109164000Y-96808400D01*
X107080000Y-92767500D02*
X108334000Y-92767500D01*
X108334000Y-92767500D02*
X108334000Y-95978700D01*
%TO.N,DB3*%
X94865800Y-92200300D02*
X94865800Y-92767500D01*
X94865800Y-92767500D02*
X96120000Y-92767500D01*
X77180000Y-81514200D02*
X84179700Y-81514200D01*
X77180000Y-79712500D02*
X77180000Y-81514200D01*
X84179700Y-81514200D02*
X94865800Y-92200300D01*
%TO.N,DB4*%
X74640000Y-79712500D02*
X74640000Y-81514200D01*
X83160000Y-90034200D02*
X83160000Y-92767500D01*
X74640000Y-81514200D02*
X83160000Y-90034200D01*
%TO.N,PA3*%
X154193000Y-122440000D02*
X146128000Y-122440000D01*
X188675000Y-88981000D02*
X188675000Y-89775100D01*
X154722000Y-122968000D02*
X154193000Y-122440000D01*
X188675000Y-89775100D02*
X155482000Y-122968000D01*
X155482000Y-122968000D02*
X154722000Y-122968000D01*
%TO.N,DB5*%
X72100000Y-81514200D02*
X70660000Y-82954200D01*
X70660000Y-82954200D02*
X70660000Y-92767500D01*
X72100000Y-79712500D02*
X72100000Y-81514200D01*
%TO.N,DB6*%
X69560000Y-81514200D02*
X68499200Y-81514200D01*
X58414200Y-91599200D02*
X58414200Y-92767500D01*
X58414200Y-92767500D02*
X57160000Y-92767500D01*
X69560000Y-79712500D02*
X69560000Y-81514200D01*
X68499200Y-81514200D02*
X58414200Y-91599200D01*
%TO.N,DB7*%
X67020000Y-79712500D02*
X67020000Y-81514200D01*
X45754100Y-90792300D02*
X44874200Y-91672200D01*
X44874200Y-91672200D02*
X44874200Y-92767500D01*
X67020000Y-81514200D02*
X57741900Y-90792300D01*
X57741900Y-90792300D02*
X45754100Y-90792300D01*
X44874200Y-92767500D02*
X43620000Y-92767500D01*
%TO.N,DB1*%
X82260000Y-79712500D02*
X82260000Y-52215700D01*
X82260000Y-52215700D02*
X79440800Y-49396500D01*
%TD*%
M02*
