%TF.GenerationSoftware,KiCad,Pcbnew,8.0.6-8.0.6-0~ubuntu22.04.1*%
%TF.CreationDate,2024-10-30T23:16:18-03:00*%
%TF.ProjectId,Projeto SEMB,50726f6a-6574-46f2-9053-454d422e6b69,rev?*%
%TF.SameCoordinates,Original*%
%TF.FileFunction,Soldermask,Bot*%
%TF.FilePolarity,Negative*%
%FSLAX46Y46*%
G04 Gerber Fmt 4.6, Leading zero omitted, Abs format (unit mm)*
G04 Created by KiCad (PCBNEW 8.0.6-8.0.6-0~ubuntu22.04.1) date 2024-10-30 23:16:18*
%MOMM*%
%LPD*%
G01*
G04 APERTURE LIST*
%ADD10R,1.350000X1.350000*%
%ADD11O,1.350000X1.350000*%
%ADD12R,1.905000X2.000000*%
%ADD13O,1.905000X2.000000*%
%ADD14C,0.900000*%
%ADD15C,0.800000*%
%ADD16R,1.600000X1.600000*%
%ADD17O,1.600000X1.600000*%
%ADD18R,2.200000X2.200000*%
%ADD19O,2.200000X2.200000*%
%ADD20C,1.600000*%
%ADD21C,6.500000*%
%ADD22R,1.500000X3.000000*%
%ADD23O,1.500000X3.000000*%
%ADD24R,2.000000X2.000000*%
G04 APERTURE END LIST*
D10*
%TO.C,L2*%
X188120000Y-144712500D03*
D11*
X186120000Y-144712500D03*
%TD*%
D12*
%TO.C,Q9*%
X125660000Y-92767500D03*
D13*
X123120000Y-92767500D03*
X120580000Y-92767500D03*
%TD*%
D12*
%TO.C,Q7*%
X59700000Y-92767500D03*
D13*
X57160000Y-92767500D03*
X54620000Y-92767500D03*
%TD*%
D12*
%TO.C,Q3*%
X112160000Y-92767500D03*
D13*
X109620000Y-92767500D03*
X107080000Y-92767500D03*
%TD*%
D12*
%TO.C,Q5*%
X85700000Y-92767500D03*
D13*
X83160000Y-92767500D03*
X80620000Y-92767500D03*
%TD*%
D10*
%TO.C,M1*%
X208620000Y-137712500D03*
D11*
X208620000Y-135712500D03*
%TD*%
D10*
%TO.C,J1*%
X45620000Y-142212500D03*
D11*
X47620000Y-142212500D03*
%TD*%
D14*
%TO.C,SW3*%
X37620000Y-142112500D03*
X37620000Y-135312500D03*
%TD*%
D15*
%TO.C,SW4*%
X150620000Y-143212500D03*
%TD*%
D12*
%TO.C,Q2*%
X139160000Y-92767500D03*
D13*
X136620000Y-92767500D03*
X134080000Y-92767500D03*
%TD*%
D16*
%TO.C,D2*%
X191120000Y-140712500D03*
D17*
X183500000Y-140712500D03*
%TD*%
D15*
%TO.C,SW2*%
X147620000Y-108712500D03*
%TD*%
D12*
%TO.C,Q8*%
X46160000Y-92767500D03*
D13*
X43620000Y-92767500D03*
X41080000Y-92767500D03*
%TD*%
D18*
%TO.C,D3*%
X201120000Y-61892500D03*
D19*
X201120000Y-51732500D03*
%TD*%
D16*
%TO.C,C15*%
X132120000Y-111212500D03*
D20*
X132120000Y-107412500D03*
%TD*%
D15*
%TO.C,SW1*%
X135132500Y-126809800D03*
%TD*%
D21*
%TO.C,U11*%
X174540000Y-78712500D03*
X174540000Y-41712500D03*
X59540000Y-78712500D03*
X59540000Y-41712500D03*
D22*
X100040000Y-79712500D03*
D23*
X97500000Y-79712500D03*
X94960000Y-79712500D03*
X92420000Y-79712500D03*
X89880000Y-79712500D03*
X87340000Y-79712500D03*
X84800000Y-79712500D03*
X82260000Y-79712500D03*
X79720000Y-79712500D03*
X77180000Y-79712500D03*
X74640000Y-79712500D03*
X72100000Y-79712500D03*
X69560000Y-79712500D03*
X67020000Y-79712500D03*
X102580000Y-79712500D03*
X105120000Y-79712500D03*
D24*
X175540000Y-65712500D03*
X175540000Y-54712500D03*
X175540000Y-61712500D03*
X175540000Y-50712500D03*
%TD*%
D16*
%TO.C,U3*%
X200080000Y-92212500D03*
D17*
X202620000Y-92212500D03*
X205160000Y-92212500D03*
X207700000Y-92212500D03*
X207700000Y-84592500D03*
X205160000Y-84592500D03*
X202620000Y-84592500D03*
X200080000Y-84592500D03*
%TD*%
D10*
%TO.C,J2*%
X155120000Y-115212500D03*
D11*
X157120000Y-115212500D03*
X159120000Y-115212500D03*
X161120000Y-115212500D03*
%TD*%
D12*
%TO.C,Q4*%
X98660000Y-92767500D03*
D13*
X96120000Y-92767500D03*
X93580000Y-92767500D03*
%TD*%
D12*
%TO.C,Q6*%
X73200000Y-92767500D03*
D13*
X70660000Y-92767500D03*
X68120000Y-92767500D03*
%TD*%
M02*
